SplineFontDB: 3.0
FontName: Bevan
FullName: Bevan
FamilyName: Bevan
Weight: Book
Copyright: Copyright (c) 2011 by vernon adams. All rights reserved.
Version: 1.000
ItalicAngle: 0
UnderlinePosition: -205
UnderlineWidth: 102
Ascent: 1638
Descent: 410
LayerCount: 2
Layer: 0 0 "Back"  1
Layer: 1 0 "Fore"  0
NeedsXUIDChange: 1
XUID: [1021 823 301787212 14470943]
FSType: 0
OS2Version: 3
OS2_WeightWidthSlopeOnly: 0
OS2_UseTypoMetrics: 1
CreationTime: 1297990544
ModificationTime: 1313990503
PfmFamily: 17
TTFWeight: 400
TTFWidth: 5
LineGap: 0
VLineGap: 0
Panose: 2 0 0 0 0 0 0 0 0 0
OS2TypoAscent: 727
OS2TypoAOffset: 1
OS2TypoDescent: -515
OS2TypoDOffset: 1
OS2TypoLinegap: 0
OS2WinAscent: -20
OS2WinAOffset: 1
OS2WinDescent: 2
OS2WinDOffset: 1
HheadAscent: -20
HheadAOffset: 1
HheadDescent: -2
HheadDOffset: 1
OS2SubXSize: 1434
OS2SubYSize: 1331
OS2SubXOff: 0
OS2SubYOff: 287
OS2SupXSize: 1434
OS2SupYSize: 1331
OS2SupXOff: 0
OS2SupYOff: 977
OS2StrikeYSize: 102
OS2StrikeYPos: 512
OS2Vendor: 'newt'
OS2CodePages: 20000093.00000000
OS2UnicodeRanges: a00000af.5000204b.00000000.00000000
Lookup: 258 0 0 "'kern' Horizontal Kerning in Latin lookup 0"  {"'kern' Horizontal Kerning in Latin lookup 0 per glyph data 0"  "'kern' Horizontal Kerning in Latin lookup 0 per glyph data 1"  "'kern' Horizontal Kerning in Latin lookup 0 kerning class 2"  } ['kern' ('latn' <'dflt' > ) ]
MarkAttachClasses: 1
DEI: 91125
KernClass2: 32+ 34 "'kern' Horizontal Kerning in Latin lookup 0 kerning class 2" 
 50 A Agrave Aacute Acircumflex Atilde Adieresis Aring
 10 C Ccedilla
 59 D O Q Eth Ograve Oacute Ocircumflex Otilde Odieresis Oslash
 43 E AE Egrave Eacute Ecircumflex Edieresis OE
 41 H I M Igrave Iacute Icircumflex Idieresis
 8 L Lslash
 8 N Ntilde
 21 S Scaron Scommaaccent
 22 T Tcommaaccent uni021A
 37 U Ugrave Uacute Ucircumflex Udieresis
 18 Y Yacute Ydieresis
 8 Z Zcaron
 50 a agrave aacute acircumflex atilde adieresis aring
 9 b p thorn
 10 c ccedilla
 18 d l lslash uniFB02

StartChar: exclam
Encoding: 33 33 4
Width: 626
GlyphClass: 2
Flags: HW
LayerCount: 2
Fore
SplineSet
95 1600 m 1
 622 1600 l 1
 622 1332.62597656 l 1
 541.0703125 587.87109375 l 1
 173.979492188 586.12890625 l 1
 95 1332.58203125 l 1
 95 1600 l 1
583.305664062 -15 m 0
 643.69921875 37.625 674 110.702148438 674 197.859375 c 0
 674 286.5546875 642.751953125 360.883789062 580.7109375 414.49609375 c 0
 519.848632812 467.090820312 444.060546875 493 357 493 c 0
 271.779296875 493 197.899414062 466.947265625 139.299804688 414.065429688 c 0
 79.6982421875 360.279296875 50 286.139648438 50 197.859375 c 0
 50 111.00390625 79.1875 38.0693359375 137.837890625 -14.6826171875 c 0
 195.708007812 -66.7353515625 270.125 -92 357 -92 c 0
 446.946289062 -92 523.684570312 -66.951171875 583.305664062 -15 c 0
EndSplineSet
EndChar

StartChar: quotedbl
Encoding: 34 34 5
Width: 1041
GlyphClass: 2
Flags: HW
LayerCount: 2
Fore
SplineSet
439.475179821 1594 m 1
 358.672575508 975 l 1
 121.930664062 975 l 1
 49 1594 l 1
 439.475179821 1594 l 1
987.515625 1594 m 1
 896.3515625 975 l 1
 661.720665993 975 l 1
 597.07970423 1594 l 1
 987.515625 1594 l 1
EndSplineSet
EndChar

StartChar: numbersign
Encoding: 35 35 6
Width: 1241
GlyphClass: 2
Flags: HW
LayerCount: 2
Fore
SplineSet
316.276587063 977 m 1
 183 977 l 1
 233.358398438 1216 l 1
 365.551380525 1216 l 1
 442.810115679 1593 l 1
 682.530810314 1593 l 1
 602.512360603 1216 l 1
 806.112174337 1216 l 1
 883.371857521 1593 l 1
 1138.30761719 1593 l 1
 1051.30761719 1216 l 1
 1192.04003906 1216 l 1
 1141.68164062 977 l 1
 997.048828125 977 l 1
 904.139396877 555 l 1
 1045.04003906 555 l 1
 994.681640625 316 l 1
 853.38852112 316 l 1
 793.603870025 30 l 1
 563.553078679 30 l 1
 621.497604059 316 l 1
 412.826779277 316 l 1
 353.043076213 30 l 1
 109.348632812 30 l 1
 172.348632812 316 l 1
 36 316 l 1
 86.3583984375 555 l 1
 226.173828125 555 l 1
 316.276587063 977 l 1
670.949679081 555 m 1
 756.725513367 977 l 1
 552.67254142 977 l 1
 463.680042246 555 l 1
 670.949679081 555 l 1
EndSplineSet
EndChar

StartChar: dollar
Encoding: 36 36 7
Width: 1178
GlyphClass: 2
Flags: HW
LayerCount: 2
Fore
SplineSet
257.986328125 165.725585938 m 1
 208.50390625 96 l 1
 59 96 l 1
 59 515 l 1
 250.102539062 515 l 1
 262.016601562 457.432617188 292.353515625 407.239257812 337.646862575 358.041015625 c 0
 389.59960577 301.345703125 442.980784878 268 498.510286251 268 c 0
 526.668990493 268 l 1
 526.668990493 608.729492188 l 1
 506.13239005 614.880859375 l 0
 466.346859897 626.793945312 432.395054454 637.685546875 404.396010046 647.497070312 c 0
 376.738958892 657.188476562 346.499953143 669.484375 313.223631613 684.625 c 0
 279.341796875 699.473632812 249.596679688 714.6640625 226.256835938 729.712890625 c 0
 202.565429688 744.98828125 178.557617188 763.74609375 154.323242188 786.06640625 c 0
 131.055664062 807.498046875 113.018554688 830.139648438 99.724609375 854.069335938 c 0
 86.2197265625 878.377929688 74.873046875 907.642578125 66.056640625 941.96484375 c 0
 57.4296875 975.551757812 53 1012.515625 53 1053 c 0
 53 1184.17480469 95.515625 1283.66015625 180.272460938 1357.93847656 c 0
 266.16015625 1433.20605469 372.447982758 1475.32128906 505.508866437 1483.04394531 c 0
 532.134269432 1484.59082031 l 1
 532.134269432 1674 l 1
 682.557451526 1674 l 1
 682.557451526 1472.84960938 l 1
 701.251823114 1465.74414062 l 0
 731.292434987 1454.328125 774.495063484 1434.61425781 829.875297083 1406.85546875 c 0
 848.075573444 1397.73242188 l 1
 892.966796875 1447 l 1
 1029 1447 l 1
 1029 1063.22265625 l 1
 931.504882812 1060 l 1
 929.732421875 1060 921.778320312 1059.64941406 905.421875 1058.97265625 c 0
 890.251277446 1058.31640625 880.481796114 1058 877.387796369 1058 c 0
 875.595638349 1058 864.57155193 1058.54101562 859.133670242 1058.90039062 c 1
 841.58337001 1126.77832031 807.064724919 1183.77734375 757.231962007 1235.03222656 c 1
 747.1544978 1246.40039062 735.310383357 1255 718.914546542 1255 c 0
 710.996741394 1255 680.736006791 1250.81933594 680.736006791 1219 c 0
 680.736006791 968.16796875 l 1
 701.386919896 962.0859375 l 0
 750.361865474 947.657226562 793.88381364 932.30859375 831.871517376 916.140625 c 0
 869.250813224 900.234375 907.362304688 879.6015625 948.063476562 854.08203125 c 0
 987.9140625 829.096679688 1020.703125 801.474609375 1046.8359375 771.344726562 c 0
 1072.61816406 741.618164062 1094.09375 705.248046875 1111.03613281 661.63671875 c 0
 1127.62597656 618.93359375 1136.74609375 570.99609375 1138.00878906 517.291015625 c 0
 1139.8828125 437.931640625 1121.07910156 365.040039062 1081.09863281 296.637695312 c 0
 1040.921875 227.897460938 986.740234375 173.635742188 916.623046875 132.258789062 c 1
 851.053371061 90.900390625 782.683062197 68.744140625 707.568306257 64.966796875 c 0
 680.736006791 63.6181640625 l 1
 680.736006791 -136 l 1
 526.668990493 -136 l 1
 526.668990493 72.412109375 l 1
 504.23725616 77.373046875 l 0
 421.671393048 95.634765625 347.912328599 121.490234375 280.771484375 155.146484375 c 1
 257.986328125 165.725585938 l 1
680.736006791 277 m 1
 708.896600498 277 l 2
 739.496494157 277 767.454915057 290.772460938 790.667943371 314.235351562 c 0
 814.228633335 338.052734375 827.198869212 367.434570312 828.117149442 397.211914062 c 1
 831.402929934 434.451171875 823.428440821 465.427734375 805.66840992 495.848632812 c 0
 785.607010048 530.209960938 752.704802686 550.33984375 713.07326397 556.66796875 c 0
 680.736006791 561.833007812 l 1
 680.736006791 277 l 1
530.312824696 1298.59667969 m 1
 503.502254084 1299.96582031 l 2
 470.473452534 1301.65234375 439.427645018 1290.34960938 413.086606581 1267.94433594 c 0
 386.533948008 1245.36230469 370.166453175 1215.12597656 370.166453175 1180 c 0
 370.166453175 1143.29492188 382.760685418 1109.75097656 406.353496296 1082.61425781 c 0
 429.712013453 1055.74414062 460.389375198 1038.15722656 496.039810119 1029.71582031 c 0
 530.312824696 1021.59960938 l 1
 530.312824696 1298.59667969 l 1
EndSplineSet
EndChar

StartChar: percent
Encoding: 37 37 8
Width: 2577
GlyphClass: 2
Flags: HW
LayerCount: 2
Fore
SplineSet
2283.43374521 56.603515625 m 0
 2227.76223181 27.017578125 2164.78091343 12 2093.08197578 12 c 0
 1939.63021791 12 1825.2704462 58 1743.67813229 147.879882812 c 0
 1661.60043185 238.295898438 1619.42691812 361.004882812 1619.42691812 521 c 0
 1619.42691812 622.641601562 1637.78458444 714.21484375 1674.14119515 796.701171875 c 0
 1710.32569671 878.795898438 1762.66912165 943.627929688 1832.11807039 992.868164062 c 0
 1900.90758963 1041.64160156 1979.25980348 1066 2069.77375371 1066 c 0
 2221.08768369 1066 2332.96582031 1019.40527344 2412.38574219 928.2890625 c 0
 2492.73144531 836.107421875 2534 713.159179688 2534 555 c 0
 2534 482.319335938 2524.37011719 413.94140625 2505.2421875 349.54296875 c 0
 2486.09472656 285.080078125 2458.5078125 227.482421875 2422.46679688 176.264648438 c 0
 2387.28808594 126.276367188 2341.40820312 86.67578125 2283.43374521 56.603515625 c 0
2078.17132729 784.885742188 m 0
 2076.09924897 785.071289062 l 1
 2074.01170017 784.956054688 l 0
 2025.39762943 782.274414062 1989.47999378 751.953125 1970.49770656 703.90234375 c 1
 1957.23079728 668.045898438 1952.94934008 615.45703125 1952.94934008 540 c 0
 1952.94934008 405.310546875 1981.17524312 302 2072.68703974 302 c 0
 2090.52741166 302 2107.67354548 305.385742188 2123.18754295 312.903320312 c 0
 2138.73054759 320.43359375 2151.87079226 331.853515625 2161.3329287 346.46875 c 0
 2168.80517379 358.006835938 2175.17804742 370.166992188 2180.41674099 382.87890625 c 0
 2186.34870574 397.276367188 2189.92238818 413.290039062 2191.77014444 430.787109375 c 0
 2193.42742033 446.48046875 2194.60414422 460.265625 2195.28871326 472.251953125 c 0
 2195.97908373 484.334960938 2196.30976539 497.883789062 2196.30976539 513 c 0
 2196.30976539 539.428710938 l 1
 2196.92471723 555.87890625 2197.13163499 570.959960938 2196.77871451 581.524414062 c 0
 2196.43256237 591.838867188 2195.60585824 606.528320312 2194.29860211 626.043945312 c 0
 2192.88982091 647.08984375 2189.91948746 665.412109375 2184.47774375 681.358398438 c 0
 2179.84046536 694.953125 2174.05353641 708.99609375 2167.15756696 723.55078125 c 0
 2158.71744954 741.369140625 2146.48609597 756.490234375 2130.53795796 767.115234375 c 0
 2115.02879502 777.447265625 2097.14684617 783.186523438 2078.17132729 784.885742188 c 0
1229.34729739 1593 m 1
 1658.70551702 1593 l 1
 1338.83966722 30 l 1
 910.416445133 30 l 1
 1229.34729739 1593 l 1
711.088892682 613.603515625 m 0
 655.416412376 584.017578125 592.435093997 569 520.73712325 569 c 0
 367.297935154 569 252.037109375 614.990234375 167.916992188 704.984375 c 0
 83.3876953125 795.418945312 40 918.06640625 40 1078 c 0
 40 1179.60546875 58.892578125 1271.13769531 96.3193359375 1353.6015625 c 0
 133.58203125 1435.70898438 187.373046875 1500.45996094 259.095703125 1549.84765625 c 0
 328.555968763 1598.64746094 406.916884762 1623 497.427934277 1623 c 0
 648.752500218 1623 759.400322021 1576.40527344 836.439478311 1485.39648438 c 0
 914.461977413 1393.2265625 954.57308188 1270.21582031 954.57308188 1112 c 0
 954.57308188 1039.29394531 945.217305031 970.887695312 926.633382847 906.466796875 c 0
 908.031089461 841.983398438 881.231371919 784.372070312 846.228428789 733.153320312 c 0
 812.084097672 683.194335938 767.460445607 643.561523438 711.088892682 613.603515625 c 0
505.82840857 1341.88574219 m 0
 504.027063772 1342.046875 l 1
 502.214116108 1341.98144531 l 0
 452.641842101 1340.19042969 416.167268921 1309.29199219 398.037792285 1260.59082031 c 0
 385.016476986 1225.3984375 380.603520647 1172.29492188 380.603520647 1097 c 0
 380.603520647 962.310546875 408.830390589 859 500.342187214 859 c 0
 518.182559129 859 535.328692952 862.385742188 550.84172352 869.903320312 c 0
 566.386661966 877.43359375 579.524972821 888.853515625 588.989043078 903.46875 c 0
 596.460321262 915.005859375 602.834161795 927.16796875 608.070921553 939.87890625 c 0
 614.002886308 954.275390625 617.577535648 970.290039062 619.425291906 987.787109375 c 0
 621.082567797 1003.48046875 622.258324789 1017.26660156 622.942893827 1029.25292969 c 0
 623.614893094 1040.984375 623.964912856 1055.61230469 623.964912856 1069.42871094 c 1
 624.935685898 1095.42871094 l 1
 624.935685898 1114.93945312 624.78968318 1127.88769531 624.43289508 1138.5234375 c 0
 624.087709844 1148.83984375 623.26100571 1163.52636719 621.954716487 1183.04394531 c 0
 620.544001478 1204.09082031 617.574634931 1222.41210938 612.13385813 1238.35839844 c 0
 607.495612827 1251.953125 601.708683885 1265.99511719 594.812714426 1280.55175781 c 0
 586.371630104 1298.37011719 574.141243439 1313.48925781 558.193105432 1324.11523438 c 0
 542.685876297 1334.44628906 524.799092922 1340.18652344 505.82840857 1341.88574219 c 0
EndSplineSet
EndChar

StartChar: ampersand
Encoding: 38 38 9
Width: 1603
GlyphClass: 2
Flags: HW
LayerCount: 2
Fore
SplineSet
1335.26464844 338 m 1
 1547.99414062 338 l 1
 1547.99414062 30 l 1
 1066.15614752 30 l 1
 1033.47141396 65.1376953125 983.125106472 121.66015625 911.83141766 203.173828125 c 0
 890.23568553 227.86328125 l 1
 868.881289298 202.94921875 l 0
 757.303659185 72.7705078125 620.037163501 6.80859375 454.574590415 3.0029296875 c 1
 338.680686923 4.267578125 241.848632812 38.623046875 162.779296875 104.98046875 c 0
 85.046875 170.212890625 44.501953125 260.586914062 42 380.022460938 c 1
 43.8798828125 476.551757812 69.291015625 556.65625 116.549804688 620.073242188 c 0
 164.262695312 684.100585938 237.243164062 738.248046875 334.947641964 781.515625 c 0
 371.534930225 798.143554688 l 1
 344.847202187 829.057617188 l 0
 275.625 908.546875 238.870117188 1001.82519531 236.994140625 1111.2578125 c 1
 236.994140625 1170.734375 248.922851562 1223.97460938 272.405273438 1271.24023438 c 0
 295.692251275 1319.19824219 325.706967049 1357.79785156 363.697259638 1388.24902344 c 0
 402.364633495 1419.24316406 447.329725069 1443.125 499.218858474 1459.84765625 c 0
 551.097457375 1476.56640625 606.409346728 1485 665.508868923 1485 c 0
 711.092623155 1485 755.986846251 1477.82617188 800.558330467 1463.36425781 c 0
 845.111618722 1448.90917969 885.112086111 1428.48339844 920.99356264 1402.03417969 c 0
 955.795731403 1376.38085938 983.757176681 1343.44824219 1005.45059239 1302.13476562 c 0
 1026.75901988 1261.55078125 1037.36822256 1217.7109375 1037.36822256 1169 c 0
 1037.36822256 1129.6328125 1034.88016438 1096.76953125 1030.28712086 1070.95214844 c 0
 1025.86741781 1046.10546875 1017.38714251 1022.75 1004.56090569 1000.32617188 c 0
 991.009703484 976.641601562 976.49698842 956.458007812 961.156835992 939.625 c 0
 945.059156995 921.9609375 920.224543886 897.28515625 887.160568197 866.262695312 c 0
 864.562142872 845.060546875 l 1
 1074.75517541 627.638671875 l 1
 1120.80819389 670.950195312 l 1
 1138.62299695 688.349609375 1155.64292384 707.25 1173.41271584 729.18359375 c 0
 1190.77740831 750.618164062 1205.71341887 771.260742188 1205.71341887 796 c 0
 1205.71341887 827.453125 1189.28055113 861 1151.31228523 861 c 0
 1135.77293492 861 l 1
 1135.77293492 1096 l 1
 1547.99414062 1096 l 1
 1547.99414062 858.12890625 l 1
 1507.89550781 843.15625 1478.08105469 828.477539062 1453.52441406 810.889648438 c 0
 1426.01269531 791.185546875 1391.92578125 759.7109375 1348.32519531 714.747070312 c 1
 1155.99726623 506.819335938 l 1
 1190.89711857 492.051757812 l 1
 1204.31232991 478.706054688 1249.51396897 430.122070312 1326.37011719 347.205078125 c 1
 1335.26464844 338 l 1
474.234846952 590.932617188 m 0
 467.52149519 583.435546875 461.173978003 575.153320312 455.131961418 566.129882812 c 0
 448.206004222 555.78515625 442.498218701 544.129882812 437.728003989 531.321289062 c 0
 432.420529601 517.061523438 429.641336047 502.130859375 429.641336047 487 c 0
 429.641336047 436.149414062 446.393111941 391.211914062 479.731942403 356.739257812 c 0
 512.928078227 322.413085938 555.780523012 305 604.075475367 305 c 0
 649.745420991 305 692.362275971 321.047851562 729.635264641 351.384765625 c 0
 754.639387488 371.732421875 l 1
 519.673991182 628.743164062 l 1
 492.946998176 608.544921875 l 1
 486.924135233 604.296875 480.513411025 597.943359375 474.234846952 590.932617188 c 0
824.317466539 1255.89746094 m 0
 801.667326378 1287.54882812 767.162039077 1303 727.88941011 1303 c 0
 695.257349063 1303 665.986752308 1289.01660156 643.730219505 1263.75390625 c 0
 621.892193795 1238.96777344 610.163460695 1208.37207031 610.163460695 1175 c 0
 610.163460695 1148.94628906 617.70808055 1123.61816406 631.28130944 1100.08203125 c 0
 643.578905728 1078.7578125 656.621578716 1060.79394531 670.9724455 1046.41113281 c 0
 683.947123056 1033.40722656 700.616538287 1018.578125 721.24405378 1001.52734375 c 0
 738.125116762 987.571289062 l 1
 755.800098234 1000.42675781 l 0
 787.276236945 1023.32324219 811.223078715 1044.4453125 827.779487454 1065.54589844 c 0
 846.493554042 1089.39550781 855.065766827 1119.359375 855.065766827 1152 c 0
 855.065766827 1191.14453125 845.193021704 1226.7265625 824.317466539 1255.89746094 c 0
EndSplineSet
EndChar

StartChar: quotesingle
Encoding: 39 39 10
Width: 514
GlyphClass: 2
Flags: HW
LayerCount: 2
Fore
SplineSet
460.515625 1594 m 1
 369.3515625 975 l 1
 121.930664062 975 l 1
 49 1594 l 1
 460.515625 1594 l 1
EndSplineSet
EndChar

StartChar: parenleft
Encoding: 40 40 11
Width: 837
GlyphClass: 2
Flags: HW
LayerCount: 2
Fore
SplineSet
236.307617188 1417.89941406 m 1
 298.947579881 1485.99316406 367.880071713 1536.85644531 454.511654339 1571.13476562 c 0
 534.365111908 1602.73339844 654.408203125 1620.53125 788 1622.7578125 c 1
 788 1349.55078125 l 1
 743.842773438 1346.28710938 707.124023438 1339.12890625 671.299804688 1326.88867188 c 0
 627.627929688 1311.96679688 590.8671875 1290.17871094 561.510742188 1260.43359375 c 1
 535.81750268 1232.48925781 517.284598503 1202.8046875 502.27143585 1170.73730469 c 0
 486.886584151 1137.87207031 475.797408773 1099.94238281 468.587907378 1057.22851562 c 0
 461.622581268 1015.96289062 456.846693552 977.212890625 454.304557523 940.9140625 c 0
 451.783221611 904.91015625 450.544258124 864.642578125 450.544258124 820 c 0
 450.544258124 766.973632812 452.901001807 717.46875 457.671463405 671.44140625 c 0
 462.513368884 624.734375 471.611159155 577.662109375 484.89067728 530.280273438 c 0
 498.412561985 482.03515625 516.259062304 440.290039062 539.078599273 405.005859375 c 0
 539.197973857 404.821289062 l 1
 539.325487617 404.642578125 l 0
 567.032226562 368.244140625 604.973632812 339.396484375 651.094726562 317.41796875 c 0
 690.370117188 298.701171875 735.654296875 288.2109375 782 284.989257812 c 1
 782 13.361328125 l 1
 677.177734375 15.9541015625 589.999023438 30.0654296875 514.72256671 56.4599609375 c 1
 439.762562736 85.4345703125 377.118941038 124.629882812 325.833087532 174.090820312 c 1
 270.244140625 224.37109375 216.668945312 283.418945312 172.73046875 351.727539062 c 0
 128.743164062 420.120117188 96.7470703125 493.086914062 76.5390625 571.029296875 c 0
 56.212890625 649.430664062 46 732.015625 46 819 c 0
 46 954.700195312 61.78515625 1071.5390625 92.6171875 1169.49414062 c 0
 123.405273438 1267.3125 171.075195312 1349.484375 236.307617188 1417.89941406 c 1
EndSplineSet
EndChar

StartChar: parenright
Encoding: 41 41 12
Width: 843
GlyphClass: 2
Flags: HW
LayerCount: 2
Fore
SplineSet
278.489257812 1260.43359375 m 1
 249.133789062 1290.17773438 212.372070312 1311.96777344 168.700195312 1326.88867188 c 0
 133.688476562 1338.85058594 91.875 1346.41699219 52 1349.52539062 c 1
 52 1622.76171875 l 1
 191.831054688 1620.47460938 304.627438951 1603.13183594 385.488345661 1571.13476562 c 0
 472.147963227 1536.84472656 541.002680709 1486.05371094 603.7421875 1417.84667969 c 1
 668.864257812 1349.54492188 716.60546875 1267.27832031 747.3828125 1169.49414062 c 0
 778.21484375 1071.5390625 794 954.700195312 794 819 c 0
 794 732.015625 783.787109375 649.430664062 763.4609375 571.029296875 c 0
 743.252929688 493.086914062 711.256835938 420.119140625 667.26953125 351.728515625 c 0
 623.30859375 283.3828125 569.825195312 224.427734375 514.119886117 174.044921875 c 1
 462.95792896 124.705078125 400.150619385 85.400390625 325.322650935 56.4765625 c 1
 251.0546875 30.416015625 156.765625 15.8623046875 58 13.3681640625 c 1
 58 284.962890625 l 1
 108.307617188 288.233398438 149.280273438 298.534179688 188.905273438 317.41796875 c 0
 235.026367188 339.396484375 272.96875 368.244140625 300.674512383 404.642578125 c 0
 300.802026143 404.821289062 l 1
 300.921400727 405.005859375 l 0
 323.740937696 440.290039062 341.587438015 482.034179688 355.10932272 530.280273438 c 0
 368.388840845 577.661132812 377.486631116 624.734375 382.328536595 671.44140625 c 0
 387.098998193 717.46875 389.455741876 766.974609375 389.455741876 820 c 0
 389.455741876 864.642578125 388.216778389 904.911132812 385.695442477 940.9140625 c 0
 383.153306448 977.2109375 378.377418732 1015.96289062 371.412092622 1057.22851562 c 0
 364.202591227 1099.9453125 353.113415849 1137.87109375 337.727659797 1170.73730469 c 0
 322.721731967 1202.7890625 304.168932026 1232.50585938 278.489257812 1260.43359375 c 1
EndSplineSet
EndChar

StartChar: asterisk
Encoding: 42 42 13
Width: 1195
GlyphClass: 2
Flags: HW
LayerCount: 2
Fore
SplineSet
124.506835938 1120.04296875 m 0
 96.6650390625 1138.40722656 77.7099609375 1159.18359375 65.6962890625 1182.6640625 c 0
 53.0615234375 1207.35839844 48.5859375 1229.43457031 50.3798828125 1250.44824219 c 0
 52.3017578125 1272.96191406 59.1796875 1292.47753906 72.0732421875 1311.53808594 c 1
 91.8837890625 1342.67089844 116.421875 1359.42675781 151.505859375 1366.609375 c 0
 184.372070312 1373.33789062 223.961914062 1364.88183594 269.778320312 1338.64257812 c 1
 290.872070312 1323.69824219 309.400390625 1306.84472656 332.76171875 1282.19433594 c 0
 356.786132812 1256.84570312 375.577148438 1235.89257812 388.868164062 1219.73535156 c 0
 402.37890625 1203.31542969 424.038085938 1175.6015625 453.413085938 1137.08984375 c 0
 482.900390625 1098.43164062 500.697265625 1075.08398438 506.74609375 1067.12792969 c 0
 597.54296875 947.688476562 l 1
 555.638671875 1094.70996094 l 0
 552.749023438 1104.85253906 544.80078125 1134.15820312 532.0546875 1181.72949219 c 0
 519.3203125 1229.26074219 510.233398438 1264.31152344 504.883789062 1286.46875 c 0
 499.676757812 1308.03417969 493.995117188 1336.78808594 487.994140625 1372.31054688 c 0
 482.129882812 1407.03027344 479.317382812 1436.7578125 479.317382812 1461 c 0
 479.317382812 1511.58203125 491.998046875 1546.73242188 515.140625 1572.1015625 c 0
 539.771484375 1599.10449219 565.99609375 1611 597.989257812 1611 c 0
 629.997070312 1611 656.208984375 1599.10058594 680.836914062 1572.1015625 c 0
 703.981445312 1546.73046875 716.66015625 1511.58300781 716.66015625 1461 c 0
 716.66015625 1441.18457031 715.243164062 1419.46484375 712.338867188 1395.90332031 c 0
 709.4609375 1372.54882812 704.80078125 1346.76269531 698.317382812 1318.65527344 c 0
 691.671875 1289.84472656 685.796875 1265.57910156 680.727539062 1245.95996094 c 0
 675.625 1226.21679688 668.356445312 1199.15722656 658.956054688 1164.91699219 c 0
 649.547851562 1130.64550781 643.013671875 1107.1640625 639.451171875 1094.79785156 c 0
 599.795898438 957.126953125 l 1
 687.813476562 1066.48144531 l 0
 697.311523438 1078.28417969 715.533203125 1101.76464844 742.970703125 1137.5234375 c 0
 770.262695312 1173.09667969 791.470703125 1200.32714844 806.44921875 1219.04785156 c 0
 820.862304688 1237.06054688 839.946289062 1258.50097656 863.533203125 1283.05078125 c 0
 886.220703125 1306.66210938 909.150390625 1326.58398438 926.197265625 1338.64257812 c 1
 976.395507812 1367.40625 1011.30175781 1373.40039062 1044.47167969 1366.609375 c 0
 1079.53222656 1359.43164062 1104.13964844 1342.59863281 1123.90429688 1311.54003906 c 1
 1137.03125 1292.1328125 1143.65820312 1273.17285156 1145.59765625 1250.44824219 c 0
 1147.39257812 1229.41992188 1142.91894531 1207.36425781 1130.28125 1182.6640625 c 0
 1118.23339844 1159.11425781 1099.45996094 1138.50390625 1071.34863281 1119.9609375 c 0
 1041.70996094 1100.20410156 1004.8671875 1081.75683594 960.84375 1065.04882812 c 0
 915.942382812 1048.00585938 865.981445312 1030.20800781 808.71875 1011.70507812 c 0
 750.740234375 992.971679688 713.109375 980.356445312 694.361328125 973.268554688 c 0
 621.561523438 945.747070312 l 1
 693.908203125 916.908203125 l 0
 715.3828125 908.346679688 753.618164062 895.364257812 810.159179688 877.270507812 c 0
 865.8359375 859.455078125 915.043945312 841.849609375 960.232421875 824.495117188 c 0
 1004.5703125 807.465820312 1042.27148438 788.815429688 1071.47070312 769.95703125 c 0
 1099.31152344 751.592773438 1118.26757812 730.81640625 1130.28125 707.3359375 c 0
 1142.91601562 682.640625 1147.39160156 660.565429688 1145.59765625 639.551757812 c 0
 1143.66503906 616.915039062 1136.95800781 597.7578125 1123.90429688 578.461914062 c 1
 1104.09472656 547.329101562 1079.55566406 530.573242188 1044.47167969 523.390625 c 0
 1011.60644531 516.662109375 972.016601562 525.1171875 926.198242188 551.357421875 c 1
 904.978515625 566.383789062 886.478515625 583.080078125 863.083984375 607.443359375 c 0
 839.137695312 632.380859375 820.294921875 653.401367188 806.807617188 670.07421875 c 0
 792.834960938 687.348632812 771.318359375 714.915039062 742.517578125 752.471679688 c 0
 713.600585938 790.178710938 695.546875 813.631835938 688.072265625 823.19140625 c 0
 599.96484375 935.875976562 l 1
 639.392578125 795.408203125 l 0
 641.774414062 786.92578125 649.8515625 757.688476562 663.525390625 708.055664062 c 0
 677.162109375 658.553710938 686.553710938 623.149414062 691.556640625 602.505859375 c 0
 696.431640625 582.384765625 701.971679688 554.1015625 707.974609375 518.236328125 c 0
 713.846679688 483.162109375 716.66015625 453.2421875 716.66015625 429 c 0
 716.66015625 378.41796875 703.98046875 343.268554688 680.836914062 317.8984375 c 0
 656.206054688 290.895507812 629.981445312 279 597.989257812 279 c 0
 565.98046875 279 539.767578125 290.899414062 515.140625 317.8984375 c 0
 491.99609375 343.26953125 479.317382812 378.416992188 479.317382812 429 c 0
 479.317382812 453.240234375 482.126953125 482.775390625 487.986328125 517.140625 c 0
 493.99609375 552.389648438 499.686523438 581.546875 504.953125 604.327148438 c 0
 510.252929688 627.240234375 519.155273438 661.684570312 531.560546875 707.125976562 c 0
 544.025390625 752.791015625 552.083984375 782.29296875 555.728515625 795.606445312 c 0
 594.944335938 938.909179688 l 1
 506.743164062 822.868164062 l 0
 503.729492188 818.901367188 486.078125 795.71484375 453.853515625 753.389648438 c 0
 421.71484375 711.176757812 399.522460938 682.530273438 387.82421875 668.1015625 c 0
 376.59375 654.251953125 358.399414062 634.087890625 333.79296875 608.428710938 c 0
 310.162109375 583.787109375 286.751953125 563.366210938 269.778320312 551.356445312 c 1
 219.584960938 522.595703125 184.67578125 516.599609375 151.505859375 523.390625 c 0
 116.4453125 530.568359375 91.837890625 547.400390625 72.0732421875 578.461914062 c 1
 58.9462890625 597.866210938 52.3193359375 616.827148438 50.3798828125 639.551757812 c 0
 48.5849609375 660.580078125 53.0595703125 682.637695312 65.6953125 707.3359375 c 0
 77.642578125 730.684570312 96.9521484375 751.784179688 124.264648438 769.798828125 c 0
 154.034179688 789.024414062 191.227539062 807.396484375 235.745117188 824.495117188 c 0
 280.994140625 841.873046875 330.243164062 859.659179688 385.955078125 877.815429688 c 0
 442.399414062 896.209960938 480.270507812 909.03125 500.676757812 916.720703125 c 0
 575.599609375 944.953125 l 1
 500.703125 973.268554688 l 0
 481.956054688 980.35546875 444.325195312 992.971679688 386.346679688 1011.70507812 c 0
 329.094726562 1030.20410156 279.233398438 1047.99609375 234.702148438 1065.02246094 c 0
 190.913085938 1081.76464844 154.470703125 1100.06640625 124.506835938 1120.04296875 c 0
EndSplineSet
EndChar

StartChar: plus
Encoding: 43 43 14
Width: 784
GlyphClass: 2
Flags: HW
LayerCount: 2
Fore
SplineSet
322.873634527 268 m 1
 322.873634527 547 l 1
 57 547 l 1
 57 732 l 1
 322.873634527 732 l 1
 322.873634527 1021 l 1
 468.492636423 1021 l 1
 468.492636423 732 l 1
 729 732 l 1
 729 547 l 1
 468.492636423 547 l 1
 468.492636423 268 l 1
 322.873634527 268 l 1
EndSplineSet
EndChar

StartChar: comma
Encoding: 44 44 15
Width: 604
GlyphClass: 2
Flags: HW
LayerCount: 2
Fore
SplineSet
542 89 m 0
 542 -92.18359375 499.498046875 -218.87890625 420.827148438 -297.245117188 c 0
 346.349609375 -371.4375 228.885742188 -412.76953125 68 -417.568359375 c 1
 68 -252.2578125 l 1
 89.6640625 -251.130859375 104.720703125 -249.297851562 121.797851562 -245.934570312 c 0
 146.99609375 -240.971679688 169.325195312 -232.241210938 187.59375 -218.4296875 c 0
 202.94921875 -206.819335938 215.879882812 -194.494140625 226 -181 c 0
 238.013671875 -164.981445312 244.85546875 -145.059570312 249.0078125 -122.411132812 c 0
 252.85546875 -101.422851562 255.221679688 -82.662109375 255.970703125 -65.8330078125 c 0
 256.672851562 -50.0361328125 257 -28.251953125 257 0 c 0
 257 30 l 1
 68 30 l 1
 68 336 l 1
 522.176757812 336 l 1
 535.671875 242.905273438 542 162.772460938 542 89 c 0
EndSplineSet
EndChar

StartChar: hyphen
Encoding: 45 45 16
Width: 723
GlyphClass: 2
Flags: HW
LayerCount: 2
Fore
SplineSet
655 567 m 1
 68 567 l 1
 68 806 l 1
 655 806 l 1
 655 567 l 1
EndSplineSet
EndChar

StartChar: period
Encoding: 46 46 17
Width: 625
GlyphClass: 2
Flags: HW
LayerCount: 2
Fore
SplineSet
496.907226562 378.858398438 m 0
 543.247070312 340.627929688 566 290.96484375 566 223 c 0
 566 153.828125 542.524414062 103.008789062 494.50390625 63.7177734375 c 0
 445.3359375 23.4912109375 384.784179688 3 309 3 c 0
 235.364257812 3 177.25 23.3525390625 130.48828125 63.3076171875 c 0
 84.70703125 102.424804688 62 153.428710938 62 223 c 0
 62 291.2578125 84.2138671875 341.061523438 128.950195312 379.16015625 c 0
 174.434570312 417.89453125 233.03515625 438 309 438 c 0
 388.543945312 438 449.842773438 417.688476562 496.907226562 378.858398438 c 0
EndSplineSet
EndChar

StartChar: slash
Encoding: 47 47 18
Width: 803
GlyphClass: 2
Flags: HW
LayerCount: 2
Fore
SplineSet
748.708984375 1603 m 1
 312.389538486 20 l 1
 34 20 l 1
 461.805076151 1603 l 1
 748.708984375 1603 l 1
EndSplineSet
EndChar

StartChar: zero
Encoding: 48 48 19
Width: 1209
GlyphClass: 2
Flags: HW
LayerCount: 2
Fore
SplineSet
605.869523541 4 m 1
 485.675634601 3.3544921875 387.051417213 32.6953125 306.63231674 90.9072265625 c 1
 219.217773438 149.80078125 154.438476562 228.891601562 112.203125 330.513671875 c 0
 69.71875 432.732421875 48 554.04296875 48 695 c 0
 48 786.608398438 61.9990234375 871.252929688 89.771484375 949.4609375 c 0
 117.626953125 1027.90722656 156.526367188 1095.04199219 206.491210938 1151.64746094 c 0
 256.30078125 1208.07714844 315.382429584 1252.47851562 383.058610531 1285.19433594 c 0
 450.129247336 1317.6171875 524.531699066 1334.36328125 605.912100863 1335 c 1
 686.018967638 1334.36425781 759.814929064 1317.64355469 826.941389469 1285.19433594 c 0
 894.617570416 1252.47851562 953.69921875 1208.07714844 1003.50878906 1151.6484375 c 0
 1053.47460938 1095.04003906 1092.37304688 1027.90820312 1120.22851562 949.459960938 c 0
 1148.00097656 871.25390625 1162 786.609375 1162 695 c 0
 1162 554.04296875 1140.28125 432.732421875 1097.796875 330.513671875 c 0
 1055.54589844 228.854492188 990.872070312 149.860351562 903.291044079 90.8525390625 c 1
 822.795304426 32.5859375 724.985733141 3.35546875 605.869523541 4 c 1
466.477046829 500.203125 m 0
 471.580648546 466.711914062 478.335304212 438.20703125 487.345611804 414.330078125 c 0
 496.851708662 389.146484375 511.392337359 367.1171875 530.434808282 349.098632812 c 0
 551.254172795 329.39453125 577.055084035 319 605 319 c 0
 639.169720507 319 669.767676742 333.139648438 692.358257869 360.013671875 c 0
 713.998891624 385.754882812 727.949114783 419.639648438 735.956489891 459.776367188 c 0
 743.475645035 497.46875 748.408937462 531.890625 750.661750901 563.212890625 c 0
 752.866310041 593.87890625 753.944935543 629.08984375 753.944935543 669 c 0
 753.944935543 697 l 0
 753.944935543 714.819335938 754.095375415 733.151367188 754.397201323 751.98828125 c 0
 754.720788974 772.185546875 753.910873685 792.681640625 751.977863246 813.450195312 c 0
 750.11203036 833.524414062 747.929232963 852.798828125 745.425686403 871.276367188 c 0
 742.682760674 891.52734375 737.838407543 910.916992188 730.84815736 929.26171875 c 0
 723.955361937 947.350585938 715.484367096 963.708984375 705.257294245 978.087890625 c 0
 693.995119376 993.924804688 679.432728937 1006.42578125 662.463300536 1015.05761719 c 0
 644.986728916 1023.94824219 625.521323256 1028 605 1028 c 0
 581.376209182 1028 559.036361176 1022.42773438 539.397807738 1010.59472656 c 0
 520.179350549 999.012695312 504.644304832 982.525390625 493.928065854 962.124023438 c 0
 484.466438644 944.11328125 476.850774903 923.952148438 470.867241855 901.771484375 c 0
 464.77679242 879.202148438 461.093380947 855.645507812 459.761183835 831.237304688 c 0
 458.541580088 808.896484375 457.321030178 786.387695312 456.101426431 763.712890625 c 0
 454.843976174 740.330078125 454.984008257 716.125 456.055064457 696.072265625 c 1
 456.055064457 669 l 0
 456.055064457 638.013671875 456.515845702 610.629882812 457.450654471 586.751953125 c 0
 458.43087905 561.786132812 461.471846035 533.046875 466.477046829 500.203125 c 0
EndSplineSet
EndChar

StartChar: one
Encoding: 49 49 20
Width: 728
GlyphClass: 2
Flags: HW
LayerCount: 2
Fore
SplineSet
589.169921875 294 m 1
 685 294 l 1
 685 30 l 1
 115.909179688 30 l 1
 115.09375 294.663085938 l 1
 205 293.666015625 l 1
 205 981.184570312 l 1
 41 980.184570312 l 1
 41 1184.81640625 l 1
 583.220703125 1336.23535156 l 1
 589.169921875 294 l 1
EndSplineSet
EndChar

StartChar: two
Encoding: 50 50 21
Width: 1150
GlyphClass: 2
Flags: HW
LayerCount: 2
Fore
SplineSet
100.399414062 310.911132812 m 2
 81.23046875 303.34765625 l 1
 81.23046875 -60 l 1
 1224.23046875 -60 l 1
 1224.23046875 492.470703125 l 1
 991.23046875 492.470703125 l 1
 991.23046875 461.640625 l 2
 991.23046875 434.118164062 986.185546875 413.776367188 978.15625 399.241210938 c 0
 970.01953125 384.100585938 959.317382812 373.521484375 943.569335938 365.409179688 c 0
 925.881835938 356.140625 907.885742188 349.750976562 889.322265625 346.086914062 c 0
 870.3515625 342.33984375 846.024414062 339.942382812 818.37109375 339.287109375 c 2
 753.137695312 339.287109375 l 1
 776.883789062 359.591796875 791.25390625 371.98828125 806.12890625 384.96484375 c 0
 832.233398438 407.73828125 868.009765625 442.275390625 914.178710938 489.109375 c 0
 960.760742188 536.361328125 999.282226562 579.215820312 1028.015625 617.918945312 c 0
 1102.03613281 716.885742188 1140.23046875 824.267578125 1140.23046875 937.86328125 c 0
 1140.23046875 1015.42871094 1125.75585938 1086.99316406 1096.40722656 1151.51855469 c 0
 1067.31933594 1215.46582031 1026.70117188 1269.36425781 975.72265625 1311.40917969 c 1
 929.44921875 1352.80078125 875.485351562 1385.3359375 815.1953125 1408.27734375 c 0
 754.817382812 1431.25195312 689.813476562 1444.09472656 620.646484375 1446.9765625 c 0
 568.68359375 1449.234375 516.564453125 1444.14257812 464.4765625 1431.77832031 c 0
 412.224609375 1419.375 361.947265625 1399.265625 314.736328125 1371.96289062 c 0
 265.0546875 1344.64550781 218.770507812 1311.17773438 178.326171875 1271.82226562 c 0
 137.041015625 1231.64746094 104.053710938 1183.03320312 79.9638671875 1127.375 c 0
 55.515625 1072.38769531 43.5244140625 1011.86523438 44.2255859375 950.249023438 c 1
 42.1533203125 877.059570312 54.4169921875 804.887695312 80.826171875 737.984375 c 0
 107.48828125 670.440429688 148.173828125 612.004882812 202.2265625 563.641601562 c 2
 220.96484375 546.87890625 l 1
 478.275390625 756.984375 l 1
 456.32421875 780.905273438 l 2
 452.505859375 785.06640625 447.372070312 790.967773438 441.138671875 798.408203125 c 0
 438.713867188 801.302734375 429.952148438 815.833007812 420.188476562 837.112304688 c 0
 411.247070312 856.59765625 407.4375 873.720703125 407.4375 889 c 0
 407.4375 924.895507812 416.263671875 950.9609375 432.810546875 971.567382812 c 0
 448.186523438 990.715820312 469.174804688 1001 502.98828125 1001 c 0
 525.8828125 1001 545.680664062 990.920898438 566.317382812 963.44140625 c 0
 586.02734375 937.192382812 597.962890625 901.973632812 600.375976562 854.573242188 c 1
 600.375976562 813.913085938 595.629882812 777.333984375 586.447265625 744.571289062 c 0
 577.331054688 712.041992188 562.846679688 681.134765625 542.581054688 651.46484375 c 0
 521.135742188 620.0703125 501.225585938 594.338867188 483.18359375 574.427734375 c 0
 464.704101562 554.034179688 438.227539062 527.494140625 403.431640625 494.635742188 c 0
 327.587890625 422.112304688 226.475585938 360.657226562 100.399414062 310.911132812 c 2
EndSplineSet
EndChar

StartChar: three
Encoding: 51 51 22
Width: 1111
GlyphClass: 2
Flags: HW
LayerCount: 2
Fore
SplineSet
1079.67578125 749.283203125 m 0
 1021.86035156 814.509765625 956.81640625 858.08984375 885.518366806 878.146484375 c 1
 1033.2109375 1009.16796875 1124 1069.07617188 1124 1105.921875 c 2
 1124 1412 l 1
 55 1412 l 1
 55 878.197265625 l 1
 302.150217087 876.869140625 l 1
 307.824707854 900.112304688 l 2
 320.959103359 954.051757812 333.618019918 989.7109375 338.041300152 996.965820312 c 0
 348.812508465 1014.36816406 368.137601959 1026.08203125 406.763162548 1026.08203125 c 2
 543.83370267 1026.08203125 l 1
 264 756.983398438 l 1
 264 575.369140625 l 1
 267.602539062 556.590820312 l 1
 275.635742188 549.61328125 l 2
 288.134765625 538.756835938 303.03960898 537.116210938 314.447315006 537.116210938 c 0
 326.341866008 537.116210938 339.127703242 541.434570312 364.48058162 548.5 c 0
 387.342404963 554.873046875 409.293051521 557.967773438 430.485015538 557.967773438 c 0
 456.106889974 557.967773438 480.345897356 555.368164062 503.298648944 550.250976562 c 0
 525.844117769 545.224609375 547.500194701 537.087890625 568.486622998 525.728515625 c 0
 587.173324442 515.61328125 601.49736448 501.551757812 612.880444107 482.041015625 c 0
 623.696169373 463.501953125 629.440750662 441.553710938 629.440750662 413.65625 c 0
 629.440750662 390.155273438 624.450116068 372.40625 615.173540776 357.513671875 c 0
 605.123128236 341.380859375 592.418747554 329.407226562 575.542086481 320.463867188 c 0
 556.618592734 310.43359375 537.347487885 303.317382812 517.533655076 298.974609375 c 0
 497.235818798 294.526367188 476.162250933 292.279296875 454.206868529 292.279296875 c 0
 347.148332154 292.279296875 233.849609375 339.255859375 116.99609375 437.526367188 c 2
 68 478.728515625 l 1
 68 36.6513671875 l 1
 81.0673828125 27.46875 l 2
 144.15625 -16.873046875 216.220703125 -45.6943359375 295.626953125 -58.82421875 c 0
 367.863870056 -71.701171875 451.870202075 -78 549.096174828 -78 c 0
 735.576744221 -78 886.735479247 -32.37109375 1004.45996094 61.5859375 c 1
 1128.54785156 156.48046875 1191 293.802734375 1191 465.783203125 c 0
 1191 571.002929688 1153.00097656 666.557617188 1079.67578125 749.283203125 c 0
EndSplineSet
EndChar

StartChar: four
Encoding: 52 52 23
Width: 1192
GlyphClass: 2
Flags: HW
LayerCount: 2
Fore
SplineSet
1147 646.733398438 m 1
 1147 450 l 1
 919 450 l 1
 919 258 l 1
 1041 258 l 1
 1041 30 l 1
 441.948497304 30 l 1
 441.948497304 258 l 1
 557.812717833 258 l 1
 557.812717833 450.057617188 l 1
 50 449.057617188 l 1
 50 677.178710938 l 1
 559.265700005 1311.96679688 l 1
 920 1311.0703125 l 1
 920 644.733398438 l 1
 1147 646.733398438 l 1
557.812717833 646.8359375 m 1
 557.812717833 997.590820312 l 1
 299.352051749 648.334960938 l 1
 557.812717833 646.8359375 l 1
EndSplineSet
EndChar

StartChar: five
Encoding: 53 53 24
Width: 983
GlyphClass: 2
Flags: HW
LayerCount: 2
Fore
SplineSet
149.659179688 345.3671875 m 1
 71 384.26171875 l 1
 71 37.4375 l 1
 79.85546875 28.3681640625 l 0
 116.96875 -9.6484375 174.592773438 -34.7939453125 250.506835938 -52.13671875 c 0
 325.116558942 -69.2802734375 389.337995823 -78 450.388548555 -78 c 0
 512.65318278 -78 572.004209212 -71.197265625 628.338341722 -57.48046875 c 0
 685.026463964 -43.6767578125 738.54651895 -21.2919921875 787.787711314 9.212890625 c 1
 840.263671875 39.677734375 888.83203125 77.6455078125 929.473632812 122.587890625 c 0
 970.83984375 168.329101562 1003.0078125 224.212890625 1026.17578125 289.340820312 c 0
 1049.54003906 355.021484375 1061 427.51171875 1061 506.311523438 c 0
 1061 642.24609375 1011.19335938 757.8984375 913.56640625 848.186523438 c 0
 816.575195312 937.885742188 708.474293103 983.263671875 583.722489993 983.263671875 c 0
 549.751682271 983.263671875 516.767726561 981.6640625 484.773439756 978.448242188 c 0
 459.361296242 975.89453125 439.143506036 973.42578125 423.91537481 971.030273438 c 1
 423.91537481 1048.75878906 l 1
 986 1048.75878906 l 1
 986 1420 l 1
 70 1420 l 1
 70 552.801757812 l 1
 110.013671875 516.125976562 l 1
 129.909179688 530.932617188 l 0
 183.149414062 570.553710938 235.852539062 589 290 589 c 0
 326.098716129 589 357.223521523 583.856445312 387.111710268 573.614257812 c 0
 415.168917641 563.999023438 439.411111006 547.23046875 461.011996371 522.090820312 c 0
 480.839177218 499.016601562 490.195022547 472.908203125 490.195022547 438.78515625 c 0
 490.195022547 410.5546875 484.029779629 388.541992188 472.132156571 369.676757812 c 0
 459.350967629 349.41015625 444.166028784 335.484375 425.39048852 326.24609375 c 0
 403.387726218 315.418945312 383.196227026 307.935546875 365.005661837 303.587890625 c 0
 346.139980952 299.078125 329.135328312 296.946289062 313 296.946289062 c 0
 295.233398438 296.946289062 268.588867188 301.848632812 235.044921875 312.784179688 c 0
 200.7421875 323.966796875 171.4140625 335.2421875 149.659179688 345.3671875 c 1
EndSplineSet
EndChar

StartChar: six
Encoding: 54 54 25
Width: 1215
GlyphClass: 2
Flags: HW
LayerCount: 2
Fore
SplineSet
1114 1405 m 1
 572.805145215 1405 l 1
 564.326468938 1392.71484375 l 1
 555.895361536 1383.33886719 539.199637795 1365.27929688 514.264033529 1338.57910156 c 0
 489.262784216 1311.765625 469.186816218 1290.09375 453.992366171 1273.51660156 c 0
 438.572439657 1256.66210938 417.500379417 1232.79785156 390.585909952 1201.73046875 c 0
 363.591524777 1170.54199219 341.022947731 1143.60546875 322.79740897 1120.79492188 c 0
 304.628001482 1098.09570312 282.573242188 1070.05175781 256.107421875 1036.56152344 c 0
 229.265625 1000.40820312 206.822265625 967.186523438 188.741210938 936.670898438 c 0
 171.000976562 908.591796875 152.533203125 877.03125 133.284179688 841.940429688 c 0
 113.677734375 806.198242188 97.8515625 772.100585938 85.8876953125 739.514648438 c 0
 74.0244140625 707.208007812 64.2978515625 673.2265625 56.681640625 637.606445312 c 0
 48.927734375 601.342773438 45 565.55078125 45 530.333007812 c 0
 45 410.609375 74.7470703125 302.677734375 134.415039062 208.827148438 c 0
 193.682617188 115.66015625 273.696289062 44.05859375 366.993650716 -4.875 c 0
 458.710247192 -53.7451171875 560.663665564 -78 671.736988648 -78 c 0
 776.020330517 -78 874.509783413 -51.6015625 965.645088237 0.8125 c 0
 1058.08496094 53.2607421875 1138.29003906 127.297851562 1199.04101562 222.116210938 c 0
 1260.13867188 317.680664062 1291.29882812 424.62109375 1292 540.345703125 c 0
 1293.38964844 691.374023438 1248.37304688 816.837890625 1155.78222656 911.36328125 c 0
 1074.22558594 1000.20019531 971.64066924 1052.58007812 856.378431025 1069.27441406 c 1
 868.9670581 1085.94726562 884.231910082 1104.34472656 905.244984917 1128.26953125 c 0
 949.57156538 1181.86621094 993.389158882 1232.33398438 1035.90907347 1278.796875 c 1
 1076.72070312 1317.33398438 1114 1336.60742188 1114 1364.71875 c 0
 1114 1405 l 1
612.090376308 422.344726562 m 0
 606.43538845 447.772460938 602.645100491 470.169921875 600.650061875 489.279296875 c 0
 598.613162648 508.796875 597.584723571 529.034179688 597.584723571 550 c 0
 597.584723571 575.069335938 597.892969881 595.415039062 598.485678063 610.783203125 c 0
 599.02320635 624.725585938 601.132410267 642.8359375 604.962656081 664.505859375 c 0
 608.594063997 685.053710938 613.623996837 700.251953125 618.454140403 709.336914062 c 0
 623.052147859 717.984375 630.172257066 726.184570312 641.355699575 734.073242188 c 0
 650.263447104 740.356445312 662.513383789 744.500976562 677.728764141 745 c 1
 689.007344399 745 697.646803474 741.541015625 705.763004923 733.782226562 c 0
 716.357544759 723.655273438 723.063804754 713.483398438 727.14426285 702.801757812 c 0
 731.631910516 691.048828125 736.034885585 672.344726562 739.220097453 647.915039062 c 0
 742.53184253 622.526367188 744.261446824 603.80078125 744.513561861 593.711914062 c 0
 744.810391641 581.822265625 744.965466174 565.171875 744.965466174 544 c 0
 744.965466174 398.704101562 710.531308951 357 666.189506448 357 c 0
 652.432587803 357 644.158457689 360.923828125 635.176502714 371.501953125 c 0
 625.096658106 383.373046875 617.120309149 399.723632812 612.090376308 422.344726562 c 0
EndSplineSet
EndChar

StartChar: seven
Encoding: 55 55 26
Width: 1118
GlyphClass: 2
Flags: HW
LayerCount: 2
Fore
SplineSet
49 848 m 1
 325.686324716 848 l 1
 325.686324716 878 l 0
 325.686324716 932.24609375 336.698833989 960.96484375 345.401397671 969.725585938 c 0
 346.51657649 970.848632812 l 1
 347.443207658 972.141601562 l 0
 359.225067144 988.588867188 380.036369405 1000 417.294901165 1000 c 0
 592.606317388 1000 l 1
 116.41796875 -60 l 1
 679.853663503 -60 l 1
 1192 1073.14355469 l 1
 1192 1397 l 1
 49 1397 l 1
 49 848 l 1
EndSplineSet
EndChar

StartChar: eight
Encoding: 56 56 27
Width: 1160
GlyphClass: 2
Flags: HW
LayerCount: 2
Fore
SplineSet
303.659826021 55.5 m 0
 252.451171875 72.7607421875 207.098632812 94.6171875 169.608398438 120.64453125 c 0
 133.369140625 145.80078125 102.983398438 180.004882812 78.2236328125 224.569335938 c 0
 54.259765625 267.704101562 42 317.28515625 42 375 c 0
 42 532.618164062 118.586914062 638.715820312 283.6015625 702.060546875 c 1
 350.436298235 730.140625 l 1
 283.439453125 758.00390625 l 1
 230.859375 778.0625 191.4765625 809.373046875 162.58984375 853.444335938 c 0
 133.6953125 897.532226562 119 948.899414062 119 1010 c 0
 119 1063.1640625 129.995117188 1108.9140625 151.42578125 1148.79980469 c 0
 173.612304688 1190.08984375 200.796875 1221.79296875 233.104492188 1245.20996094 c 0
 266.895507812 1269.69921875 304.534399754 1289.89550781 346.56399553 1305.7109375 c 0
 389.382218808 1321.82421875 429.477552159 1332.62890625 466.759327032 1338.30175781 c 0
 504.706004614 1344.07421875 544.444330545 1347.36523438 582.903852119 1347.99707031 c 1
 620.097791834 1347.36816406 659.277939497 1344.07617188 697.240672968 1338.30175781 c 0
 734.523392305 1332.62890625 774.616836728 1321.82519531 817.43600447 1305.7109375 c 0
 859.464655782 1289.89648438 897.10546875 1269.69921875 930.89453125 1245.20996094 c 0
 963.203125 1221.79199219 990.388671875 1190.08886719 1012.57421875 1148.79980469 c 0
 1034.00585938 1108.91113281 1045 1063.16503906 1045 1010 c 0
 1045 948.900390625 1030.30371094 897.53125 1001.41015625 853.444335938 c 0
 972.504882812 809.34375 933.2265625 778.095703125 880.484375 757.973632812 c 1
 813.563701765 730.140625 l 1
 880.484375 702.026367188 l 1
 1045.33691406 638.744140625 1122 532.606445312 1122 375 c 0
 1122 317.28515625 1109.73925781 267.704101562 1085.77636719 224.569335938 c 0
 1061.01660156 180.004882812 1030.63085938 145.80078125 994.390625 120.64453125 c 0
 956.853515625 94.583984375 911.6796875 72.8037109375 860.224004897 55.458984375 c 0
 811.085428034 38.001953125 764.660296456 26.4951171875 720.992055511 20.7763671875 c 0
 676.395406381 14.9345703125 630.069443531 12 582 12 c 0
 533.930556469 12 487.604593619 14.9345703125 443.007944489 20.7763671875 c 0
 399.277368915 26.50390625 353.045852473 37.9541015625 303.659826021 55.5 c 0
582 210 m 0
 659.554667471 210 682.950931522 298.22265625 682.950931522 406 c 0
 682.950931522 516.557617188 661.251869412 608 583.820926735 608 c 0
 504.867507971 608 481.049068478 517.565429688 481.049068478 406 c 0
 481.049068478 298.203125 504.422665392 210 582 210 c 0
526.622293461 1134.33789062 m 0
 510.06206038 1122.37890625 498.948551616 1104.57910156 493.170320409 1084.171875 c 0
 488.543390908 1067.82714844 485.289712172 1052.20214844 483.539620242 1037.20410156 c 0
 481.821640091 1022.48144531 481.049068478 1005.52929688 481.049068478 986 c 0
 481.049068478 879.541015625 506.543931703 794.64453125 583.807704238 795.993164062 c 1
 660.456630662 794.604492188 682.950931522 881.66796875 682.950931522 986 c 0
 682.950931522 1005.52929688 682.178359909 1022.48144531 680.460379758 1037.20507812 c 0
 678.710287828 1052.20214844 675.457553556 1067.82617188 670.829679591 1084.171875 c 0
 665.05050392 1104.58203125 653.938884084 1122.37792969 637.376762075 1134.33886719 c 0
 621.981997662 1145.453125 603.969178835 1151.10449219 585.029840751 1151.97265625 c 0
 583.917262071 1152.0234375 l 1
 582.783905182 1151.97949219 l 0
 562.168143365 1151.17089844 542.80190752 1146.01953125 526.622293461 1134.33789062 c 0
EndSplineSet
EndChar

StartChar: nine
Encoding: 57 57 28
Width: 1222
GlyphClass: 2
Flags: HW
LayerCount: 2
Fore
SplineSet
290.63671875 52.0283203125 m 2
 184.66015625 -60 l 1
 770.564148735 -60 l 1
 778.527300201 -43.150390625 l 1
 792.444023029 -27.26171875 813.40379128 -3.8564453125 842.800560851 28.62890625 c 0
 872.720658574 61.79296875 898.771933994 90.7119140625 921.005768419 115.443359375 c 0
 943.646847297 140.778320312 970.503096566 172.299804688 1002.33001177 210.869140625 c 1
 1034.19498721 253.984375 1062.7578125 293.594726562 1087.74707031 329.776367188 c 1
 1112.81054688 362.07421875 1139.25585938 399.46875 1166.56542969 441.193359375 c 0
 1194.20898438 483.431640625 1216.9296875 523.526367188 1234.67578125 561.646484375 c 0
 1252.50488281 599.950195312 1267.1015625 641.083984375 1278.52441406 684.973632812 c 0
 1290.09765625 729.447265625 1296 772.77734375 1296 814.840820312 c 0
 1296 930.57421875 1268.01953125 1036.35742188 1212.03613281 1130.21484375 c 0
 1156.21484375 1223.765625 1078.78222656 1297.25488281 986.395145291 1349.52832031 c 0
 896.010664361 1401.93945312 795.038779158 1428 684.837288361 1428 c 0
 504.98462652 1428 354.550618882 1367.31835938 233.921875 1245.92871094 c 1
 108.393554688 1124.31640625 45 968.345703125 45 783.412109375 c 0
 45 643.46484375 94.9873046875 523.423828125 193.073242188 428.579101562 c 1
 276.872070312 335.958007812 373.937548159 282.833984375 483.160891065 268.9140625 c 1
 461.634976904 243.641601562 439.963482366 219.53515625 411.364074597 188.790039062 c 1
 364.520495936 134.49609375 324.405965806 88.9755859375 290.63671875 52.0283203125 c 2
675.58674964 603 m 0
 635.992693146 603 603.251380929 641.52734375 603.251380929 782 c 0
 603.251380929 938.0625 638.195428914 982 677.437428288 982 c 0
 687.02860606 982 693.313301416 979.373046875 702.223201084 967.447265625 c 0
 711.849584569 954.563476562 719.417861156 937.032226562 723.989846196 913.48828125 c 0
 729.097528962 887.173828125 732.651402868 864.174804688 734.682867605 844.719726562 c 0
 736.740974502 824.994140625 737.748619071 806.735351562 737.748619071 790 c 0
 737.748619071 641.276367188 705.461175088 603 675.58674964 603 c 0
EndSplineSet
EndChar

StartChar: colon
Encoding: 58 58 29
Width: 620
GlyphClass: 2
Flags: HW
LayerCount: 2
Fore
SplineSet
492.907226562 1001.85839844 m 0
 539.247070312 963.627929688 562 913.96484375 562 846 c 0
 562 776.828125 538.524414062 726.008789062 490.50390625 686.717773438 c 0
 441.3359375 646.491210938 380.784179688 626 305 626 c 0
 231.364257812 626 173.25 646.352539062 126.48828125 686.307617188 c 0
 80.70703125 725.424804688 58 776.428710938 58 846 c 0
 58 914.2578125 80.2138671875 964.061523438 124.950195312 1002.16015625 c 0
 170.434570312 1040.89453125 229.03515625 1061 305 1061 c 0
 384.543945312 1061 445.842773438 1040.68847656 492.907226562 1001.85839844 c 0
492.907226562 387.858398438 m 0
 539.247070312 349.627929688 562 299.96484375 562 232 c 0
 562 162.828125 538.524414062 112.008789062 490.50390625 72.7177734375 c 0
 441.3359375 32.4912109375 380.784179688 12 305 12 c 0
 231.364257812 12 173.25 32.3525390625 126.48828125 72.3076171875 c 0
 80.70703125 111.424804688 58 162.428710938 58 232 c 0
 58 300.2578125 80.2138671875 350.061523438 124.950195312 388.16015625 c 0
 170.434570312 426.89453125 229.03515625 447 305 447 c 0
 384.543945312 447 445.842773438 426.688476562 492.907226562 387.858398438 c 0
EndSplineSet
EndChar

StartChar: semicolon
Encoding: 59 59 30
Width: 618
GlyphClass: 2
Flags: HW
LayerCount: 2
Fore
SplineSet
89 -223 m 0
 59 -223 l 1
 59 -508 l 1
 89 -508 l 0
 275.900390625 -508 419.650390625 -463.912109375 514.172851562 -369.75390625 c 0
 608.831054688 -275.459960938 653 -130.47265625 653 59 c 0
 653 142.946289062 644.829101562 236.75390625 628.642578125 340.620117188 c 0
 624.6875 366 l 1
 59 366 l 1
 59 -60 l 1
 247.845703125 -60 l 1
 247.67578125 -75.349609375 247.451171875 -83.6728515625 247.029296875 -93.1669921875 c 0
 246.444335938 -106.321289062 244.474609375 -122.594726562 240.9921875 -141.58984375 c 0
 237.850585938 -158.723632812 232.844726562 -169.873046875 229 -175 c 0
 223.143554688 -182.80859375 214.353515625 -191.538085938 202.408203125 -200.5703125 c 0
 193.36328125 -207.407226562 179.973632812 -213.368164062 161.202148438 -217.065429688 c 0
 141.740234375 -220.899414062 117.547851562 -223 89 -223 c 0
543.908203125 1000.85839844 m 0
 590.247070312 962.629882812 613 912.96484375 613 845 c 0
 613 775.829101562 589.524414062 725.009765625 541.502929688 685.71875 c 0
 492.3359375 645.4921875 431.783203125 625 356 625 c 0
 282.364257812 625 224.250976562 645.352539062 177.48828125 685.307617188 c 0
 131.70703125 724.424804688 109 775.428710938 109 845 c 0
 109 913.2578125 131.213867188 963.061523438 175.950195312 1001.16015625 c 0
 221.434570312 1039.89453125 280.034179688 1060 356 1060 c 0
 435.543945312 1060 496.842773438 1039.68847656 543.908203125 1000.85839844 c 0
EndSplineSet
EndChar

StartChar: less
Encoding: 60 60 31
Width: 744
GlyphClass: 2
Flags: HW
LayerCount: 2
Fore
SplineSet
50 932.245117188 m 1
 685 1499.28710938 l 1
 685 1089.73046875 l 1
 347.84375 761 l 1
 685 432.26953125 l 1
 685 22.712890625 l 1
 50 589.754882812 l 1
 50 932.245117188 l 1
EndSplineSet
EndChar

StartChar: equal
Encoding: 61 61 32
Width: 735
GlyphClass: 2
Flags: HW
LayerCount: 2
Fore
SplineSet
663 199 m 1
 76 199 l 1
 76 362 l 1
 663 362 l 1
 663 199 l 1
663 568 m 1
 76 568 l 1
 76 731 l 1
 663 731 l 1
 663 568 l 1
EndSplineSet
EndChar

StartChar: greater
Encoding: 62 62 33
Width: 747
GlyphClass: 2
Flags: HW
LayerCount: 2
Fore
SplineSet
696 589.754882812 m 1
 61 22.712890625 l 1
 61 432.26953125 l 1
 398.15625 761 l 1
 61 1089.73046875 l 1
 61 1499.28710938 l 1
 696 932.245117188 l 1
 696 589.754882812 l 1
EndSplineSet
EndChar

StartChar: question
Encoding: 63 63 34
Width: 1168
GlyphClass: 2
Flags: HW
LayerCount: 2
Fore
SplineSet
590.308112695 747.192382812 m 1
 590.308112695 569 l 1
 330.545069435 569 l 1
 331.330231692 871.951171875 l 1
 563.547401985 990.0390625 692.201576116 1110.42089844 692.201576116 1249 c 0
 692.201576116 1261.78808594 690.935490166 1275.08007812 688.549768507 1288.92089844 c 0
 686.085625106 1303.2109375 682.047377831 1318.71875 676.548407513 1335.75683594 c 0
 669.614224837 1357.24316406 657.09509138 1375.6015625 640.086077003 1389.37890625 c 0
 621.940419791 1404.07714844 599.889737781 1411 576.562576579 1411 c 0
 490.976111222 1411 444.399265719 1344.92578125 432.4536503 1249 c 1
 37 1249 l 1
 52.498046875 1379.79296875 107.983398438 1482.72753906 207.379882812 1568.34277344 c 1
 311.33646693 1660.73046875 433.314399778 1707 583.851074352 1707 c 0
 683.142447694 1707 771.890348563 1687.79785156 851.675494718 1649.58886719 c 1
 936.321289062 1611.29980469 1003.43066406 1559.10742188 1052.01367188 1492.77246094 c 0
 1100.44726562 1426.64355469 1124.21582031 1353.96386719 1124.21582031 1272 c 0
 1124.21582031 1229.53027344 1118.15332031 1189.71582031 1106.140625 1152.13476562 c 0
 1093.82421875 1113.60644531 1078.36816406 1080.22363281 1060.0078125 1051.76367188 c 0
 1041.63769531 1023.29101562 1017.59570312 995.41015625 987.583007812 968.240234375 c 0
 956.823242188 940.395507812 927.176757812 917.149414062 898.067382812 897.95703125 c 1
 870.132004375 878.728515625 838.824722329 859.596679688 802.346329535 840.392578125 c 0
 765.423861818 820.954101562 733.158511747 805.229492188 705.737357694 793.2578125 c 0
 678.030861882 781.159179688 645.774015373 768.146484375 609.056577993 754.2734375 c 0
 590.308112695 747.192382812 l 1
636.676148501 379.142578125 m 0
 678.769726966 341.029296875 699.648807052 291.23828125 699.648807052 223 c 0
 699.648807052 153.552734375 678.112118144 102.610351562 634.486953616 63.4365234375 c 0
 589.821519961 23.3291015625 535.023619347 3 466.31011137 3 c 0
 399.537305289 3 347.070325599 23.1123046875 304.439133026 63.087890625 c 1
 260.947265625 102.294921875 238.215820312 153.401367188 238.215820312 223 c 0
 238.215820312 291.298828125 260.413085938 341.153320312 303.070059488 379.41015625 c 1
 344.465401 418.099609375 397.406690501 438 466.31011137 438 c 0
 538.47512082 438 593.936299297 417.83984375 636.676148501 379.142578125 c 0
EndSplineSet
EndChar

StartChar: at
Encoding: 64 64 35
Width: 1732
GlyphClass: 2
Flags: HW
LayerCount: 2
Fore
SplineSet
1237.20354702 726.595703125 m 0
 1247.4153636 690.404296875 1252.68780542 649.43359375 1252.68780542 602.879882812 c 2
 1253.77819207 368 l 1
 1282.64464304 368 l 0
 1299.69153302 368 1315.59140534 369.662109375 1330.33466154 373.333984375 c 0
 1347.56296267 377.624023438 1364.04738207 386.7890625 1380.58267338 399.26171875 c 0
 1399.23538807 413.328125 1414.14565771 432.23828125 1425.39314965 454.706054688 c 0
 1437.02266085 477.936523438 1445.38183594 507.787109375 1452.12792969 545.073242188 c 0
 1459.0078125 583.110351562 1462.30859375 626.989257812 1462.30859375 677 c 0
 1462.30859375 817.884765625 1412.23364168 934.20703125 1313.68418854 1019.95703125 c 0
 1214.46956115 1106.28417969 1072.17410252 1147 890.778299853 1147 c 0
 705.716839933 1147 558.532878451 1095.60742188 454.726341058 989.3203125 c 0
 351.486113637 883.615234375 300.60364266 741.033203125 300.60364266 567 c 0
 300.60364266 489.401367188 314.129812342 416.459960938 341.361643171 348.948242188 c 0
 368.599233085 281.420898438 408.642147277 221.78125 460.919276539 170.694335938 c 0
 513.958524643 118.860351562 581.716072911 78.869140625 663.115932397 50.1103515625 c 0
 744.975558792 21.1904296875 836.818558084 7 938.33489956 7 c 0
 984.421972884 7 1032.84723449 12.9814453125 1071.63850767 22.1357421875 c 1
 1108.3315544 -147.015625 l 1
 1046.77366055 -161.822265625 994.520527469 -168 938.33489956 -168 c 0
 798.942979341 -168 673.101224989 -148.213867188 560.465051285 -109.063476562 c 0
 447.313439522 -69.7333984375 355.607698409 -16.7236328125 283.400390625 49.94921875 c 1
 207.204101562 117.143554688 149.153320312 194.532226562 108.234375 283.083007812 c 0
 67.4013671875 371.446289062 47 465.73046875 47 567 c 0
 47 673.98828125 66.58203125 773.674804688 105.66796875 866.901367188 c 0
 144.841796875 960.341796875 200.299804688 1041.8046875 273.01953125 1112.59472656 c 1
 342.325329969 1182.69335938 429.187681058 1238.46972656 535.755699445 1279.91992188 c 0
 641.793882063 1321.1640625 759.954937451 1342 890.778299853 1342 c 0
 1012.98415222 1342 1123.88012257 1324.23828125 1223.85014987 1289.09472656 c 0
 1324.28090393 1253.79199219 1406.29602561 1206.07910156 1472.65429688 1146.00097656 c 1
 1541.43652344 1085.53808594 1594.01464844 1015.47070312 1631.27148438 934.908203125 c 0
 1668.4375 854.5390625 1687 768.924804688 1687 677 c 0
 1687 610.078125 1676.66210938 550.692382812 1656.50097656 498.26953125 c 0
 1636.42285156 446.071289062 1605.7734375 400.321289062 1563.77539062 360.189453125 c 0
 1522.8359375 321.071289062 1467.35449219 289.903320312 1398.46079121 267.591796875 c 0
 1331.0343903 245.438476562 1250.5819002 234 1157.09564215 234 c 0
 1033.78692511 234 l 1
 984.85294437 355.8515625 l 1
 954.548641986 311.248046875 l 0
 935.451517944 283.138671875 909.624903721 261.145507812 875.281563441 244.733398438 c 0
 840.043645377 227.893554688 807.045051317 220 775.691635715 220 c 0
 710.203166721 220 655.176074633 250.103515625 606.291046113 317.502929688 c 0
 558.04815551 384.017578125 532.673629416 473.109375 532.673629416 588 c 0
 532.673629416 636.276367188 539.79857673 680.201171875 553.782593626 720.326171875 c 0
 567.735895405 760.3671875 588.67976586 796.5703125 617.101807476 829.532226562 c 0
 644.053362862 860.791992188 681.776325868 886.297851562 731.94563022 905.3359375 c 0
 781.64940858 924.19921875 840.193381573 934 907.89909808 934 c 0
 925.946149057 934 942.030312083 933.672851562 956.074799365 933.029296875 c 0
 968.333010621 932.467773438 988.733607443 929.8203125 1015.59877656 924.951171875 c 0
 1041.60296256 920.236328125 1063.96068824 913.865234375 1082.58460751 906.151367188 c 0
 1100.78139469 898.614257812 1122.04777387 886.4140625 1145.77328212 869.36328125 c 0
 1168.19915697 853.247070312 1186.15022321 834.717773438 1200.2455824 813.506835938 c 0
 1214.03187073 792.760742188 1226.71433454 763.776367188 1237.20354702 726.595703125 c 0
844.230499773 816.693359375 m 0
 829.6456184 798.572265625 820.573140693 775.32421875 814.88508495 748.408203125 c 0
 809.530096258 723.076171875 805.85100114 697.391601562 803.843960209 671.384765625 c 0
 801.860915463 645.657226562 800.900108207 615.924804688 800.900108207 582 c 0
 800.900108207 517.952148438 807.27733439 464.731445312 821.484035884 421.786132812 c 0
 834.777922493 381.604492188 857.743231591 344 899.338219043 344 c 0
 940.643332577 344 976.94860096 358.736328125 1001.07724512 390.4453125 c 0
 1007.28937755 398.609375 l 1
 1007.28937755 671 l 0
 1007.28937755 727.806640625 1002.90383474 770.013671875 987.732486596 799.568359375 c 0
 971.410281413 831.3671875 940.767152893 847 905.995720669 847 c 0
 881.664548709 847 859.731075575 835.954101562 844.230499773 816.693359375 c 0
EndSplineSet
EndChar

StartChar: A
Encoding: 65 65 36
Width: 1604
GlyphClass: 2
Flags: HW
LayerCount: 2
Fore
SplineSet
633.294076276 359 m 1
 649.54376957 463 l 1
 909.175134794 463 l 1
 916.19056463 435.448242188 927.718518554 389.022460938 934.362543281 359 c 1
 824.634886608 359 l 1
 824.634886608 -60 l 1
 1680 -60 l 1
 1680 363.61328125 l 1
 1564.99804688 363.61328125 l 1
 1560.92675781 366.913085938 1551.67871094 383.04296875 1549.51757812 397.216796875 c 0
 1549.47167969 396.989257812 l 1
 1234.87918099 1683 l 1
 237 1683 l 1
 237 1265.45996094 l 1
 432.740115955 1265.45996094 l 1
 213.7421875 364.4765625 l 1
 50 363.419921875 l 1
 50 -60 l 1
 763.949978973 -60 l 1
 763.949978973 359 l 1
 633.294076276 359 l 1
849.627475361 803 m 1
 704.449344993 803 l 1
 775.453940319 1146.37988281 l 1
 849.627475361 803 l 1
EndSplineSet
EndChar

StartChar: B
Encoding: 66 66 37
Width: 1494
GlyphClass: 2
Flags: HW
LayerCount: 2
Fore
SplineSet
990.043459418 -60 m 0
 1296.82317509 -60 1585 49.349609375 1585 405.87109375 c 0
 1585 634.721679688 1477.73632812 782.693359375 1317.54213493 854.4921875 c 1
 1430.77148438 924.840820312 1516 1051.94042969 1516 1218.16503906 c 0
 1516 1613.57519531 1212.52653588 1683 875.792182341 1683 c 0
 65 1683 l 1
 65 1255.83398438 l 1
 231 1255.83398438 l 1
 231 373.381835938 l 1
 58 373.381835938 l 1
 58 -60 l 1
 990.043459418 -60 l 0
790.418686063 388.631835938 m 1
 790.418686063 669.46875 l 1
 815.392380977 669.860351562 825.932933838 670 831.413983004 670 c 0
 939.229027204 670 989.492576134 634.298828125 989.492576134 527 c 0
 989.492576134 522.287109375 989.388147824 517.73828125 989.184081495 513.365234375 c 0
 984.11020693 404.620117188 921.037424064 382.60546875 790.418686063 388.631835938 c 1
790.418686063 991 m 1
 790.418686063 1240 l 1
 880.513491603 1240 l 0
 940.577972707 1240 981.940205819 1199.14941406 981.940205819 1131 c 0
 981.940205819 1012.89941406 927.100014367 991 800.255066378 991 c 0
 790.418686063 991 l 1
EndSplineSet
EndChar

StartChar: C
Encoding: 67 67 38
Width: 1376
GlyphClass: 2
Flags: HW
LayerCount: 2
Fore
SplineSet
1083.52720826 612 m 1
 1082.08726359 583.584960938 l 2
 1076.04274469 464.202148438 1070.38807146 430.689453125 1013.82127356 384.046875 c 0
 980.359520177 356.456054688 942.875094552 343 898.143170372 343 c 0
 699.408829276 343 692.692590996 567.831054688 692.692590996 839.451171875 c 0
 692.692590996 845.48046875 692.694502004 851.512695312 692.694502004 857.546875 c 0
 692.694502004 1095.72753906 715.914207003 1290 885.966226192 1290 c 0
 1013.45244898 1290 1076.5128527 1181.64453125 1076.5128527 1030.6171875 c 0
 1076.5128527 1027.60742188 1076.48609859 1024.58203125 1076.43259036 1021.55371094 c 0
 1075.89177504 991 l 1
 1428 991 l 1
 1428 1683 l 1
 1073.77437797 1683 l 1
 1050.10749705 1630.24023438 l 1
 964.116906075 1696.31152344 853.117906434 1712 722.981115285 1712 c 0
 260.736328125 1712 38 1291.71289062 38 803.739257812 c 0
 38 266.881835938 309.904273711 -89 801.663055445 -89 c 0
 1063.73680746 -89 1276.69042969 25.2177734375 1426.12988281 148.889648438 c 0
 1437 157.887695312 l 1
 1437 612 l 1
 1083.52720826 612 l 1
EndSplineSet
EndChar

StartChar: D
Encoding: 68 68 39
Width: 1626
GlyphClass: 2
Flags: HW
LayerCount: 2
Fore
SplineSet
1707 816 m 0
 1707 1385.88574219 1412.6998345 1683 884.800708584 1683 c 0
 55 1683 l 1
 55 1271 l 1
 224 1271 l 1
 224 359 l 1
 61 359 l 1
 61 -60 l 1
 863.899211417 -60 l 0
 1267.9561026 -60 1533.24707031 164.180664062 1650.11230469 486.052734375 c 0
 1688.06152344 590.129882812 1707 700.3125 1707 816 c 0
1072.41209402 817 m 0
 1072.41209402 561.68359375 1009.72008275 359 809.747514253 359 c 0
 805.491757458 359 l 1
 805.491757458 1271 l 1
 821.147719969 1271 l 0
 1022.1196665 1271 1072.41209402 1075.16113281 1072.41209402 817 c 0
EndSplineSet
EndChar

StartChar: E
Encoding: 69 69 40
Width: 1283
GlyphClass: 2
Flags: HW
LayerCount: 2
Fore
SplineSet
60 1593 m 1
 1208 1593 l 1
 1208 999 l 1
 993.918945312 999 l 1
 923.352231269 1300 l 1
 676.904619384 1300 l 1
 676.904619384 958 l 1
 865.425797387 958 l 1
 865.425797387 666 l 1
 676.904619384 666 l 1
 676.904619384 339 l 1
 928.006712298 339 l 1
 1000.12695312 666.676757812 l 1
 1219 666.676757812 l 1
 1219 40 l 1
 60 40 l 1
 60 339 l 1
 218 339 l 1
 218 1300 l 1
 60 1300 l 1
 60 1593 l 1
EndSplineSet
EndChar

StartChar: F
Encoding: 70 70 41
Width: 1266
GlyphClass: 2
Flags: HW
LayerCount: 2
Fore
SplineSet
687.751806643 1300 m 1
 687.751806643 969 l 1
 873.424406564 969 l 1
 873.424406564 673 l 1
 687.751806643 673 l 1
 687.751806643 339 l 1
 829.305123401 339 l 1
 829.305123401 40 l 1
 60 40 l 1
 60 339 l 1
 218 339 l 1
 218 1300 l 1
 60 1300 l 1
 60 1593 l 1
 1215 1593 l 1
 1215 989.3125 l 1
 986.146484375 989.3125 l 1
 926.825423751 1300 l 1
 687.751806643 1300 l 1
EndSplineSet
EndChar

StartChar: G
Encoding: 71 71 42
Width: 1545
GlyphClass: 2
Flags: HW
LayerCount: 2
Fore
SplineSet
1100.52402126 446 m 0
 1100.52402126 369.447265625 1033.06465195 318 949.659626124 318 c 0
 772.761779975 318 680.517230746 448.90625 680.517230746 756.397460938 c 0
 680.517230746 1046.73242188 728.852741778 1280 955.337246251 1280 c 0
 1130.77494119 1280 1172.26030096 1157.93652344 1192.48957902 971.642578125 c 0
 1195.38207816 945 l 1
 1532 945 l 1
 1532 1683 l 1
 1180.5782733 1683 l 1
 1146.55473681 1632.33300781 l 1
 1061.97909731 1686.89160156 960.327454418 1712 838.950827313 1712 c 0
 442.781029242 1712 197.446289062 1470.57617188 91.05078125 1145.27539062 c 0
 54.9482421875 1034.89257812 37 916.544921875 37 790.669921875 c 0
 37 330.510742188 286.927384678 46.0478515625 620.238775789 -52.916015625 c 0
 704.303410306 -77.01953125 793.371675259 -89 887.208680926 -89 c 0
 1033.74343531 -89 1156.07208484 -51.3955078125 1249.11238292 21.74609375 c 1
 1281.27789377 -60 l 1
 1604 -60 l 1
 1604 862 l 1
 941.558327564 862 l 1
 941.558327564 498 l 1
 1097.91434851 498 l 1
 1099.80976475 482.168945312 1100.52402126 466.84375 1100.52402126 446 c 0
EndSplineSet
EndChar

StartChar: H
Encoding: 72 72 43
Width: 1689
GlyphClass: 2
Flags: HW
LayerCount: 2
Fore
SplineSet
783.078021408 339 m 1
 783.078021408 40 l 1
 60 40 l 1
 60 339 l 1
 207 339 l 1
 207 1300 l 1
 60 1300 l 1
 60 1593 l 1
 782.12964286 1593 l 1
 782.12964286 1300 l 1
 692.014502343 1300 l 1
 692.014502343 956 l 1
 1005.08778164 956 l 1
 1005.08778164 1300 l 1
 921.614167729 1300 l 1
 921.614167729 1593 l 1
 1633 1593 l 1
 1633 1300 l 1
 1492 1300 l 1
 1492 339 l 1
 1639 339 l 1
 1639 40 l 1
 925.407681918 40 l 1
 925.407681918 339 l 1
 1005.08778164 339 l 1
 1005.08778164 665 l 1
 692.014502343 665 l 1
 692.014502343 339 l 1
 783.078021408 339 l 1
EndSplineSet
EndChar

StartChar: I
Encoding: 73 73 44
Width: 855
GlyphClass: 2
Flags: HW
LayerCount: 2
Fore
SplineSet
62 1310 m 1
 62 1603 l 1
 806 1603 l 1
 806 1310 l 1
 659 1310 l 1
 659 339 l 1
 800 339 l 1
 800 40 l 1
 58 40 l 1
 58 339 l 1
 205 339 l 1
 205 1310 l 1
 62 1310 l 1
EndSplineSet
EndChar

StartChar: J
Encoding: 74 74 45
Width: 1215
GlyphClass: 2
Flags: HW
LayerCount: 2
Fore
SplineSet
433.458531106 1251.27636719 m 1
 575.714532465 1251.27636719 l 1
 575.714532465 550.928710938 l 0
 575.714532465 425.61328125 559.229449786 365 501.640559155 365 c 0
 427.807209276 365 416.481739678 472.51953125 416.481739678 603 c 0
 416.481739678 633 l 1
 60 633 l 1
 60 -73 l 1
 376.034177445 -73 l 1
 401.042845826 -5.68359375 l 1
 464.242161814 -64.2197265625 549.832771953 -90 656.830307665 -90 c 0
 958.333368022 -90 1151 130.92578125 1151 463.602539062 c 0
 1151 1256.08496094 l 1
 1298 1256.08496094 l 1
 1298 1683 l 1
 433.458531106 1683 l 1
 433.458531106 1251.27636719 l 1
EndSplineSet
EndChar

StartChar: K
Encoding: 75 75 46
Width: 1639
GlyphClass: 2
Flags: HW
LayerCount: 2
Fore
SplineSet
1597.49316406 40 m 1
 1284.34707966 40 l 2
 1084.1448627 40 995.174191406 127.990234375 995.174191406 317 c 0
 995.174191406 502 l 0
 995.174191406 570.376953125 947.38771882 680 862.124478246 680 c 0
 672.274128439 680 l 1
 672.274128439 339 l 1
 793.023872437 339 l 1
 798.266403699 40.01171875 l 1
 60 40 l 1
 60 339 l 1
 207 339 l 1
 207 1310 l 1
 60 1310 l 1
 60 1602 l 1
 792.503548095 1602 l 1
 792.503548095 1310 l 1
 672.274128439 1310 l 1
 672.274128439 805.630859375 l 1
 1001.80137953 1270.1484375 l 1
 1001.80137953 1602 l 1
 1545 1602 l 1
 1545 1310 l 1
 1423.29003906 1310 l 1
 1103.01644206 884.259765625 l 1
 1103.01644206 830 l 1
 1131.93037704 830 l 0
 1314.99638736 830 1435 783.403320312 1435 612 c 0
 1435 471 l 0
 1435 425.33984375 1459.13085938 339 1532 339 c 0
 1592.49804688 339 l 1
 1597.49316406 40 l 1
EndSplineSet
EndChar

StartChar: L
Encoding: 76 76 47
Width: 1271
GlyphClass: 2
Flags: HW
LayerCount: 2
Fore
SplineSet
817.22033542 1602 m 1
 817.22033542 1310 l 1
 675.61708371 1310 l 1
 675.61708371 339 l 1
 901.894250265 339 l 1
 982.299804688 689 l 1
 1214 689 l 1
 1214 40 l 1
 61 40 l 1
 61 339 l 1
 203 339 l 1
 203 1310 l 1
 56 1310 l 1
 56 1602 l 1
 817.22033542 1602 l 1
EndSplineSet
EndChar

StartChar: M
Encoding: 77 77 48
Width: 2199
GlyphClass: 2
Flags: HW
LayerCount: 2
Fore
SplineSet
756.685186791 359 m 1
 727.369719219 359 l 0
 672.786457795 359 625.467385434 359.381835938 600.205383626 359.643554688 c 1
 600.205383626 836.784179688 l 1
 953.050938624 -60 l 1
 1265.04037751 -60 l 1
 1545.16681461 787.905273438 l 1
 1545.16681461 359 l 1
 1426.35846846 359 l 1
 1426.35846846 -60 l 1
 2269 -60 l 1
 2269 363.61328125 l 1
 2115 363.61328125 l 1
 2115 1265.45996094 l 1
 2262 1265.45996094 l 1
 2262 1683 l 1
 1446.545674 1683 l 1
 1199.07864479 951.284179688 l 1
 921.125189693 1683 l 1
 57 1683 l 1
 57 1265.45996094 l 1
 225 1265.45996094 l 1
 225 364.219726562 l 1
 196.796875 363.916015625 155.015625 363.61328125 91 363.61328125 c 0
 61 363.61328125 l 1
 61 -60 l 1
 756.685186791 -60 l 1
 756.685186791 359 l 1
EndSplineSet
EndChar

StartChar: N
Encoding: 78 78 49
Width: 1691
GlyphClass: 2
Flags: HW
LayerCount: 2
Fore
SplineSet
1616 -60 m 1
 1616 1265.46875 l 1
 1774 1265.46875 l 1
 1774 1682 l 1
 1097.46956711 1682 l 1
 1097.46956711 1270 l 1
 1247.97323493 1270 l 1
 1247.97323493 784.509765625 l 1
 822.532507302 1683 l 1
 64 1683 l 1
 64 1267.48339844 l 1
 221 1267.48339844 l 1
 221 364.250976562 l 1
 191.489257812 363.94140625 148.134765625 363.61328125 88 363.61328125 c 0
 58 363.61328125 l 1
 58 -60 l 1
 734.530432892 -60 l 1
 734.530432892 358.729492188 l 1
 705.747626142 359 l 0
 647.648730795 359.543945312 607.018419214 359.794921875 584.02676507 359.905273438 c 1
 584.02676507 773.244140625 l 1
 987.755714987 -60 l 1
 1616 -60 l 1
EndSplineSet
EndChar

StartChar: O
Encoding: 79 79 50
Width: 1594
GlyphClass: 2
Flags: HW
LayerCount: 2
Fore
SplineSet
412.372201902 1553.24804688 m 0
 524.014659912 1619.56152344 651.987982603 1653 797.891920328 1653 c 0
 1112.44594675 1653 1327.58496094 1493.56933594 1452.203125 1261.06152344 c 0
 1521.11816406 1132.48339844 1556 981.948242188 1556 807.854492188 c 0
 1556 465.109375 1385.4375 210.4765625 1175.58818897 79.6318359375 c 0
 1061.54993717 7.173828125 935.626593974 -29 796 -29 c 0
 488.875712341 -29 263 151.956054688 139.75 380.12890625 c 0
 70.6298828125 508.090820312 36 650.11328125 36 807.854492188 c 0
 36 1166.92480469 195.48046875 1427.10449219 412.372201902 1553.24804688 c 0
796 259 m 0
 1025.53543761 259 1029.06734153 581.577148438 1023.52185962 792.5859375 c 1
 1023.52185962 861.3984375 l 1
 1018.44863934 1065.81054688 1028.89587129 1356 796 1356 c 0
 790.788837174 1356 785.658140832 1355.82617188 780.609826845 1355.47851562 c 0
 574.617541584 1341.29003906 557.195589687 1061.6875 568.478140379 860.018554688 c 1
 568.478140379 791.643554688 l 1
 574.604130503 586.000976562 556.933115677 259 796 259 c 0
EndSplineSet
EndChar

StartChar: P
Encoding: 80 80 51
Width: 1496
GlyphClass: 2
Flags: HW
LayerCount: 2
Fore
SplineSet
942.373896761 380.388671875 m 1
 804.531462035 380.388671875 l 1
 804.531462035 535.30859375 l 1
 845.954511428 530.866210938 880.481702789 529 917.274621331 529 c 0
 924.138864564 529 930.960954733 529.048828125 937.748556031 529.14453125 c 0
 1311.35882482 534.479492188 1588.61621094 694.674804688 1582.99707031 1121.9296875 c 0
 1579.29199219 1445.4375 1420.82324219 1627.97558594 1147.59896202 1665.0859375 c 0
 1073.50633015 1675.15332031 993.099360918 1683 908.7779049 1683 c 0
 63 1683 l 1
 63 1255.83398438 l 1
 214 1255.83398438 l 1
 214 373.381835938 l 1
 58 373.381835938 l 1
 58 -60 l 1
 942.373896761 -60 l 1
 942.373896761 380.388671875 l 1
814.365580219 925 m 0
 804.531462035 925 l 1
 804.531462035 1240 l 1
 854.96281277 1240 l 0
 946.228986052 1240 999.806488186 1193.55761719 999.806488186 1096 c 0
 999.806488186 978.264648438 946.13222561 925 814.365580219 925 c 0
EndSplineSet
EndChar

StartChar: Q
Encoding: 81 81 52
Width: 1650
GlyphClass: 2
Flags: HW
LayerCount: 2
Fore
SplineSet
143.0703125 1279.32226562 m 0
 71.501953125 1143.0078125 36 987.794921875 36 815.17578125 c 0
 36 438.25390625 201.688476562 165.387695312 440.323896155 23.79296875 c 0
 564.431300508 -51.107421875 711.888628568 -107.961914062 879.021790153 -92.0322265625 c 0
 1226.79531754 -60 l 1
 1727 -60 l 1
 1727 373.315429688 l 1
 1584.79003906 373.315429688 l 1
 1652.81738281 508.748046875 1685 650.509765625 1685 806.684570312 c 0
 1685 1238.04882812 1482.00195312 1526.08105469 1191.14655706 1649.91210938 c 0
 1092.61370199 1691.39257812 985.521417492 1712 870.55649427 1712 c 0
 527.549198384 1712 275.884765625 1532.28613281 143.0703125 1279.32226562 c 0
1036.60808055 803.979492188 m 1
 1036.67627935 802.9453125 l 2
 1038.66364996 773.012695312 1039.90371543 742.053710938 1039.90659707 711.220703125 c 0
 1039.91716308 536.943359375 1001.82093024 398 876.265982382 398 c 0
 723.964618564 398 693.08497122 537.54296875 693.08497122 722 c 0
 693.08497122 925.5 l 0
 693.08497122 1127.35644531 710.601496322 1275 865.798907693 1275 c 0
 1030.22332828 1275 1036.60808055 1072.49511719 1036.60808055 852 c 0
 1036.60808055 803.979492188 l 1
EndSplineSet
EndChar

StartChar: R
Encoding: 82 82 53
Width: 1607
GlyphClass: 2
Flags: HW
LayerCount: 2
Fore
SplineSet
1520 453.53125 m 0
 1520 549.887695312 l 2
 1520 692.338867188 1432.13593031 764.7265625 1330.46253292 805.525390625 c 1
 1484.09863281 863.752929688 1602 981.529296875 1602 1182.93847656 c 0
 1602 1542.57128906 1382.0415168 1683 1062.68327299 1683 c 0
 58 1683 l 1
 58 1255.84179688 l 1
 213 1255.84179688 l 1
 213 373.411132812 l 1
 59 373.411132812 l 1
 59 -61.0556640625 l 1
 89.0556640625 -61 l 0
 445.926335274 -60.3330078125 702.126522127 -60 869.101822763 -60 c 0
 898.074456208 -60 l 1
 898.074456208 376.231445312 l 1
 783.254885925 376.231445312 l 1
 783.254885925 664 l 1
 847.27662312 664 l 0
 971.169634137 664 994.803764059 597.112304688 994.803764059 441.352539062 c 0
 994.803764059 237.922851562 l 0
 994.803764059 4.962890625 1143.18402915 -60 1335.49778871 -60 c 0
 1684 -60 l 1
 1684 373.381835938 l 1
 1654 373.381835938 l 0
 1549.68066406 373.381835938 1520 377.4140625 1520 453.53125 c 0
777.56131386 950 m 1
 777.56131386 1240 l 1
 863.408250698 1240 l 0
 958.241300602 1240 1014.73174611 1188.47753906 1014.73174611 1096 c 0
 1014.73174611 985.463867188 932.638939379 950 806.472530043 950 c 0
 777.56131386 950 l 1
EndSplineSet
EndChar

StartChar: S
Encoding: 83 83 54
Width: 1146
GlyphClass: 2
Flags: HW
LayerCount: 2
Fore
SplineSet
1134.00195312 862.942382812 m 0
 1047.86132812 980.849609375 930.585570039 1049.67285156 802.045067033 1100.42480469 c 1
 1121 1100.42480469 l 1
 1121 1683 l 1
 803.493493669 1683 l 1
 795.339564054 1667.8046875 l 0
 789.396740805 1656.72949219 783.284855299 1645.00292969 779.655715513 1637.87890625 c 1
 703.605243975 1689.234375 612.163458586 1713 503.559954595 1713 c 0
 197.701171875 1713 36 1470.51171875 36 1138.4453125 c 0
 36 701.615234375 313.063833339 576.4453125 599.407806318 483.626953125 c 0
 657.500636946 464.797851562 699.647477556 445.3046875 699.647477556 393.010742188 c 0
 699.647477556 357.861328125 671.253566569 334 627.755177695 334 c 0
 546.384943807 334 464.874141302 422.58984375 440.223344655 497.8203125 c 0
 433.612820471 518 l 1
 72 518 l 1
 72 -60 l 1
 433.893007918 -60 l 1
 459.782328062 11.916015625 l 1
 538.505502912 -54.5908203125 613.179731701 -89 750.11161131 -89 c 0
 983.578039335 -89 1137.94335938 90.791015625 1203.81152344 283.717773438 c 0
 1272.86523438 485.973632812 1226.64550781 736.130859375 1134.00195312 862.942382812 c 0
772.094453584 1130.42773438 m 0
 774.885880391 1117.27734375 l 1
 748.452331748 1126.98046875 721.469805666 1136.06835938 694.258380686 1144.73339844 c 0
 620.617521195 1168.18164062 542.063408601 1192.09277344 542.063408601 1240.68847656 c 0
 542.063408601 1288.56933594 558.886052903 1305 600.156239229 1305 c 0
 680.518748094 1305 754.453092063 1213.51757812 772.094453584 1130.42773438 c 0
EndSplineSet
EndChar

StartChar: T
Encoding: 84 84 55
Width: 1429
GlyphClass: 2
Flags: HW
LayerCount: 2
Fore
SplineSet
43 1592 m 1
 1380 1592 l 1
 1380 995 l 1
 1153.98046875 995 l 1
 1095.51468788 1300 l 1
 944.189052877 1300 l 1
 944.189052877 330 l 1
 1097.54669839 330 l 1
 1097.54669839 30 l 1
 321.713639081 30 l 1
 321.713639081 330 l 1
 475.070330599 330 l 1
 475.070330599 1300 l 1
 329.503012689 1300 l 1
 269.173828125 995 l 1
 43 995 l 1
 43 1592 l 1
EndSplineSet
EndChar

StartChar: U
Encoding: 85 85 56
Width: 1549
GlyphClass: 2
Flags: HW
LayerCount: 2
Fore
SplineSet
36 1682 m 1
 36 1256.10449219 l 1
 197 1256.10449219 l 1
 197 700.716796875 l 0
 197 217.317382812 371.372409497 -89 827.366218719 -89 c 0
 1073.62280774 -89 1270.59796028 30.080078125 1380.68650065 196.803710938 c 1
 1445.20605469 289.6953125 1478 395.104492188 1478 510.186523438 c 0
 1478 1256.10449219 l 1
 1632 1256.10449219 l 1
 1632 1682 l 1
 941.506391843 1682 l 1
 941.506391843 1251.5859375 l 1
 1096.91106334 1251.5859375 l 1
 1096.91106334 514.002929688 l 0
 1096.91106334 405.005859375 1039.76903727 346 940.128990178 346 c 0
 832.731946377 346 789.980698301 440.233398438 789.980698301 581.012695312 c 0
 789.980698301 1251.5859375 l 1
 930.224359537 1251.5859375 l 1
 930.224359537 1682 l 1
 36 1682 l 1
EndSplineSet
EndChar

StartChar: V
Encoding: 86 86 57
Width: 1644
GlyphClass: 2
Flags: HW
LayerCount: 2
Fore
SplineSet
979.901312047 652.905273438 m 1
 827.279293156 1270 l 1
 929.05740246 1270 l 1
 929.05740246 1682 l 1
 36 1682 l 1
 36 1265.46875 l 1
 209.178710938 1265.46875 l 1
 556.3214918 -60 l 1
 1155.59534099 -60 l 1
 1538.1796875 1265.6015625 l 1
 1569.52734375 1265.54785156 1626.60253906 1265.46875 1696 1265.46875 c 0
 1726 1265.46875 l 1
 1726 1682 l 1
 995.659821496 1682 l 1
 995.659821496 1270.65429688 l 1
 1024.04358074 1270.00195312 l 0
 1065.79796364 1269.046875 1095.35837619 1268.34960938 1112.19844614 1267.94335938 c 1
 979.901312047 652.905273438 l 1
EndSplineSet
EndChar

StartChar: W
Encoding: 87 87 58
Width: 2431
GlyphClass: 2
Flags: HW
LayerCount: 2
Fore
SplineSet
36 1683 m 1
 36 1270 l 1
 185.99609375 1270 l 1
 527.563056132 -60 l 1
 1093.52706563 -60 l 1
 1266.5759141 592.0234375 l 1
 1431.9143447 -60 l 1
 2004.10856521 -60 l 1
 2337.14550781 1270 l 1
 2513 1270 l 1
 2513 1683 l 1
 1815.19220847 1683 l 1
 1815.19220847 1270 l 1
 1932.51818108 1270 l 1
 1820.1346105 819.196289062 l 1
 1597.36879411 1683 l 1
 1155.37863603 1683 l 1
 926.154438265 789.938476562 l 1
 809.329280253 1270 l 1
 937.587126858 1270 l 1
 937.587126858 1683 l 1
 36 1683 l 1
EndSplineSet
EndChar

StartChar: X
Encoding: 88 88 59
Width: 1825
GlyphClass: 2
Flags: HW
LayerCount: 2
Fore
SplineSet
658.396515552 368.55859375 m 1
 649.06697035 351.577148438 l 1
 646.056570371 352.849609375 644.575430484 353.654296875 642.857539192 354.880859375 c 0
 638.956915434 357.66796875 637.534482196 357.8671875 642.195405181 364.295898438 c 0
 648.784985953 373.383789062 657.074172339 369.23828125 658.396515552 368.55859375 c 1
911.802323215 -60 m 1
 905.098216357 359 l 1
 796.037623014 359 l 0
 765.993292281 359 740.749433125 358.967773438 721.433983135 358.922851562 c 1
 862.094152212 556.03515625 l 1
 1028.73826919 359 l 1
 943.011162891 359 l 1
 943.011162891 -60 l 1
 1901 -60 l 1
 1901 373.381835938 l 1
 1732.44628906 373.381835938 l 1
 1342.70335391 831.484375 l 1
 1638.69650475 1255.5234375 l 1
 1850 1255.5234375 l 1
 1850 1683 l 1
 1068.39605433 1683 l 1
 1068.39605433 1270 l 1
 1179.02921595 1270 l 1
 1092.64767487 1144.38085938 l 1
 998.095323113 1270 l 1
 1046.27423402 1270 l 1
 1046.27423402 1683 l 1
 101 1683 l 1
 101 1255.83398438 l 1
 288.499023438 1255.83398438 l 1
 618.767602534 863.290039062 l 1
 225.024414062 372.03515625 l 1
 50 372.03515625 l 1
 50 -60 l 1
 911.802323215 -60 l 1
EndSplineSet
EndChar

StartChar: Y
Encoding: 89 89 60
Width: 1533
GlyphClass: 2
Flags: HW
LayerCount: 2
Fore
SplineSet
1098.32041147 1270 m 1
 1137.99504647 1270 l 1
 1137.99504647 1270 l 0
 1137.99504647 1280.64550781 1136.50007968 1298.29394531 1129.45772169 1311.03417969 c 0
 1129.15182406 1312.43359375 l 1
 1087.13836674 1364.28808594 l 1
 1098.32041147 1270 l 1
1063.4768494 1270 m 1
 1038.48530067 1209.15136719 997.905438826 1110.84472656 971.29618068 1051.74609375 c 1
 937.939913983 1112.31738281 884.053025753 1210.87695312 851.323897144 1270 c 1
 913.604271141 1270 l 1
 913.604271141 1682 l 1
 36 1682 l 1
 36 1270 l 1
 162.168945312 1270 l 1
 553.717147262 662.723632812 l 1
 553.717147262 359 l 1
 406.964916621 359 l 1
 406.964916621 -60 l 1
 1287.58857704 -60 l 1
 1287.58857704 359 l 1
 1138.94150716 359 l 1
 1138.94150716 716.305664062 l 1
 1423.31054688 1269.66503906 l 1
 1444.71875 1269.82617188 1474.1796875 1270 1511 1270 c 0
 1615 1270 l 1
 1615 1682 l 1
 940.956697511 1682 l 1
 940.956697511 1270 l 1
 1063.4768494 1270 l 1
EndSplineSet
EndChar

StartChar: Z
Encoding: 90 90 61
Width: 1415
GlyphClass: 2
Flags: HW
LayerCount: 2
Fore
SplineSet
62 978 m 1
 62 1602 l 1
 1336 1602 l 1
 1336 1312.61035156 l 1
 662.785842647 339 l 1
 1027.58619346 339 l 1
 1127.71289062 685 l 1
 1357 685 l 1
 1357 40 l 1
 67 40 l 1
 67 350.255859375 l 1
 742.792388894 1310 l 1
 370.427405123 1310 l 1
 295.569335938 978 l 1
 62 978 l 1
EndSplineSet
EndChar

StartChar: bracketleft
Encoding: 91 91 62
Width: 759
GlyphClass: 2
Flags: HW
LayerCount: 2
Fore
SplineSet
512 281 m 1
 704.903320312 281 l 1
 704.096679688 30 l 1
 75 30 l 1
 75 1593 l 1
 709 1593 l 1
 709 1352 l 1
 512 1352 l 1
 512 281 l 1
EndSplineSet
EndChar

StartChar: backslash
Encoding: 92 92 63
Width: 865
GlyphClass: 2
Flags: HW
LayerCount: 2
Fore
SplineSet
502.680900427 1603 m 1
 817.331054688 20 l 1
 351.457705979 20 l 1
 36 1603 l 1
 502.680900427 1603 l 1
EndSplineSet
EndChar

StartChar: bracketright
Encoding: 93 93 64
Width: 761
GlyphClass: 2
Flags: HW
LayerCount: 2
Fore
SplineSet
52 1593 m 1
 686 1593 l 1
 686 30 l 1
 56.9033203125 30 l 1
 56.0966796875 281 l 1
 249 281 l 1
 249 1352 l 1
 52 1352 l 1
 52 1593 l 1
EndSplineSet
EndChar

StartChar: asciicircum
Encoding: 94 94 65
Width: 1326
GlyphClass: 2
Flags: HW
LayerCount: 2
Fore
SplineSet
41 929 m 1
 479.449146732 1604 l 1
 791.284224474 1604 l 1
 1229.73242188 929 l 1
 850.743631085 929 l 1
 635.366210938 1298.51757812 l 1
 419.98784146 929 l 1
 41 929 l 1
EndSplineSet
EndChar

StartChar: underscore
Encoding: 95 95 66
Width: 1216
GlyphClass: 2
Flags: HW
LayerCount: 2
Fore
SplineSet
1145 -194 m 1
 72 -194 l 1
 72 -31 l 1
 1145 -31 l 1
 1145 -194 l 1
EndSplineSet
EndChar

StartChar: grave
Encoding: 96 96 67
Width: 703
GlyphClass: 2
Flags: HW
LayerCount: 2
Fore
SplineSet
627.48046875 1267.16796875 m 1
 555.211914062 1169.1875 l 1
 53 1452.92871094 l 1
 198.577148438 1662.59277344 l 1
 627.48046875 1267.16796875 l 1
EndSplineSet
EndChar

StartChar: a
Encoding: 97 97 68
Width: 1204
GlyphClass: 2
Flags: HW
LayerCount: 2
Fore
SplineSet
533.57460566 803 m 0
 653.607257099 803 700.005058662 750.536132812 700.005058662 637 c 2
 700.005058662 632.88671875 l 1
 635.560180428 651.706054688 568.843249803 660 492.010027307 660 c 0
 280.016601562 660 43 549.48046875 43 293.087890625 c 0
 43 58.021484375 244.663085938 -78 449.522932915 -78 c 0
 555.239466883 -78 658.471864876 -29.5341796875 722.879652259 33.67578125 c 1
 759.233441558 -60 l 1
 1280 -60 l 1
 1280 323.260742188 l 1
 1184 323.260742188 l 1
 1184 760.819335938 l 0
 1184 1088.88574219 877.984081016 1152 619.474163627 1152 c 0
 500.83194358 1152 318.215613794 1123.77441406 222.403320312 1099.0234375 c 1
 133 1075.00390625 l 1
 133 708 l 1
 349.361467182 708 l 1
 357.889509789 720.184570312 l 0
 396.319435701 775.08203125 452.133558202 803 533.57460566 803 c 0
639.794243736 408 m 0
 659.119528198 408 685.398871715 400.099609375 702.776410971 393.342773438 c 1
 702.776410971 257.359375 l 1
 687.487371945 241.14453125 656.739056397 224 631.482088904 224 c 0
 595.376522993 224 571.270322931 253.669921875 571.270322931 310.137695312 c 0
 571.270322931 361.983398438 607.749650495 408 639.794243736 408 c 0
EndSplineSet
EndChar

StartChar: b
Encoding: 98 98 69
Width: 1307
GlyphClass: 2
Flags: HW
LayerCount: 2
Fore
SplineSet
1396 538.052734375 m 0
 1396 860.845703125 1234.92285156 1152 928.898039023 1152 c 0
 843.607367454 1152 755.2312551 1116.49023438 672.642253524 1055.74023438 c 1
 672.642253524 1691 l 1
 33 1691 l 1
 33 1325 l 1
 157 1325 l 1
 157 -60 l 1
 633.792620882 -60 l 1
 664.665167141 24.2705078125 l 1
 743.348680398 -37.9501953125 790.965852694 -78 909.279905326 -78 c 0
 1227.24121094 -78 1396 202.086914062 1396 538.052734375 c 0
676.378768137 385.791015625 m 1
 676.378768137 672.64453125 l 1
 697.300958799 719.706054688 730.236511721 758 773.821226754 758 c 0
 859.057483062 758 887.145304455 658.751953125 887.145304455 515.313476562 c 0
 887.145304455 398.125 844.421687066 328 773.821226754 328 c 0
 734.810257635 328 698.888547915 357.775390625 676.378768137 385.791015625 c 1
EndSplineSet
EndChar

StartChar: c
Encoding: 99 99 70
Width: 978
GlyphClass: 2
Flags: HWO
LayerCount: 2
Back
SplineSet
38 547.588867188 m 4
 38 904.703125 260.930664062 1091 579.08933455 1091 c 4
 898.866210938 1091 1122 905.692382812 1122 547.588867188 c 4
 1122 184.256835938 897.341796875 -18 580 -18 c 4
 262.73828125 -18 38 184.4375 38 547.588867188 c 4
427.090390962 545.974609375 m 4
 427.090390962 360.546875 469.364539199 234 580 234 c 4
 690.627903411 234 732.909609038 360.553710938 732.909609038 545.974609375 c 4
 732.909609038 674.915039062 720.646799691 839 580 839 c 4
 439.357923677 839 427.090390962 674.887695312 427.090390962 545.974609375 c 4
EndSplineSet
Fore
SplineSet
737.334004523 400.671875 m 0
 719.193276865 299.781794091 684.71712062 235 601.606445312 235 c 0
 484.399389886 235 431.466796875 318.840887276 431.466796875 539.822265625 c 4
 431.466796875 765.609671617 486.155747874 840 583.606445312 840 c 0
 665.94843549 840 733.275496213 764.125195312 733.275496213 658 c 0
 733.275496213 628 l 1
 1031 628 l 1
 1031 1072 l 1
 807.985351562 1072 l 1
 775.697265625 1010.49707031 l 1
 705.61673786 1065.01269531 632.829281261 1092 554.62890625 1092 c 0
 252.19828284 1092 38 876.119960358 38 546.469726562 c 0
 38 204.724101305 261.543119554 -18 583.989257812 -18 c 0
 823.351729339 -18 1018.35937769 128.041015625 1021.54980469 130.40625 c 0
 1033 138.90234375 l 1
 1033 425 l 1
 741.66489594 425 l 1
 737.334004523 400.671875 l 0
EndSplineSet
EndChar

StartChar: d
Encoding: 100 100 71
Width: 1306
GlyphClass: 2
Flags: HW
LayerCount: 2
Fore
SplineSet
757.957822379 1059.52929688 m 1
 692.224083146 1116.97167969 619.374476983 1150 507.635231441 1150 c 0
 213.865234375 1150 38 860.13671875 38 550.7578125 c 0
 38 222.415039062 203.516601562 -79 515.262578145 -79 c 1
 617.015562802 -77.787109375 700.933553103 -36.1884765625 761.689907072 20.541015625 c 1
 761.689907072 -60 l 1
 1385 -60 l 1
 1385 317.307617188 l 1
 1288 317.307617188 l 1
 1288 1700 l 1
 636.665546954 1700 l 1
 636.665546954 1335 l 1
 757.957822379 1335 l 1
 757.957822379 1059.52929688 l 1
761.689907072 691.212890625 m 1
 761.689907072 404.352539062 l 1
 740.790805339 357.283203125 707.89864801 319 664.381834331 319 c 0
 579.273890153 319 551.213117331 418.239257812 551.213117331 561.686523438 c 0
 551.213117331 678.885742188 593.889233844 749 664.381834331 749 c 0
 703.33445443 749 739.205790591 719.232421875 761.689907072 691.212890625 c 1
EndSplineSet
EndChar

StartChar: e
Encoding: 101 101 72
Width: 1096
GlyphClass: 2
Flags: HW
LayerCount: 2
Fore
SplineSet
567.948556177 409.419921875 m 1
 1104.46484375 409.419921875 l 1
 1178.85058594 411.83203125 1176 511.724609375 1176 546.60546875 c 0
 1176 913.043945312 942.77734375 1152 623.427565927 1152 c 0
 284.626513778 1152 38 906.567382812 38 520.165039062 c 0
 38 166.6484375 301.358880057 -78 608.825583013 -78 c 0
 832.51583635 -78 976.282226562 -27.56640625 1141.40917969 71.2587890625 c 0
 1156 79.9951171875 l 1
 1156 351 l 1
 800.539246196 351 l 1
 799.64124556 321.986328125 l 0
 797.472024615 251.872070312 770.020486189 222 700.091054813 222 c 0
 623.36788867 222 576.317581091 300.54296875 567.948556177 409.419921875 c 1
638.942705606 814 m 0
 691.496582483 814 707.306319416 771.00390625 708.576592468 687.879882812 c 1
 661.987599562 687.779296875 613.318427967 687.106445312 568.613531332 687.009765625 c 1
 568.899603264 760.287109375 597.868649094 814 638.942705606 814 c 0
EndSplineSet
EndChar

StartChar: f
Encoding: 102 102 73
Width: 766
GlyphClass: 2
Flags: HW
LayerCount: 2
Fore
SplineSet
808.438476562 1252.7265625 m 0
 845 1244.53222656 l 1
 845 1614.13867188 l 1
 825.08984375 1621.25390625 l 0
 754.431640625 1646.48632812 613.631835938 1670 521.661054436 1670 c 0
 297.20703125 1670 157 1517.93847656 157 1237 c 0
 157 1189.80371094 157.630859375 1152.74023438 158.116210938 1132 c 1
 56 1132 l 1
 56 742.086914062 l 1
 160 742.086914062 l 1
 160 323.588867188 l 1
 56 323.588867188 l 1
 56 -60 l 1
 776 -60 l 1
 776 323.588867188 l 1
 646 323.588867188 l 1
 646 742.086914062 l 1
 818 742.086914062 l 1
 818 1132 l 1
 637.813476562 1132 l 1
 637.706054688 1137.16503906 637.682617188 1139.828125 637.67578125 1144.21875 c 0
 637.533203125 1234.81054688 652.514648438 1265 719 1265 c 0
 740.93359375 1265 771.165039062 1261.08007812 808.438476562 1252.7265625 c 0
EndSplineSet
EndChar

StartChar: g
Encoding: 103 103 74
Width: 1277
GlyphClass: 2
Flags: HW
LayerCount: 2
Fore
SplineSet
209.30078125 -20.8251953125 m 0
 169 -6.091796875 l 1
 169 -375.91796875 l 1
 184.776367188 -384.4140625 l 0
 269.767578125 -430.178710938 439.806194239 -449 566.737123297 -449 c 0
 1005.51965205 -449 1251 -254.826171875 1251 133.37109375 c 0
 1251 761 l 1
 1358 761 l 1
 1358 1132 l 1
 853.23781829 1132 l 1
 827.327183611 1068.74316406 l 1
 725.065375731 1123.265625 631.018344201 1150 538.808790794 1150 c 0
 246.938476562 1150 38 864.41015625 38 548.224609375 c 0
 38 221.419921875 227.051757812 -30.3857421875 527.638029918 -30.3857421875 c 0
 615.145660844 -30.3857421875 698.289877192 -3.7431640625 761.525060991 32.2626953125 c 1
 743.63467981 -67.126953125 678.852848623 -87 544.395601546 -87 c 0
 437.659768056 -87 328.233988647 -65.1708984375 209.30078125 -20.8251953125 c 0
561.832096072 552.125 m 0
 561.832096072 671.690429688 589.401896259 760 660.762223329 760 c 0
 728.487642976 760 765.279161339 657.6484375 765.279161339 542.67578125 c 0
 765.279161339 435.270507812 730.583531359 339 668.209397246 339 c 0
 592.633454825 339 561.832096072 430.856445312 561.832096072 552.125 c 0
EndSplineSet
EndChar

StartChar: h
Encoding: 104 104 75
Width: 1353
GlyphClass: 2
Flags: HW
LayerCount: 2
Fore
SplineSet
1430 323.291992188 m 1
 1324 323.291992188 l 1
 1324 710.341796875 l 0
 1324 976.779296875 1189.70117188 1150 951.449359904 1150 c 0
 830.017295083 1150 739.082914112 1098.90039062 680.8837643 1036.49609375 c 1
 680.8837643 1700 l 1
 53 1700 l 1
 53 1332 l 1
 157 1332 l 1
 157 320.522460938 l 1
 58 320.522460938 l 1
 58 -60 l 1
 759.43953315 -60 l 1
 759.43953315 332.766601562 l 1
 684.623514729 332.766601562 l 1
 684.623514729 648.068359375 l 0
 684.623514729 723.524414062 704.951483994 744 750.384294751 744 c 0
 778.514552321 744 799.310467885 726.7109375 799.310467885 640.50390625 c 0
 799.310467885 -60 l 1
 1430 -60 l 1
 1430 323.291992188 l 1
EndSplineSet
EndChar

StartChar: i
Encoding: 105 105 76
Width: 668
GlyphClass: 2
Flags: HW
LayerCount: 2
Fore
SplineSet
747 -60 m 1
 747 323.588867188 l 1
 643 323.588867188 l 1
 643 1132 l 1
 53 1132 l 1
 53 742.086914062 l 1
 162 742.086914062 l 1
 162 323.588867188 l 1
 60 323.588867188 l 1
 60 -60 l 1
 747 -60 l 1
371.354823327 1195 m 0
 249.329101562 1195 145 1279.04589844 145 1415 c 0
 145 1550.33398438 247.189453125 1630 371.354823327 1630 c 0
 483.518065528 1630 589 1551.92089844 589 1415 c 0
 589 1278.52636719 480.281151677 1195 371.354823327 1195 c 0
EndSplineSet
EndChar

StartChar: j
Encoding: 106 106 77
Width: 631
GlyphClass: 2
Flags: HW
LayerCount: 2
Fore
SplineSet
32 1132 m 1
 32 740.844726562 l 1
 142 740.844726562 l 1
 142 -39 l 0
 142 -56.5791015625 113.444335938 -77.1982421875 68.314453125 -72.1845703125 c 0
 34.794921875 -68.4580078125 l 1
 37.1845703125 -458 l 1
 67 -458 l 0
 459.135742188 -458 681 -310.913085938 681 120.731445312 c 0
 681 1132 l 1
 32 1132 l 1
374.68988055 1195 m 0
 243.756835938 1195 140 1279.37207031 140 1415 c 0
 140 1550.00976562 241.625976562 1630 374.68988055 1630 c 0
 517.341796875 1630 624 1551.27929688 624 1415 c 0
 624 1279.18261719 513.490234375 1195 374.68988055 1195 c 0
EndSplineSet
EndChar

StartChar: k
Encoding: 107 107 78
Width: 1343
GlyphClass: 2
Flags: HW
LayerCount: 2
Fore
SplineSet
56 1634 m 1
 571.322812974 1634 l 1
 571.322812974 60 l 1
 57 60 l 1
 57 305 l 1
 160 305 l 1
 160 1390 l 1
 56 1390 l 1
 56 1634 l 1
879.731926645 60 m 1
 579.407383736 557.825195312 l 1
 861.267988126 821 l 1
 726.612001377 821 l 1
 726.612001377 1072 l 1
 1274 1072 l 1
 1274 821 l 1
 1128.54199219 821 l 1
 1125.70410156 820.141601562 l 0
 1101.8125 812.907226562 998.925375337 715.981445312 962.026979736 682.697265625 c 1
 892.489780635 713.3046875 l 1
 1150.74609375 305 l 1
 1292 305 l 1
 1292 60 l 1
 879.731926645 60 l 1
EndSplineSet
EndChar

StartChar: l
Encoding: 108 108 79
Width: 708
GlyphClass: 2
Flags: HW
LayerCount: 2
Fore
SplineSet
50 1377 m 1
 50 1630 l 1
 569 1630 l 1
 569 305 l 1
 667 305 l 1
 667 60 l 1
 60 60 l 1
 60 305 l 1
 154 305 l 1
 154 1377 l 1
 50 1377 l 1
EndSplineSet
EndChar

StartChar: m
Encoding: 109 109 80
Width: 1945
GlyphClass: 2
Flags: HW
LayerCount: 2
Fore
SplineSet
1225.07652401 978.706054688 m 1
 1173.26268934 1072.55664062 1088.64694658 1152 963.17670959 1152 c 0
 826.001415284 1152 716.425353169 1090.05175781 641.876788277 1013.66503906 c 1
 641.876788277 1155.64160156 l 1
 59 1086.49707031 l 1
 59 742.0859375 l 1
 154.872070312 742.0859375 l 1
 153.126953125 317.28515625 l 1
 60 317.28515625 l 1
 60 -60 l 1
 718.699115228 -60 l 1
 718.699115228 321.034179688 l 1
 641.876788277 321.034179688 l 1
 641.876788277 541.12890625 l 0
 641.876788277 640.940429688 663.951549427 718 716.384887912 718 c 0
 776.437256213 718 794.734296586 697.908203125 794.734296586 643.385742188 c 0
 794.734296586 -60 l 1
 1354.40637575 -60 l 1
 1354.40637575 324.09765625 l 1
 1272.78217163 324.09765625 l 1
 1272.78217163 581.509765625 l 0
 1272.78217163 670.151367188 1298.16352235 723 1358.81323492 723 c 0
 1399.87872657 723 1419.92829795 691.80859375 1425.63967994 638.856445312 c 1
 1425.63967994 -60 l 1
 2021 -60 l 1
 2021 323.260742188 l 1
 1927 323.260742188 l 1
 1927 738.705078125 l 0
 1927 993.629882812 1788.23730469 1152 1555.67092947 1152 c 0
 1422.81770999 1152 1311.10951422 1090.89941406 1225.07652401 978.706054688 c 1
EndSplineSet
EndChar

StartChar: n
Encoding: 110 110 81
Width: 1360
GlyphClass: 2
Flags: HW
LayerCount: 2
Fore
SplineSet
1436 323.260742188 m 1
 1336 323.260742188 l 1
 1336 687.106445312 l 0
 1336 985.07421875 1216.06445312 1152 989.2322302 1152 c 0
 859.365301255 1152 754.051839947 1103.98925781 683.104638185 1030.83886719 c 1
 683.104638185 1155.35449219 l 1
 65 1086.73632812 l 1
 65 742.086914062 l 1
 161 742.086914062 l 1
 161 323.609375 l 1
 58 323.609375 l 1
 58 -60 l 1
 765.407938106 -60 l 1
 765.407938106 333.029296875 l 1
 683.104638185 333.029296875 l 1
 683.104638185 646.400390625 l 0
 683.104638185 701.08984375 712.526778635 737 751.676714548 737 c 0
 778.748560021 737 807.154563187 701.536132812 807.154563187 649.64453125 c 0
 807.154563187 -60 l 1
 1436 -60 l 1
 1436 323.260742188 l 1
EndSplineSet
EndChar

StartChar: o
Encoding: 111 111 82
Width: 1153
GlyphClass: 2
Flags: HW
LayerCount: 2
Fore
SplineSet
38 547.588867188 m 4
 38 904.703125 260.930664062 1091 579.08933455 1091 c 4
 898.866210938 1091 1122 905.692382812 1122 547.588867188 c 4
 1122 184.256835938 897.341796875 -18 580 -18 c 4
 262.73828125 -18 38 184.4375 38 547.588867188 c 4
427.090390962 545.974609375 m 4
 427.090390962 360.546875 469.364539199 234 580 234 c 4
 690.627903411 234 732.909609038 360.553710938 732.909609038 545.974609375 c 4
 732.909609038 674.915039062 720.646799691 839 580 839 c 4
 439.357923677 839 427.090390962 674.887695312 427.090390962 545.974609375 c 4
EndSplineSet
EndChar

StartChar: p
Encoding: 112 112 83
Width: 1268
GlyphClass: 2
Flags: HW
LayerCount: 2
Fore
SplineSet
628.504134968 26.0458984375 m 1
 694.47566758 -27.7890625 772.460405315 -77 889.578664217 -77 c 0
 1198.31347656 -77 1357 218.1484375 1357 541.15625 c 0
 1357 863.069335938 1195.40234375 1153 891.442256056 1153 c 0
 775.009730283 1153 699.624865299 1111.58496094 638.750075159 1050.99121094 c 1
 638.750075159 1132 l 1
 40 1132 l 1
 40 742.9609375 l 1
 114 742.9609375 l 1
 114 -94 l 1
 30 -94 l 1
 30 -457 l 1
 731.899147719 -457 l 1
 731.899147719 -96 l 1
 628.504134968 -96 l 1
 628.504134968 26.0458984375 l 1
630.455470129 388.0234375 m 0
 628.533700653 659.594726562 l 1
 639.92221148 707.038085938 672.28900588 739 722.842511021 739 c 0
 805.469061183 739 846.056069537 688.252929688 846.056069537 548.157226562 c 0
 846.056069537 404.999023438 811.300177103 310 720.048076993 310 c 0
 667.861783096 310 630.732052336 348.9921875 630.455470129 388.0234375 c 0
EndSplineSet
EndChar

StartChar: q
Encoding: 113 113 84
Width: 1301
GlyphClass: 2
Flags: HW
LayerCount: 2
Fore
SplineSet
715.915995253 117.78515625 m 0
 653.949685703 43.4013671875 574.966622679 -17 449.243817155 -17 c 0
 171.848632812 -17 40 247.004882812 40 572.879882812 c 0
 40 866.096679688 204.368164062 1092 454.673320428 1092 c 0
 581.448561624 1092 636.78937506 1058.73730469 713.053408253 988.708007812 c 0
 721.019405088 981.390625 l 1
 755.454111542 981.390625 l 1
 814.121458326 1071.32617188 l 1
 1257 1071.32617188 l 1
 1257 806.520507812 l 1
 1163 806.520507812 l 1
 1163 -154 l 1
 1267 -154 l 1
 1267 -398 l 1
 662.998540921 -398 l 1
 662.998540921 -156 l 1
 765.821601157 -156 l 1
 765.821601157 177.692382812 l 1
 715.915995253 117.78515625 l 0
765.821601157 523.661132812 m 1
 761.013862048 642.536132812 742.218330668 828 611.42443944 828 c 0
 500.182844537 828 451.94763563 718.868164062 451.94763563 554.495117188 c 1
 454.079126847 427.557617188 484.534162366 269 617.836025865 269 c 0
 731.959221962 269 765.821601157 419.155273438 765.821601157 523.661132812 c 1
EndSplineSet
EndChar

StartChar: r
Encoding: 114 114 85
Width: 864
GlyphClass: 2
Flags: HW
LayerCount: 2
Fore
SplineSet
626.82720586 1155.54589844 m 1
 61 1088.65039062 l 1
 61 761 l 1
 140 761 l 1
 140 305 l 1
 61 305 l 1
 61 -60 l 1
 735 -60 l 1
 735 305 l 1
 611.487155332 305 l 1
 611.487155332 426 l 0
 611.487155332 502.000976562 628.386376805 554.889648438 658.237210645 589.881835938 c 0
 688.386134941 625.052734375 736.984375 643.3984375 803.028320312 644 c 1
 940 634.952148438 l 1
 940 1143 l 1
 910 1143 l 0
 838.99609375 1143 770.553710938 1124.92871094 704.958984375 1089.09765625 c 1
 671.727428819 1069.29980469 642.958449744 1043.37402344 620.74931793 1016.51367188 c 1
 626.82720586 1155.54589844 l 1
EndSplineSet
EndChar

StartChar: s
Encoding: 115 115 86
Width: 916
GlyphClass: 2
Flags: HW
LayerCount: 2
Fore
SplineSet
705.413557625 801.065429688 m 1
 714.346368459 775.168945312 l 1
 701.372212752 780.004882812 687.65630304 784.526367188 674.239337007 788.373046875 c 1
 608.635212256 808.32421875 539.627800551 830.174804688 539.627800551 873.479492188 c 0
 539.627800551 900.977539062 560.21100711 920 592.691237929 920 c 0
 655.582448785 920 679.995871242 868.815429688 705.413557625 801.065429688 c 1
342.296011656 361.927734375 m 0
 338.721766284 385.400390625 l 1
 381.322174866 367.157226562 424.111291647 351.489257812 462.250900007 334.80078125 c 0
 501.436811246 317.58984375 531.080813903 294.032226562 531.080813903 259.858398438 c 0
 531.080813903 231.395507812 503.481772856 209 464.010930922 209 c 0
 403.519677297 209 354.006196117 285.01171875 342.296011656 361.927734375 c 0
68.5595703125 753.018554688 m 0
 68.5595703125 534.932617188 202.455078125 450.84765625 335.007391061 394.405273438 c 1
 65.1103515625 394.405273438 l 1
 57 -51 l 1
 282.498046875 -51 l 1
 309.150631149 -0.85546875 l 1
 375.860847515 -54.5810546875 462.628316403 -78 571.682036626 -78 c 0
 834.580078125 -78 989.559570312 90.19921875 989.559570312 390.94140625 c 0
 989.559570312 559.555664062 897.583984375 687.713867188 748.586914062 754.661132812 c 1
 969.559570312 754.661132812 l 1
 969.559570312 1141 l 1
 754.016601562 1141 l 1
 733.678682558 1104.02929688 l 1
 669.830851927 1136.83105469 568.688863032 1152 485.895476688 1152 c 0
 259.540039062 1152 68.5595703125 1029.25878906 68.5595703125 753.018554688 c 0
EndSplineSet
EndChar

StartChar: t
Encoding: 116 116 87
Width: 773
GlyphClass: 2
Flags: HW
LayerCount: 2
Fore
SplineSet
848 -0.23046875 m 1
 848 355.397460938 l 1
 811.493164062 347.28515625 l 0
 770.978515625 338.283203125 736.896484375 334 710 334 c 0
 660.916992188 334 642 360.022460938 642 414.857421875 c 0
 642 732.520507812 l 1
 815 732.520507812 l 1
 815 1132 l 1
 643 1132 l 1
 643 1473.48535156 l 1
 156 1355.01074219 l 1
 156 1132 l 1
 33 1132 l 1
 33 742.388671875 l 1
 161 742.388671875 l 1
 161 377.607421875 l 0
 159.608398438 82.41796875 295.82572607 -78 523.611418423 -78 c 0
 605.133789062 -78 729.379882812 -54.73046875 793.524414062 -25.2607421875 c 0
 848 -0.23046875 l 1
EndSplineSet
EndChar

StartChar: u
Encoding: 117 117 88
Width: 1331
GlyphClass: 2
Flags: HW
LayerCount: 2
Fore
SplineSet
1407 -60 m 1
 1407 323.2265625 l 1
 1310.94433594 323.2265625 l 1
 1309.4375 1155.28125 l 1
 689.907582526 1087.38574219 l 1
 689.907582526 742.171875 l 1
 779.88021523 742.171875 l 1
 782.003958969 432.879882812 l 0
 782.399296158 375.2578125 753.35060706 338 713.454973206 338 c 0
 686.474642444 338 657.996995951 376.426757812 657.996995951 432.899414062 c 0
 657.996995951 1155.31152344 l 1
 33 1086.80859375 l 1
 33 748.30078125 l 1
 129 748.30078125 l 1
 129 380.748046875 l 0
 129 86.4228515625 249.455078125 -78 475.970958238 -78 c 0
 605.662564458 -78 710.509042704 -31.783203125 782.003004049 41.3876953125 c 1
 782.003004049 -60 l 1
 1407 -60 l 1
EndSplineSet
EndChar

StartChar: v
Encoding: 118 118 89
Width: 1257
GlyphClass: 2
Flags: HW
LayerCount: 2
Fore
SplineSet
1092.48632812 791 m 1
 805.674965677 30 l 1
 462.731258391 30 l 1
 131.423828125 792 l 1
 35 792 l 1
 35 1042 l 1
 590.753035178 1042 l 1
 587.777815046 791 l 1
 466.432489178 791 l 1
 684.363805016 199.400390625 l 1
 869.93117924 792 l 1
 749.314711126 792 l 1
 749.314711126 1042 l 1
 1216 1042 l 1
 1216 791 l 1
 1092.48632812 791 l 1
EndSplineSet
EndChar

StartChar: w
Encoding: 119 119 90
Width: 1851
GlyphClass: 2
Flags: HW
LayerCount: 2
Fore
SplineSet
1356.7710208 761 m 2
 1384.75023847 761 1416.82345914 760.629882812 1437.00077031 760.341796875 c 1
 1434.50315888 734.880859375 1431.39895716 708.190429688 1428.21676526 689.544921875 c 1
 1372.05517033 481.354492188 l 1
 1327.27051322 624.435546875 1267.62631977 834.59765625 1237.16104478 940.997070312 c 1
 1188.01182613 1132 l 1
 889.393205274 1132 l 1
 710.170809582 497.674804688 l 1
 640.444700444 761 l 1
 739.947652743 761 l 1
 739.947652743 1132 l 1
 35 1132 l 1
 35 761 l 1
 112.287109375 761 l 1
 366.677987331 -60 l 1
 834.266665199 -60 l 1
 955.97948755 326.80078125 l 1
 1060.76651523 -60 l 1
 1559.87574262 -60 l 1
 1780.5859375 759.799804688 l 1
 1930 759.799804688 l 1
 1930 1132 l 1
 1327.60558214 1132 l 1
 1327.60558214 761 l 1
 1356.7710208 761 l 2
EndSplineSet
EndChar

StartChar: x
Encoding: 120 120 91
Width: 1111
GlyphClass: 2
Flags: HW
LayerCount: 2
Fore
SplineSet
756.341212925 582.291015625 m 1
 965.3125 275 l 1
 1062 275 l 1
 1062 30 l 1
 672.90034005 30 l 1
 489.037133493 329.801757812 l 1
 287.114257812 30 l 1
 56 30 l 1
 56 275 l 1
 170.77734375 275 l 1
 367.99452169 510.390625 l 1
 170.338867188 791 l 1
 76 791 l 1
 76 1042 l 1
 481.494413232 1042 l 1
 641.051523356 766.958984375 l 1
 823.534179688 1042 l 1
 1031 1042 l 1
 1031 791 l 1
 937.5390625 791 l 1
 756.341212925 582.291015625 l 1
EndSplineSet
EndChar

StartChar: y
Encoding: 121 121 92
Width: 1326
GlyphClass: 2
Flags: HW
LayerCount: 2
Fore
SplineSet
368.370638293 -437 m 1
 1087.97881987 -437 l 1
 1087.97881987 -82 l 1
 888.712696982 -82 l 1
 1274.68945312 759.984375 l 1
 1405 761.298828125 l 1
 1405 1132 l 1
 789.459655648 1132 l 1
 789.459655648 761.243164062 l 1
 913.395862491 760.182617188 l 1
 814.44741014 520.716796875 l 1
 699.88471441 761 l 1
 744.010969133 761 l 1
 744.010969133 1132 l 1
 35 1132 l 1
 35 761 l 1
 136.243164062 761 l 1
 565.021497157 13.3076171875 l 1
 368.370638293 -437 l 1
EndSplineSet
EndChar

StartChar: z
Encoding: 122 122 93
Width: 1074
GlyphClass: 2
Flags: HW
LayerCount: 2
Fore
SplineSet
82 617.6484375 m 1
 337.241780498 617.6484375 l 1
 337.241780498 647.831054688 l 0
 337.241780498 753.203125 384.877683653 754.862304688 496.386490289 754.936523438 c 1
 56 282.221679688 l 1
 56 -60 l 1
 1141 -60 l 1
 1141 469.625976562 l 1
 904.958984375 469.625976562 l 1
 899.01171875 447.21484375 l 0
 871.212073692 330.091796875 852.618927509 310.952148438 722.985558629 310.952148438 c 0
 686.835630338 310.952148438 l 1
 1104 796.521484375 l 1
 1104 1132 l 1
 82 1132 l 1
 82 617.6484375 l 1
EndSplineSet
EndChar

StartChar: braceleft
Encoding: 123 123 94
Width: 783
GlyphClass: 2
Flags: HW
LayerCount: 2
Fore
SplineSet
111.818359375 954.42578125 m 0
 139.268554688 966.190429688 161.806640625 983.340820312 176.134765625 1006.91699219 c 0
 187.809570312 1026.12304688 196.21875 1045.56347656 200.741210938 1065.29882812 c 0
 205.052734375 1084.11230469 207 1104.96777344 207 1128 c 0
 207 1203.32226562 219.556640625 1273.00097656 244.493164062 1337.71289062 c 0
 269.556640625 1402.75097656 302.064813173 1460.53027344 340.282851441 1511.5703125 c 0
 377.40384855 1561.14746094 427.075138538 1600.94921875 489.537109375 1629.98242188 c 1
 558.298828125 1656.01757812 642.5625 1670.81445312 733 1673.55859375 c 1
 733 1400.9609375 l 1
 618.560546875 1384.3515625 571 1280.53417969 571 1127 c 0
 571 1015.640625 500.515625 930.588867188 372.222192975 870.857421875 c 0
 313.050313525 842.850585938 l 1
 372.335802415 815.088867188 l 0
 500.553710938 756.0390625 571 671.323242188 571 560 c 0
 571 404.150390625 621.711914062 302.215820312 733 286.044921875 c 1
 733 13.4326171875 l 1
 636.4453125 16.2958984375 559.418945312 30.5625 489.536132812 57.017578125 c 1
 427.08046398 86.0478515625 377.402073402 125.85546875 340.282851441 175.4296875 c 0
 302.065700747 226.469726562 269.556640625 284.249023438 244.493164062 349.287109375 c 0
 219.556640625 413.999023438 207 483.677734375 207 559 c 0
 207 582.032226562 205.052734375 602.889648438 200.741210938 621.701171875 c 0
 196.219726562 641.436523438 187.80859375 660.87890625 176.134765625 680.083007812 c 0
 161.821289062 703.631835938 139.248046875 720.818359375 111.818359375 732.57421875 c 0
 91.1328125 741.439453125 67.4404296875 746.818359375 42 749.810546875 c 1
 42 937.131835938 l 1
 69.5751953125 940.165039062 90.814453125 945.423828125 111.818359375 954.42578125 c 0
EndSplineSet
EndChar

StartChar: bar
Encoding: 124 124 95
Width: 485
GlyphClass: 2
Flags: HW
LayerCount: 2
Fore
SplineSet
75 20 m 1
 75 1603 l 1
 410 1603 l 1
 410 20 l 1
 75 20 l 1
EndSplineSet
EndChar

StartChar: braceright
Encoding: 125 125 96
Width: 789
GlyphClass: 2
Flags: HW
LayerCount: 2
Fore
SplineSet
296.463867188 1629.98242188 m 1
 358.91953602 1600.95214844 408.597926598 1561.14453125 445.717148559 1511.5703125 c 0
 483.934299253 1460.53027344 516.443359375 1402.75097656 541.506835938 1337.71289062 c 0
 566.443359375 1273.00097656 579 1203.32226562 579 1128 c 0
 579 1104.96777344 580.947265625 1084.11035156 585.258789062 1065.29882812 c 0
 589.780273438 1045.56347656 598.19140625 1026.12109375 609.865234375 1006.91699219 c 0
 624.178710938 983.368164062 646.751953125 966.181640625 674.181640625 954.42578125 c 0
 694.8671875 945.560546875 718.559570312 940.181640625 744 937.189453125 c 1
 744 749.868164062 l 1
 716.424804688 746.834960938 695.185546875 741.576171875 674.181640625 732.57421875 c 0
 646.731445312 720.809570312 624.193359375 703.658203125 609.865234375 680.083007812 c 0
 598.190429688 660.876953125 589.780273438 641.436523438 585.258789062 621.702148438 c 0
 580.947265625 602.888671875 579 582.032226562 579 559 c 0
 579 483.677734375 566.443359375 413.999023438 541.506835938 349.287109375 c 0
 516.443359375 284.249023438 483.935186827 226.469726562 445.717148559 175.4296875 c 0
 408.59615145 125.852539062 358.924861462 86.05078125 296.462890625 57.017578125 c 1
 227.701171875 30.982421875 143.4375 16.185546875 53 13.44140625 c 1
 53 286.0390625 l 1
 167.439453125 302.6484375 215 406.465820312 215 560 c 0
 215 671.331054688 285.418945312 756.028320312 413.690824798 815.1015625 c 0
 472.949686475 842.849609375 l 1
 413.752067387 870.870117188 l 0
 285.510742188 930.578125 215 1015.64941406 215 1127 c 0
 215 1282.84960938 164.288085938 1384.78417969 53 1400.95507812 c 1
 53 1673.56738281 l 1
 149.5546875 1670.70410156 226.581054688 1656.4375 296.463867188 1629.98242188 c 1
EndSplineSet
EndChar

StartChar: asciitilde
Encoding: 126 126 97
Width: 1192
GlyphClass: 2
Flags: HW
LayerCount: 2
Fore
SplineSet
1032.09960938 837.251953125 m 0
 1016.49121094 806.989257812 997.765625 776.553710938 975.8671875 745.9609375 c 0
 955.390625 717.353515625 932.127929688 696.166992188 905.391601562 681.056640625 c 1
 880.304225222 666.338867188 854.115241824 659 823.207897048 659 c 0
 793.52169744 659 762.067528956 665.202148438 728.543174695 678.193359375 c 0
 693.914784315 691.610351562 661.620075074 707.682617188 631.569326328 726.400390625 c 0
 600.222822616 745.923828125 569.63941658 765.606445312 539.822885934 785.4453125 c 0
 508.476382221 806.3046875 476.100452187 824.083007812 442.733817372 838.736328125 c 0
 408.338700663 853.840820312 375.456557319 862 344.105331467 862 c 0
 315.889605972 862 290.268554688 844.188476562 264.754882812 820.20703125 c 1
 240.381835938 798.102539062 193.4140625 745.796875 132.459960938 673.696289062 c 1
 48 729.142578125 l 1
 62.0380859375 753.321289062 73.8828125 776.188476562 88.763671875 806.927734375 c 0
 108.956054688 848.637695312 127.283203125 884.787109375 143.685546875 915.293945312 c 0
 159.682617188 945.049804688 178.66015625 975.309570312 200.65625 1006.0390625 c 0
 221.08203125 1034.57324219 244.267578125 1055.43359375 271.3046875 1070.25878906 c 1
 296.731887681 1084.81445312 323.098423508 1092 354.12476619 1092 c 0
 383.899742013 1092 415.426631438 1085.92480469 448.992540523 1073.22949219 c 0
 483.547265534 1060.15820312 515.772087117 1044.27929688 545.762392482 1025.59960938 c 0
 577.295892902 1005.95996094 608.373234686 986.486328125 638.995362262 967.181640625 c 0
 670.872634408 947.083984375 703.611224724 929.887695312 737.179022665 915.6328125 c 0
 771.806468617 900.927734375 804.723555791 893 835.959561448 893 c 0
 863.653962788 893 889.01171875 911.329101562 915.721679688 935.44140625 c 1
 942.161132812 958.448242188 987.046875 1008.07128906 1045.12304688 1077.2109375 c 1
 1127.31347656 1023.05371094 l 1
 1113.69335938 1000.00097656 1101.5 976.779296875 1086.80078125 946.657226562 c 0
 1066.54394531 905.14453125 1048.30078125 868.6640625 1032.09960938 837.251953125 c 0
EndSplineSet
EndChar

StartChar: exclamdown
Encoding: 161 161 99
Width: 633
GlyphClass: 2
Flags: HW
LayerCount: 2
Fore
SplineSet
54 -60 m 1
 701 -60 l 1
 701 270.625976562 l 1
 613.9296875 1071.87109375 l 1
 139.020507812 1074.12890625 l 1
 54 270.58203125 l 1
 54 -60 l 1
563.907226562 1563.85839844 m 0
 610.247070312 1525.62792969 633 1475.96484375 633 1408 c 0
 633 1338.828125 609.524414062 1288.00878906 561.50390625 1248.71777344 c 0
 512.3359375 1208.49121094 451.784179688 1188 376 1188 c 0
 302.364257812 1188 244.25 1208.35253906 197.48828125 1248.30761719 c 0
 151.70703125 1287.42480469 129 1338.42871094 129 1408 c 0
 129 1476.2578125 151.213867188 1526.06152344 195.950195312 1564.16015625 c 0
 241.434570312 1602.89453125 300.03515625 1623 376 1623 c 0
 455.543945312 1623 516.842773438 1602.68847656 563.907226562 1563.85839844 c 0
EndSplineSet
EndChar

StartChar: cent
Encoding: 162 162 100
Width: 982
GlyphClass: 2
Flags: HW
LayerCount: 2
Fore
SplineSet
542.560391779 1059.27050781 m 0
 573.740848176 1054.66796875 l 1
 573.740848176 1332 l 1
 617.685299225 1332 l 1
 617.685299225 1038.07421875 l 1
 633.330288599 1029.92675781 l 0
 660.532670455 1015.75878906 688.866210938 996.419921875 718.344726562 971.6796875 c 0
 746.0234375 948.447265625 l 1
 792.319335938 1042 l 1
 919 1042 l 1
 919 658 l 1
 739.608398438 658 l 1
 736.385742188 685.043945312 729.967773438 706.331054688 718.766601562 727.790039062 c 0
 703.795898438 756.467773438 683.029296875 779.018554688 657.538440761 792.799804688 c 0
 617.685299225 814.674804688 l 1
 617.685299225 259.15625 l 1
 656.187974485 277.509765625 l 0
 671.164691888 284.6484375 684.893554688 295.365234375 696.671875 308.883789062 c 0
 707.243164062 321.018554688 715.91015625 333.37109375 722.307617188 346.276367188 c 0
 728.176757812 358.118164062 732.900390625 370.6640625 736.493164062 383.813476562 c 0
 737.595703125 387.846679688 738.751953125 392.147460938 739.513671875 395 c 1
 921 395 l 1
 921 136.803710938 l 1
 855.887695312 77.296875 762.999023438 39.23828125 641.234460971 20.689453125 c 0
 617.685299225 16.96875 l 1
 617.685299225 -231 l 1
 573.740848176 -231 l 1
 573.740848176 12 l 1
 534.765741758 12 l 0
 445.466043275 12 367.597508125 32.0751953125 298.918640736 72.0546875 c 1
 223.092773438 111.815429688 162.087890625 171.383789062 115.590820312 253.309570312 c 0
 69.5537109375 334.418945312 46 431.419921875 46 546 c 0
 46 615.31640625 57.5556640625 680.985351562 80.6484375 743.623046875 c 0
 103.81640625 806.465820312 135.92578125 861.125 177.096679688 908.265625 c 0
 217.782226562 954.853515625 268.848632812 992.108398438 326.452374111 1020.3125 c 0
 380.960163085 1048.04980469 440.342624828 1062 505.617945941 1062 c 0
 517.920647302 1062 530.222420508 1061.09277344 542.560391779 1059.27050781 c 0
573.740848176 260.583007812 m 1
 573.740848176 814.474609375 l 1
 531.194199333 784.10546875 l 0
 464.664940119 736.62109375 437.49411555 641.452148438 437.49411555 513 c 0
 437.49411555 465.165039062 444.460850851 420.159179688 458.653276843 378.534179688 c 0
 473.499124318 334.983398438 498.66977375 301.305664062 534.004654235 282.13671875 c 0
 573.740848176 260.583007812 l 1
EndSplineSet
EndChar

StartChar: sterling
Encoding: 163 163 101
Width: 1119
GlyphClass: 2
Flags: HW
LayerCount: 2
Fore
SplineSet
857 963 m 1
 857 790 l 1
 625.86392638 790 l 1
 625.86392638 342.678710938 l 1
 674.31761552 327.098632812 l 1
 697.276995352 320.7421875 728.779991507 315.495117188 774.255232677 309.708984375 c 0
 820.087360278 303.87890625 872.333984375 301 930 301 c 0
 972.55859375 301 1023.88867188 303.376953125 1075 307.3515625 c 1
 1075 50.6865234375 l 1
 991.583007812 24.326171875 913.193359375 12 833.69921875 12 c 0
 685.911245431 12 632.18712528 61.2529296875 632.18712528 153 c 0
 632.18712528 263.680664062 l 1
 580.034623738 168.154296875 l 0
 522.816971507 63.3525390625 431.305264068 11 295.392741363 11 c 0
 231.461914062 11 145.21875 24.8837890625 44 51.8828125 c 1
 44 303.423828125 l 1
 71.02734375 298.717773438 89.330078125 297 110 297 c 0
 158.078125 297 199.372070312 314.405273438 221.96875 353.481445312 c 0
 243.146484375 390.099609375 250 445.084960938 250 520 c 0
 250 790 l 1
 126 790 l 1
 126 963 l 1
 250 963 l 1
 250 1207 l 0
 250 1260.28515625 260.768554688 1306.86523438 282.303710938 1349.02636719 c 1
 302.81484914 1392.15917969 328.164143909 1426.51269531 359.499525857 1453.67382812 c 0
 391.66544562 1481.55371094 430.090531889 1505.28222656 475.12696283 1524.66113281 c 0
 520.52969673 1544.19824219 566.822292575 1558.08691406 614.141290029 1566.39453125 c 0
 661.94147209 1574.78808594 711.279373257 1579 762.207726092 1579 c 0
 865.484375 1579 962.568359375 1565.48242188 1041 1541.28417969 c 1
 1041 1285.19042969 l 1
 969.547851562 1292.02050781 914.724609375 1295 863 1295 c 0
 791.207808967 1295 735.010908427 1283.81835938 692.958575374 1257.37402344 c 0
 647.518175359 1228.80078125 625.86392638 1178.36035156 625.86392638 1117 c 0
 625.86392638 963 l 1
 857 963 l 1
EndSplineSet
EndChar

StartChar: currency
Encoding: 164 164 102
Width: 1119
GlyphClass: 2
Flags: HW
LayerCount: 2
Fore
SplineSet
104.426757812 660 m 1
 176.676757812 732.250976562 l 1
 158.956054688 753.314453125 l 0
 82.6044921875 844.059570312 44 957.291992188 44 1097 c 0
 44 1231.49902344 80.38671875 1341.68164062 152.376953125 1431.19824219 c 0
 169.125 1452.02148438 l 1
 104.26953125 1517.84472656 l 1
 164.850585938 1578.42578125 l 1
 232.270507812 1510.05566406 l 1
 253.106445312 1524.35546875 l 1
 343.898698909 1591.00488281 443.385151701 1624 558 1624 c 0
 676.12368706 1624 777.197449257 1589.42480469 868.366210938 1519.72949219 c 1
 889.1875 1504.75976562 l 1
 963 1578.57324219 l 1
 1023.57324219 1518 l 1
 952.09765625 1446.52246094 l 1
 968.284179688 1425.62792969 l 0
 1037.17871094 1336.69042969 1072 1228.28027344 1072 1097 c 0
 1072 960.512695312 1034.96191406 849.440429688 961.782226562 759.998046875 c 0
 944.587890625 738.986328125 l 1
 1023.57226562 660 l 1
 963 599.427734375 l 1
 880.6328125 681.793945312 l 1
 859.958007812 667.688476562 l 1
 770.695694365 602.383789062 672.097984204 570 558 570 c 0
 446.143643134 570 349.523950209 600.83984375 262.712890625 662.9140625 c 1
 242.12109375 676.548828125 l 1
 165 599.427734375 l 1
 104.426757812 660 l 1
811.805689895 777.194335938 m 0
 849.055664062 812.221679688 880.072265625 857.829101562 903.165039062 912.8984375 c 0
 926.5390625 968.633789062 938 1030.25195312 938 1097 c 0
 938 1163.72070312 926.3125 1225.42773438 902.665039062 1280.6015625 c 1
 880.107421875 1335.59375 849.038085938 1381.79492188 811.821694794 1416.79003906 c 0
 776.636336324 1450.77246094 737.121181916 1477.10058594 693.689534552 1495.41699219 c 0
 650.182570016 1513.765625 604.755959053 1523 558 1523 c 0
 511.244040947 1523 465.817429984 1513.765625 422.310465448 1495.41699219 c 0
 378.889174195 1477.10449219 339.344834383 1450.75390625 304.194310105 1416.80566406 c 0
 266.944335938 1381.77832031 235.927734375 1336.17089844 212.834960938 1281.1015625 c 0
 189.4609375 1225.36621094 178 1163.74804688 178 1097 c 0
 178 1030.25195312 189.4609375 968.633789062 212.834960938 912.8984375 c 0
 235.923828125 857.837890625 266.9609375 812.206054688 304.178305206 777.209960938 c 0
 339.363663676 743.227539062 378.878818084 716.899414062 422.310465448 698.583007812 c 0
 465.817429984 680.234375 511.244040947 671 558 671 c 0
 604.755959053 671 650.182570016 680.234375 693.689534552 698.583007812 c 0
 737.110825805 716.895507812 776.655165617 743.24609375 811.805689895 777.194335938 c 0
EndSplineSet
EndChar

StartChar: yen
Encoding: 165 165 103
Width: 1550
GlyphClass: 2
Flags: HW
LayerCount: 2
Fore
SplineSet
172.184570312 1264.85058594 m 1
 362.620620336 969.388671875 l 1
 157 969.388671875 l 1
 157 730.452148438 l 1
 517.67332085 730.452148438 l 1
 563.717147262 659.294921875 l 1
 563.717147262 655.977539062 l 1
 157 655.977539062 l 1
 157 417.04296875 l 1
 563.717147262 417.04296875 l 1
 563.717147262 390.706054688 l 1
 416.964916621 390.706054688 l 1
 416.964916621 -60 l 1
 1297.58857704 -60 l 1
 1297.58857704 390.706054688 l 1
 1148.94150716 390.706054688 l 1
 1148.94150716 417.04296875 l 1
 1550 417.04296875 l 1
 1550 655.977539062 l 1
 1148.94150716 655.977539062 l 1
 1148.94150716 730.452148438 l 1
 1550 730.452148438 l 1
 1550 969.388671875 l 1
 1269.34338988 969.388671875 l 1
 1338.28830473 1086.79882812 l 1
 1338.74763064 1087.71289062 l 0
 1354.45676851 1118.98144531 1365.82196825 1141.16308594 1372.43472706 1153.52246094 c 0
 1378.52007616 1164.79492188 1388.44238281 1179.91894531 1401.65429688 1198.0703125 c 0
 1413.94238281 1214.95214844 1424.93945312 1225.27832031 1431.0703125 1229.04589844 c 0
 1440.05175781 1237.73535156 1452.72167969 1246.78125 1468.76367188 1255.08007812 c 0
 1482.72070312 1259.98339844 1500.11523438 1262.80175781 1521 1262.80175781 c 0
 1625 1262.80175781 l 1
 1625 1682 l 1
 950.956697511 1682 l 1
 950.956697511 1272 l 1
 979.88655837 1272 l 0
 1022.06303323 1272 1051.08399213 1268.52929688 1054.82860106 1267.74414062 c 1
 1060.75860403 1264.44824219 1061.73191467 1268.46386719 1061.73191467 1241 c 0
 1061.73191467 1224.04199219 1035.54170751 1158.25488281 982.439221356 1068.63574219 c 1
 966.661040754 1094.21972656 946.793996527 1126.77929688 920.578857272 1169.97851562 c 0
 897.277896384 1212.46386719 877.029199314 1248.84960938 862.782424718 1274 c 1
 923.604271141 1274 l 1
 923.604271141 1682 l 1
 46 1682 l 1
 46 1264.85058594 l 1
 172.184570312 1264.85058594 l 1
EndSplineSet
EndChar

StartChar: brokenbar
Encoding: 166 166 104
Width: 484
GlyphClass: 2
Flags: HW
LayerCount: 2
Fore
SplineSet
410 30 m 1
 75 30 l 1
 75 691 l 1
 410 691 l 1
 410 30 l 1
410 932 m 1
 75 932 l 1
 75 1593 l 1
 410 1593 l 1
 410 932 l 1
EndSplineSet
EndChar

StartChar: section
Encoding: 167 167 105
Width: 900
GlyphClass: 2
Flags: HW
LayerCount: 2
Fore
SplineSet
234.984375 581.56640625 m 0
 198.97265625 605.249023438 166.009765625 629.982421875 136.064453125 655.743164062 c 0
 107.6953125 680.146484375 84.931640625 708.209960938 67.3173828125 740.399414062 c 0
 50.2041015625 771.678710938 42 803.381835938 42 837 c 0
 42 886.875976562 57.880859375 931.7265625 91.5546875 974.421875 c 0
 125.275390625 1017.17382812 169.4296875 1048.42382812 226.127929688 1068.76074219 c 0
 279.764648438 1088 l 1
 233.548828125 1121.33105469 l 0
 127.588867188 1197.75195312 81 1275.71191406 81 1356 c 0
 81 1425.33496094 109.37109375 1482.59082031 171.352539062 1532.66503906 c 0
 233.48828125 1582.86230469 304.980878958 1608 383.678305591 1608 c 0
 411.918590733 1608 438.61322743 1605.76757812 463.784296373 1601.36230469 c 0
 489.471501493 1596.86816406 509.406686327 1591.71289062 522.610940191 1586.63574219 c 0
 537.256879242 1581.00488281 550.6874602 1574.80371094 562.901763036 1568.08886719 c 0
 574.95138071 1561.46289062 583.57205091 1555.91015625 584.692646033 1555.10058594 c 1
 588.393002014 1551.95800781 588.426123053 1551.79882812 589.040702315 1551.1953125 c 1
 615.13671875 1520.66992188 l 1
 651.329101562 1593 l 1
 771 1593 l 1
 771 1330 l 1
 621.46484375 1330 l 1
 591.045445151 1407.71484375 l 1
 590.674673529 1408.53515625 l 0
 579.274596214 1433.74414062 563.510822126 1454.8984375 543.666720148 1470.84765625 c 0
 523.990983446 1486.6640625 502.082336758 1496 479.017213822 1496 c 0
 453.393490691 1496 430.042238787 1484.26367188 411.364733374 1464.04296875 c 0
 390.680645067 1441.65039062 381.497837248 1410.82910156 381.497837248 1377 c 0
 381.497837248 1348.14550781 394.091191965 1322.10351562 412.98858427 1299.51464844 c 0
 431.233676131 1277.70507812 454.281318519 1257.52929688 481.916224686 1238.47558594 c 0
 508.308171896 1220.27734375 537.208117714 1201.1171875 568.635382746 1180.98046875 c 0
 599.292583643 1161.33691406 632.291992188 1139.64355469 668.5703125 1115.8984375 c 0
 704.130859375 1092.62207031 736.650390625 1067.97753906 766.17578125 1041.98242188 c 0
 794.135742188 1017.3671875 816.576171875 988.756835938 833.916015625 955.598632812 c 0
 850.8125 923.287109375 859 890.211914062 859 855 c 0
 859 791.116210938 842.150390625 735.200195312 808.129882812 684.778320312 c 0
 774.610351562 635.096679688 729.108398438 601.952148438 668.380859375 583.734375 c 0
 604.422664436 564.38671875 l 1
 661.40234375 529.374023438 l 0
 762.2421875 467.9921875 808 391.94140625 808 296 c 0
 808 224.442382812 778.54296875 160.404296875 714.489257812 100.393554688 c 0
 651.063476562 40.970703125 581.670351305 12 502.851480865 12 c 0
 450.575442365 12 405.688155451 17.3779296875 368.403066816 27.6298828125 c 0
 333.377569003 37.2587890625 303.807842191 56.740234375 275.612304688 88.8076171875 c 1
 246.866210938 118.106445312 l 1
 200.063476562 31 l 1
 78 31 l 1
 78 349 l 1
 245.01171875 349 l 1
 256.877929688 305.537109375 275.799804688 271.620117188 302.547402685 239.762695312 c 0
 334.918617304 200.182617188 376.540721876 179 423.685759555 179 c 0
 448.782306162 179 472.315723776 188.091796875 492.133144918 205.3359375 c 0
 514.753893926 225.01953125 525.461189527 254.504882812 525.461189527 287 c 0
 525.461189527 319.013671875 514.254318267 349.40625 495.129678839 376.907226562 c 0
 476.728182076 403.37109375 453.246286078 427.498046875 425.075923127 449.561523438 c 0
 398.096077491 470.69140625 368.488629497 492.063476562 336.239778714 513.709960938 c 0
 304.881515844 534.76171875 271.760742188 557.37890625 234.984375 581.56640625 c 0
562.280743571 939.439453125 m 0
 521.809595074 971.610351562 473.634125099 997.196289062 418.111304833 1016.625 c 2
 407.562254192 1020.31738281 l 1
 397.74094636 1014.66210938 l 0
 337.705384651 980.08984375 296.373089162 936.19140625 296.373089162 878 c 0
 296.373089162 831.48046875 324.03927631 791.774414062 365.387212289 757.02734375 c 0
 406.549302442 722.438476562 457.925552741 690.76953125 519.534363761 661.409179688 c 0
 532.975985065 655.00390625 l 1
 545.097364989 664.109375 l 0
 598.710205389 704.388671875 631.204101562 757.556640625 631.204101562 821 c 0
 631.204101562 867.842773438 603.055501585 907.025390625 562.280743571 939.439453125 c 0
EndSplineSet
EndChar

StartChar: dieresis
Encoding: 168 168 106
Width: 1069
GlyphClass: 2
Flags: HW
LayerCount: 2
Fore
SplineSet
117.012695312 1489.65136719 m 0
 156.415039062 1524.93457031 201.376953125 1542 256 1542 c 0
 308.664056773 1542 347.404025921 1525.61230469 382.245109661 1490.18457031 c 0
 415.625631816 1456.24316406 433.564060193 1408.77050781 433.564060193 1342 c 0
 433.564060193 1275.87988281 416.158956674 1228.88085938 383.090944172 1194.72167969 c 0
 348.476289583 1158.96679688 309.631526779 1142 258 1142 c 0
 202.817382812 1142 157.448242188 1159.46582031 117.705078125 1195.67480469 c 0
 79.771484375 1230.23632812 60 1277.79003906 60 1345 c 0
 60 1410.04980469 79.44921875 1456.01171875 117.012695312 1489.65136719 c 0
686.112093537 1490.03222656 m 0
 720.955984249 1525.16992188 760.340621515 1542 813 1542 c 0
 867.623046875 1542 911.859375 1525.38378906 951.260742188 1489.80566406 c 0
 988.984375 1455.74316406 1009 1408.48730469 1009 1342 c 0
 1009 1276.15917969 989.580078125 1229.37792969 952.220703125 1195.10742188 c 0
 913.090820312 1159.21386719 868.741210938 1142 815 1142 c 0
 761.619665516 1142 721.876671372 1159.23144531 686.729627583 1195.29199219 c 0
 653.154488637 1229.73828125 635.435939807 1277.51171875 635.435939807 1345 c 0
 635.435939807 1410.33691406 652.871920028 1456.51171875 686.112093537 1490.03222656 c 0
EndSplineSet
EndChar

StartChar: copyright
Encoding: 169 169 107
Width: 1652
GlyphClass: 2
Flags: HW
LayerCount: 2
Fore
SplineSet
281.385742188 241.037109375 m 1
 209.116210938 310.735351562 151.8203125 393.403320312 108.924804688 490.158203125 c 0
 66.2421875 586.4375 45 686.7421875 45 792 c 0
 45 897.236328125 66.1318359375 997.716796875 108.403320312 1093.79101562 c 0
 151.650390625 1190.61230469 209.034179688 1273.18554688 281.444335938 1343.02050781 c 1
 350.266038133 1412.71777344 431.587596637 1468.1796875 526.822549852 1509.86230469 c 0
 621.552310906 1551.32226562 720.675422378 1572 825 1572 c 0
 929.324577622 1572 1028.44768909 1551.32226562 1123.17745015 1509.86230469 c 0
 1218.44691364 1468.16503906 1299.67165164 1412.78222656 1368.61425781 1342.96289062 c 1
 1440.88378906 1273.26464844 1498.1796875 1190.59667969 1541.07519531 1093.84179688 c 0
 1583.7578125 997.5625 1605 897.2578125 1605 792 c 0
 1605 686.7421875 1583.7578125 586.436523438 1541.07519531 490.158203125 c 0
 1498.16503906 393.368164062 1440.94921875 310.797851562 1368.55566406 240.979492188 c 1
 1299.73396187 171.282226562 1218.41240336 115.8203125 1123.17745015 74.1376953125 c 0
 1028.44768909 32.677734375 929.324577622 12 825 12 c 0
 720.675422378 12 621.552310906 32.677734375 526.822549852 74.1376953125 c 0
 431.553086357 115.834960938 350.328348362 171.217773438 281.385742188 241.037109375 c 1
1491 792 m 0
 1491 915.745117188 1459.65039062 1031.11328125 1397.37695312 1136.17773438 c 1
 1337.42302253 1241.02441406 1256.77729035 1324.73828125 1155.64970676 1385.91210938 c 0
 1054.34382005 1447.19433594 943.598413039 1478 825 1478 c 0
 735.898290506 1478 650.31854685 1459.81054688 569.049712386 1423.55761719 c 0
 488.224718472 1387.50195312 417.864967087 1338.6640625 358.628070796 1277.20605469 c 0
 299.388298648 1215.74804688 251.194335938 1142.61132812 214.501953125 1058.49414062 c 0
 177.553710938 973.791015625 159 884.680664062 159 792 c 0
 159 699.319335938 177.553710938 610.208984375 214.501953125 525.505859375 c 0
 251.194335938 441.388671875 299.389257267 368.251953125 358.627112177 306.793945312 c 0
 417.864967087 245.3359375 488.224718472 196.498046875 569.049712386 160.442382812 c 0
 650.31854685 124.189453125 735.898290506 106 825 106 c 0
 943.598413039 106 1054.34286143 136.805664062 1155.64970676 198.087890625 c 0
 1256.75620073 259.249023438 1337.45849143 343.0390625 1397.33984375 447.758789062 c 1
 1459.62109375 552.8359375 1491 668.254882812 1491 792 c 0
1020.12304257 591.842773438 m 1
 1021.7479016 599.272460938 1023.08325773 613.920898438 1023.99778016 628 c 1
 1148.61727851 628 l 1
 1148.61727851 411.893554688 l 1
 1141.77849128 405.880859375 l 0
 1132.62368079 397.831054688 1116.17857356 386.141601562 1093.63856737 372.323242188 c 0
 1071.14553351 358.53125 1045.67982244 344.59765625 1017.27786167 330.591796875 c 0
 990.703028535 317.486328125 957.220387605 305.862304688 917.04179366 296.228515625 c 0
 877.404819393 286.72265625 837.931768958 282 798.463511617 282 c 0
 655.233385949 282 550.616429562 326.627929688 477.709627761 413.670898438 c 0
 404.052227361 501.608398438 365.857974538 622.232421875 365.857974538 780 c 0
 365.857974538 831.491210938 370.427710833 881.552734375 379.54417657 930.287109375 c 0
 388.559028703 978.484375 403.248904723 1024.67089844 423.690494141 1069.07617188 c 0
 444.022801005 1113.24804688 468.742706572 1151.24804688 497.844459131 1183.50683594 c 0
 526.142889052 1214.875 561.568650492 1240.15820312 605.105286443 1259.40332031 c 0
 647.982392591 1278.35644531 695.411979894 1288 748.234757127 1288 c 0
 847.498785577 1288 910.940184363 1266.46289062 943.98952955 1232.64648438 c 0
 972.844917052 1203.12304688 l 1
 1003.36734282 1269 l 1
 1142.9307512 1269 l 1
 1142.9307512 928 l 1
 1020.94266173 928 l 1
 1019.20564428 953.208984375 1015.59260965 971.98828125 1009.00018747 993.92578125 c 0
 999.168592039 1026.63964844 980.806247014 1055.40722656 955.259053336 1079.28320312 c 0
 927.411174298 1105.30859375 891.880923398 1118 852.484562475 1118 c 0
 827.038023781 1118 803.370681765 1113.38183594 782.369258909 1103.15332031 c 0
 761.315112014 1092.89941406 743.758965484 1077.23828125 730.819527575 1057.18261719 c 0
 719.673665628 1039.91015625 710.487220711 1022.06152344 703.370434 1003.66894531 c 0
 695.824186021 984.159179688 690.835533267 961.709960938 687.770828644 936.208984375 c 0
 684.857585808 911.952148438 683.037168517 891.040039062 682.359424955 873.177734375 c 0
 681.707564103 855.966796875 681.389302628 835.616210938 681.389302628 812 c 0
 681.389302628 807.877929688 681.234006367 795.915039062 680.920537986 777.015625 c 0
 680.600359274 757.736328125 680.578311039 743.836914062 680.937793127 734.321289062 c 0
 681.249344269 726.10546875 681.721943387 712.2890625 682.353673242 692.983398438 c 0
 683.013203045 672.827148438 684.260366233 656.853515625 686.638699723 643.89453125 c 0
 688.604827087 633.172851562 691.330180619 619.481445312 694.837767173 602.66015625 c 0
 698.662656583 584.3125 703.484509649 568.572265625 710.474758666 555.203125 c 0
 716.091306799 544.459960938 722.88695618 533.021484375 730.871292996 520.736328125 c 0
 740.318482253 506.198242188 751.848750379 493.94921875 765.615476398 485.045898438 c 0
 777.868543175 477.122070312 791.666903618 470.836914062 806.827461517 465.88671875 c 0
 823.368430633 460.484375 841.198742168 458 860.065320734 458 c 0
 898.659317638 458 934.099458362 469.967773438 963.629713568 493.842773438 c 0
 993.614354134 518.0859375 1012.81836655 552.530273438 1020.12304257 591.842773438 c 1
EndSplineSet
EndChar

StartChar: ordfeminine
Encoding: 170 170 108
Width: 876
GlyphClass: 2
Flags: HW
LayerCount: 2
Fore
SplineSet
390.447757602 889.9765625 m 0
 357.63043189 873.70703125 326.557533577 866 296.696879945 866 c 0
 226.263671875 866 165.774414062 885.71484375 115.360351562 924.727539062 c 0
 66.345703125 962.653320312 43 1010.77734375 43 1076 c 0
 43 1109.1640625 50.755859375 1137.90625 66.322265625 1164.22949219 c 0
 82.3037109375 1191.25390625 103.18359375 1212.71777344 129.999023438 1229.62304688 c 0
 157.947265625 1247.24121094 189.208984375 1260.71484375 224.19921875 1270.00488281 c 0
 259.430664062 1279.35839844 293.43258252 1284 325.093346477 1284 c 0
 382.821935261 1284 432.316753693 1275.0078125 473.829744192 1257.82714844 c 0
 509.454949905 1243.08300781 l 1
 509.454949905 1319 l 0
 509.454949905 1419.14941406 448.30688177 1471 352.655481954 1471 c 0
 291.786741284 1471 234.89453125 1446.10839844 194.828125 1401 c 1
 109 1401 l 1
 109 1579.80273438 l 1
 136.693359375 1587.00195312 l 0
 167.521484375 1595.18261719 212.627929688 1603.71484375 271.95703125 1612.33398438 c 1
 322.354841925 1620.83105469 367.792109446 1625 410.28457174 1625 c 0
 426.677259986 1625 441.481615593 1624.67285156 454.657473826 1624.02832031 c 0
 467.142316077 1623.41796875 486.404957093 1621.48242188 511.651230555 1618.19726562 c 0
 536.188231339 1615.00292969 557.544002667 1610.44824219 576.211914062 1604.5703125 c 1
 597.474609375 1598.66699219 621.758789062 1589.92480469 648.286132812 1578.09863281 c 0
 673.442382812 1566.88476562 693.46484375 1553.78320312 708.889648438 1539.20019531 c 0
 723.989257812 1524.92480469 737.40625 1505.93066406 748.780273438 1481.38476562 c 0
 759.4375 1458.39257812 765 1432.29785156 765 1402 c 0
 765 1044 l 1
 821 1044 l 1
 821 879 l 1
 534.348869115 879 l 1
 492.334732283 998.643554688 l 1
 464.029549236 954.6796875 l 0
 446.38353874 927.271484375 422.422536748 905.829101562 390.447757602 889.9765625 c 0
457.395065543 1197.88378906 m 0
 445.857745866 1200.56933594 434.605230664 1202 423.647561117 1202 c 0
 397.550525575 1202 374.535220487 1188.47265625 357.771921292 1165.72460938 c 0
 341.726110289 1143.953125 332.829621835 1117.95214844 332.829621835 1090 c 0
 332.829621835 1062.00976562 339.610159105 1035.93457031 355.058976116 1015.4921875 c 0
 370.900312113 994.530273438 393.393475665 984 417.801766734 984 c 0
 434.921071522 984 451.499978078 988.159179688 466.650298092 996.565429688 c 0
 478.644035194 1003.21972656 488.544641983 1009.01660156 496.368549487 1018.38476562 c 0
 511.125437681 1036.05371094 l 1
 511.125437681 1176.88476562 l 1
 486.207784766 1188.81835938 l 1
 477.188063607 1192.74804688 468.49605016 1195.29882812 457.395065543 1197.88378906 c 0
EndSplineSet
EndChar

StartChar: guillemotleft
Encoding: 171 171 109
Width: 1205
GlyphClass: 2
Flags: HW
LayerCount: 2
Fore
SplineSet
998.942382812 31.734375 m 1
 633.177962808 411.682617188 l 1
 633.177962808 656.317382812 l 1
 998.942382812 1036.265625 l 1
 1151.25097656 857.578125 l 1
 840.849764273 534 l 1
 1151.25097656 210.421875 l 1
 998.942382812 31.734375 l 1
434.684069751 31.818359375 m 1
 55 411.791992188 l 1
 55 656.208007812 l 1
 434.684069751 1036.18164062 l 1
 573.520140202 857.454101562 l 1
 284.049804688 534 l 1
 573.520140202 210.545898438 l 1
 434.684069751 31.818359375 l 1
EndSplineSet
EndChar

StartChar: logicalnot
Encoding: 172 172 110
Width: 1022
GlyphClass: 2
Flags: HW
LayerCount: 2
Fore
SplineSet
779.909179688 572 m 1
 779.909179688 791 l 1
 60.818359375 791 l 1
 60 1062 l 1
 950.909179688 1062 l 1
 950.909179688 572 l 1
 779.909179688 572 l 1
EndSplineSet
EndChar

StartChar: uni00AD
Encoding: 173 173 111
Width: 723
GlyphClass: 2
Flags: HW
LayerCount: 2
Fore
SplineSet
655 567 m 1
 68 567 l 1
 68 806 l 1
 655 806 l 1
 655 567 l 1
EndSplineSet
EndChar

StartChar: registered
Encoding: 174 174 112
Width: 1652
GlyphClass: 2
Flags: HW
LayerCount: 2
Fore
SplineSet
281.385742188 241.037109375 m 1
 209.116210938 310.735351562 151.8203125 393.403320312 108.924804688 490.158203125 c 0
 66.2421875 586.4375 45 686.7421875 45 792 c 0
 45 897.236328125 66.1318359375 997.716796875 108.403320312 1093.79101562 c 0
 151.650390625 1190.61230469 209.034179688 1273.18554688 281.444335938 1343.02050781 c 1
 350.266038133 1412.71777344 431.587596637 1468.1796875 526.822549852 1509.86230469 c 0
 621.552310906 1551.32226562 720.675422378 1572 825 1572 c 0
 929.324577622 1572 1028.44768909 1551.32226562 1123.17745015 1509.86230469 c 0
 1218.44691364 1468.16503906 1299.67165164 1412.78222656 1368.61425781 1342.96289062 c 1
 1440.88378906 1273.26464844 1498.1796875 1190.59667969 1541.07519531 1093.84179688 c 0
 1583.7578125 997.5625 1605 897.2578125 1605 792 c 0
 1605 686.7421875 1583.7578125 586.436523438 1541.07519531 490.158203125 c 0
 1498.16503906 393.368164062 1440.94921875 310.797851562 1368.55566406 240.979492188 c 1
 1299.73396187 171.282226562 1218.41240336 115.8203125 1123.17745015 74.1376953125 c 0
 1028.44768909 32.677734375 929.324577622 12 825 12 c 0
 720.675422378 12 621.552310906 32.677734375 526.822549852 74.1376953125 c 0
 431.553086357 115.834960938 350.328348362 171.217773438 281.385742188 241.037109375 c 1
1491 792 m 0
 1491 915.745117188 1459.65039062 1031.11328125 1397.37695312 1136.17773438 c 1
 1337.42302253 1241.02441406 1256.77729035 1324.73828125 1155.64970676 1385.91210938 c 0
 1054.34382005 1447.19433594 943.598413039 1478 825 1478 c 0
 735.898290506 1478 650.31854685 1459.81054688 569.049712386 1423.55761719 c 0
 488.224718472 1387.50195312 417.864967087 1338.6640625 358.628070796 1277.20605469 c 0
 299.388298648 1215.74804688 251.194335938 1142.61132812 214.501953125 1058.49414062 c 0
 177.553710938 973.791015625 159 884.680664062 159 792 c 0
 159 699.319335938 177.553710938 610.208984375 214.501953125 525.505859375 c 0
 251.194335938 441.388671875 299.389257267 368.251953125 358.627112177 306.793945312 c 0
 417.864967087 245.3359375 488.224718472 196.498046875 569.049712386 160.442382812 c 0
 650.31854685 124.189453125 735.898290506 106 825 106 c 0
 943.598413039 106 1054.34286143 136.805664062 1155.64970676 198.087890625 c 0
 1256.75620073 259.249023438 1337.45849143 343.0390625 1397.33984375 447.758789062 c 1
 1459.62109375 552.8359375 1491 668.254882812 1491 792 c 0
751.520902715 779 m 1
 751.520902715 538 l 1
 815.018860016 538 l 1
 815.018860016 392.990234375 l 1
 726.768404105 392.932617188 600.975556223 392.625 446.413596541 392.099609375 c 1
 446.413596541 535 l 1
 526.971135781 535 l 1
 526.971135781 1091 l 1
 445.466481068 1091 l 1
 445.466481068 1235 l 1
 951.047840509 1235 l 0
 1036.97556283 1235 1098.96848845 1216.00195312 1140.2581217 1182.40039062 c 0
 1179.50397946 1150.46386719 1201.69025528 1097.4375 1201.69025528 1014 c 0
 1201.69025528 966.40625 1188.01843253 930.84765625 1160.70450422 902.026367188 c 0
 1133.12887295 872.9296875 1092.56779006 852.104492188 1035.94792337 841.524414062 c 0
 898.952655021 815.92578125 l 1
 1034.43905722 782.80078125 l 0
 1083.6123723 770.778320312 1116.07216686 754.100585938 1132.86045965 737.370117188 c 0
 1150.17791008 720.111328125 1158.09514357 700.875 1158.09514357 674 c 0
 1158.09514357 622 l 0
 1158.09514357 595.861328125 1164.16224259 569.703125 1184.15136389 552.446289062 c 0
 1199.98870673 538.7734375 1222.67442299 534.75390625 1244.33825151 533.03125 c 1
 1244.33825151 393 l 1
 1134.90615239 393 l 0
 1109.89770253 393 1090.59591098 393.338867188 1077.48583891 393.967773438 c 0
 1066.22398408 394.5078125 1049.82105608 397.021484375 1029.41301833 401.772460938 c 0
 1010.60491551 406.1484375 998.074807874 412.333984375 991.75271623 417.5234375 c 0
 984.938853091 423.114257812 976.97656451 433.31640625 969.437026863 449.229492188 c 0
 963.083300796 462.637695312 959.13283231 480.958007812 959.13283231 505 c 0
 959.13283231 614 l 0
 959.13283231 661.293945312 952.764726959 700.365234375 935.663924406 730.291015625 c 0
 915.177279899 766.14453125 875.687932943 779 831.633642786 779 c 0
 751.520902715 779 l 1
841.111507848 1101 m 0
 747.730523586 1101 l 1
 747.730523586 845 l 1
 808.888492152 845 l 0
 902.843689135 845 969.557812845 885.026367188 969.557812845 972 c 0
 969.557812845 1007.82714844 958.120530752 1040.28613281 934.542340293 1064.71972656 c 0
 910.430199108 1089.70605469 877.59846041 1101 841.111507848 1101 c 0
EndSplineSet
EndChar

StartChar: glyph113
Encoding: 175 175 113
Width: 722
GlyphClass: 2
Flags: HW
LayerCount: 2
Fore
SplineSet
654 1194 m 1
 67 1194 l 1
 67 1403 l 1
 654 1403 l 1
 654 1194 l 1
EndSplineSet
EndChar

StartChar: degree
Encoding: 176 176 114
Width: 721
GlyphClass: 2
Flags: HW
LayerCount: 2
Fore
SplineSet
203.681640625 1456.04785156 m 0
 163.551757812 1411.37402344 143 1356.84667969 143 1296 c 0
 143 1234.44238281 163.90234375 1179.01660156 204.537109375 1133.11621094 c 0
 246.112304688 1086.14941406 298.975585938 1062 355.328125 1062 c 0
 413.459960938 1062 465.966796875 1085.73828125 508.607421875 1132.22070312 c 0
 550.46875 1177.8515625 572 1233.65332031 572 1296 c 0
 572 1357.14453125 550.53125 1411.84375 508.943359375 1456.45507812 c 0
 466.450195312 1502.04003906 413.696289062 1525 355.328125 1525 c 0
 298.388671875 1525 244.921875 1501.95605469 203.681640625 1456.04785156 c 0
648.083007812 1180.98339844 m 0
 633.38671875 1143.62890625 612.551757812 1109.99316406 585.190429688 1079.55664062 c 0
 558.874023438 1050.28417969 524.416992188 1026.45703125 480.467773438 1008.19433594 c 0
 436.670898438 989.916992188 398.014648438 981 355.328125 981 c 0
 314.34375 981 275.526367188 989.896484375 233.365234375 1008.05371094 c 0
 191.184570312 1026.21972656 158.044921875 1049.93945312 132.6484375 1079.17285156 c 0
 106.247070312 1109.56542969 86.169921875 1143.18847656 72.0703125 1180.58496094 c 0
 57.9990234375 1217.90234375 51 1256.48828125 51 1297 c 0
 51 1336.14746094 57.8212890625 1373.55664062 71.560546875 1409.88867188 c 0
 85.2919921875 1446.20019531 104.967773438 1478.75585938 130.961914062 1508.11328125 c 0
 155.870117188 1536.24414062 188.91015625 1559.20019531 231.452148438 1576.7734375 c 0
 273.990234375 1594.34179688 313.643554688 1603 355.328125 1603 c 0
 399.27734375 1603 438.840820312 1594.31445312 482.823242188 1576.65917969 c 0
 526.770507812 1559.01855469 561.021484375 1535.94238281 586.884765625 1507.72949219 c 0
 613.877929688 1478.28125 634.313476562 1445.84082031 648.629882812 1409.89941406 c 0
 662.890625 1374.09472656 670 1336.71484375 670 1297 c 0
 670 1256.64160156 662.73046875 1218.21386719 648.083007812 1180.98339844 c 0
EndSplineSet
EndChar

StartChar: plusminus
Encoding: 177 177 115
Width: 744
GlyphClass: 2
Flags: HW
LayerCount: 2
Fore
SplineSet
655 29 m 1
 88 29 l 1
 88 193 l 1
 655 193 l 1
 655 29 l 1
290 308 m 1
 290 547 l 1
 58 547 l 1
 58 732 l 1
 290 732 l 1
 290 1001 l 1
 465 1001 l 1
 465 732 l 1
 690 732 l 1
 690 547 l 1
 465 547 l 1
 465 308 l 1
 290 308 l 1
EndSplineSet
EndChar

StartChar: uni00B2
Encoding: 178 178 116
Width: 732
GlyphClass: 2
Flags: HW
LayerCount: 2
Fore
SplineSet
634.072265625 540 m 1
 681.095703125 540 l 1
 681.095703125 316 l 1
 73.095703125 316 l 1
 73.095703125 447.857421875 l 1
 146.114257812 478.598632812 205.301757812 513.455078125 256.49609375 556.116210938 c 0
 287.966796875 582.797851562 309.854492188 604.801757812 325.139648438 622.508789062 c 0
 342.015625 642.0625 356.595703125 667.33984375 369.994140625 698.18359375 c 0
 384.278320312 731.0703125 391.439453125 766.296875 391.439453125 803 c 0
 391.439453125 803.930664062 l 1
 391.38671875 804.822265625 l 0
 389.328125 839.891601562 379.810546875 871.22265625 361.120117188 896.321289062 c 0
 343.012695312 920.637695312 318.213867188 937 288.659179688 937 c 0
 257.396484375 937 227.874023438 926.021484375 207.047851562 902.287109375 c 0
 187.46484375 879.971679688 178.095703125 851.651367188 178.095703125 821 c 0
 178.095703125 793.96484375 188.06640625 768.610351562 202.374023438 748.2890625 c 1
 111.512695312 678.650390625 l 1
 68.1416015625 725.924804688 48.4443359375 782.2578125 50.095703125 857.671875 c 1
 50.095703125 907.073242188 65.0419921875 947.581054688 96.4619140625 984.58203125 c 0
 128.887695312 1022.76367188 168.048828125 1050.0234375 215.391601562 1067.32226562 c 0
 264.1328125 1085.13085938 310.118164062 1092.86328125 355.896484375 1091.02441406 c 0
 432.232421875 1087.90429688 498.313476562 1064.09570312 552.1484375 1020.24121094 c 0
 604.338867188 977.725585938 630.095703125 921.651367188 630.095703125 845 c 0
 630.095703125 790.061523438 611.838867188 739.31640625 572.456054688 689.471679688 c 1
 541.807617188 649.809570312 470.938476562 586.764648438 369.515625 504.43359375 c 1
 305.541992188 451 l 1
 477.586914062 451 l 1
 521.842773438 452.450195312 557.3671875 459.216796875 586.473632812 474.401367188 c 0
 613.3671875 488.434570312 628.30078125 513.475585938 634.072265625 540 c 1
EndSplineSet
EndChar

StartChar: uni00B3
Encoding: 179 179 117
Width: 716
GlyphClass: 2
Flags: HW
LayerCount: 2
Fore
SplineSet
315 300 m 0
 254.135742188 300 202.563476562 303.469726562 160.713867188 310.127929688 c 0
 126.48828125 315.572265625 93.302734375 327.818359375 67 342.747070312 c 1
 67 470.51953125 l 1
 129.12109375 431.546875 189.438476562 413 254 413 c 0
 292.026367188 413 327.329101562 420.733398438 358.681640625 436.801757812 c 0
 394.631835938 455.2265625 415 488.592773438 415 529 c 0
 415 573.370117188 393.924804688 610.186523438 354.8984375 630.586914062 c 0
 320.685546875 648.470703125 281.62109375 657 239 657 c 0
 221.271484375 657 203.331054688 654.874023438 185.298828125 650.741210938 c 0
 184.28515625 650.509765625 182.493164062 650.10546875 182 649.994140625 c 1
 182 700.127929688 l 1
 382 870.127929688 l 1
 382 920 l 1
 224 920 l 0
 207.390625 920 192.403320312 918.427734375 178.818359375 914.061523438 c 0
 161.69140625 908.555664062 148.353515625 896.569335938 139.619140625 881.672851562 c 0
 133.439453125 871.130859375 128.647460938 861.826171875 125.348632812 852.870117188 c 0
 123.846679688 848.79296875 121.818359375 842.120117188 120.110351562 836.204101562 c 1
 60 836.736328125 l 1
 60 1042 l 1
 626 1042 l 1
 626 931.309570312 l 1
 604.848632812 913.21875 553.154296875 870.43359375 469.971679688 802.194335938 c 0
 413.616210938 755.9609375 l 1
 486.190429688 749.131835938 l 0
 535.643554688 744.478515625 576.578125 723.995117188 612.462890625 685.14453125 c 0
 648.483398438 646.146484375 665 604.950195312 665 558 c 0
 665 473.787109375 635.461914062 413.458984375 575.228515625 369.169921875 c 0
 514.05078125 324.186523438 428.287109375 300 315 300 c 0
EndSplineSet
EndChar

StartChar: acute
Encoding: 180 180 118
Width: 703
GlyphClass: 2
Flags: HW
LayerCount: 2
Fore
SplineSet
125.268554688 1169.1875 m 1
 53 1267.16796875 l 1
 481.903320312 1662.59277344 l 1
 627.48046875 1452.92871094 l 1
 125.268554688 1169.1875 l 1
EndSplineSet
EndChar

StartChar: uni00B5
Encoding: 181 181 119
Width: 1317
GlyphClass: 2
Flags: HW
LayerCount: 2
Fore
SplineSet
1268 1.029296875 m 1
 779.097047665 1.029296875 l 1
 779.097047665 244.194335938 l 1
 726.422186985 151.2109375 l 0
 695.105621341 95.9296875 653.861197826 54.5966796875 601.320343269 25.7265625 c 0
 548.638829804 -3.2216796875 488.374090419 -18 419.293458863 -18 c 0
 229.438476562 -18 130 104.251953125 130 384.525390625 c 0
 130 821 l 1
 50 821 l 1
 50 1072 l 1
 542.604752681 1072 l 1
 542.604752681 435.685546875 l 0
 542.604752681 393.375976562 552.274102287 355.456054688 573.605786177 325.341796875 c 0
 594.141036515 296.350585938 621.871750373 278 654.372511969 278 c 0
 691.284070843 278 723.736362139 295.141601562 746.537361391 327.384765625 c 0
 768.582794206 358.560546875 779.097047665 397.163085938 779.097047665 439.754882812 c 0
 779.097047665 821 l 1
 704.130601079 821 l 1
 704.130601079 1072 l 1
 1192 1072 l 1
 1192 261.181640625 l 1
 1268 261.181640625 l 1
 1268 1.029296875 l 1
EndSplineSet
EndChar

StartChar: paragraph
Encoding: 182 182 120
Width: 1347
GlyphClass: 2
Flags: HW
LayerCount: 2
Fore
SplineSet
452.396484375 333 m 1
 587.999023438 333 l 1
 587.999023438 769 l 1
 559.458984375 769 l 0
 478.713867188 769 408.118164062 776.220703125 347.844726562 790.287109375 c 0
 287.786132812 804.302734375 231.8359375 826.756835938 183.053710938 857.403320312 c 0
 135.69921875 887.15234375 100.5390625 926.744140625 76.1806640625 977.899414062 c 0
 51.9267578125 1028.83203125 39.814453125 1090.84179688 41.0927734375 1165.6015625 c 0
 41.732421875 1213.64941406 47.0185546875 1257.0078125 56.69921875 1295.72363281 c 0
 66.4326171875 1334.65917969 79.73828125 1367.22949219 96.1162109375 1393.72949219 c 0
 113.075195312 1421.17578125 133.170898438 1445.71484375 156.57421875 1467.57714844 c 0
 179.655273438 1489.14160156 205.069335938 1506.27148438 233.184570312 1519.26855469 c 0
 262.961914062 1533.03710938 294.061523438 1545.25292969 326.109375 1555.89355469 c 0
 357.38671875 1566.28027344 390.384765625 1573.56054688 425.198242188 1577.68945312 c 0
 461.41796875 1581.984375 498.892578125 1585.79003906 537.624023438 1589.09863281 c 0
 575.689453125 1592.35058594 614.393554688 1593.65527344 653.744140625 1593.00292969 c 0
 694.149414062 1592.33300781 735.442382812 1592.3359375 776.088867188 1593 c 1
 1291.09570312 1593 l 1
 1291.09570312 1298 l 1
 1140.09570312 1298 l 1
 1140.09570312 333 l 1
 1296.09570312 333 l 1
 1296.09570312 30 l 1
 955.801757812 30 l 1
 955.801757812 1300 l 1
 782.620117188 1300 l 1
 782.620117188 30 l 1
 452.396484375 30 l 1
 452.396484375 333 l 1
EndSplineSet
EndChar

StartChar: periodcentered
Encoding: 183 183 121
Width: 617
GlyphClass: 2
Flags: HW
LayerCount: 2
Fore
SplineSet
490.907226562 919.858398438 m 0
 537.247070312 881.627929688 560 831.96484375 560 764 c 0
 560 694.828125 536.524414062 644.008789062 488.50390625 604.717773438 c 0
 439.3359375 564.491210938 378.784179688 544 303 544 c 0
 229.364257812 544 171.25 564.352539062 124.48828125 604.307617188 c 0
 78.70703125 643.424804688 56 694.428710938 56 764 c 0
 56 832.2578125 78.2138671875 882.061523438 122.950195312 920.16015625 c 0
 168.434570312 958.89453125 227.03515625 979 303 979 c 0
 382.543945312 979 443.842773438 958.688476562 490.907226562 919.858398438 c 0
EndSplineSet
EndChar

StartChar: cedilla
Encoding: 184 184 122
Width: 467
GlyphClass: 2
Flags: HW
LayerCount: 2
Fore
SplineSet
255 -271 m 0
 255 -236.068359375 240.9609375 -202.197265625 217.067382812 -170.090820312 c 0
 196.953125 -143.0625 170.15625 -118.779296875 145 -102.17578125 c 1
 145 -30 l 1
 265 -30 l 1
 265 -136.296875 l 1
 279.967773438 -144.962890625 l 0
 365.688476562 -194.588867188 398 -242.399414062 398 -285 c 0
 398 -324.399414062 373.220703125 -362.640625 305.16796875 -399.64453125 c 0
 240.102539062 -435.025390625 161.34765625 -453.696289062 68 -454.946289062 c 1
 68 -401.022460938 l 1
 122.852539062 -397.892578125 163.541015625 -388.575195312 195.849609375 -368.470703125 c 0
 232.158203125 -345.87890625 255 -312.232421875 255 -271 c 0
EndSplineSet
EndChar

StartChar: uni00B9
Encoding: 185 185 123
Width: 483
GlyphClass: 2
Flags: HW
LayerCount: 2
Fore
SplineSet
377.193359375 446 m 1
 433 446 l 1
 433 316 l 1
 89.841796875 316 l 1
 89.158203125 446 l 1
 142 446 l 1
 142 873.313476562 l 1
 46 872.313476562 l 1
 46 969.650390625 l 1
 373.249023438 1052.51855469 l 1
 377.193359375 446 l 1
EndSplineSet
EndChar

StartChar: ordmasculine
Encoding: 186 186 124
Width: 881
GlyphClass: 2
Flags: HW
LayerCount: 2
Fore
SplineSet
714.169921875 407.640625 m 0
 638.533203125 336.151367188 547.236209045 300 441 300 c 0
 334.763790955 300 243.466796875 336.151367188 167.830078125 407.640625 c 0
 93.0498046875 478.3203125 55 574.706054688 55 703.288085938 c 0
 55 830.64453125 92.140625 923.779296875 164.440429688 989.74609375 c 0
 237.650390625 1056.54394531 330.869596666 1091 441 1091 c 0
 551.720184164 1091 645.193359375 1056.50976562 718.012695312 989.7890625 c 0
 789.993164062 923.836914062 827 830.677734375 827 703.288085938 c 0
 827 574.70703125 788.948242188 478.319335938 714.169921875 407.640625 c 0
380.51966229 898.967773438 m 0
 363.624765999 884.418945312 352.066155609 863.373046875 345.172921243 838.877929688 c 0
 339.061807358 817.171875 335.003531849 795.5390625 333.120244068 774.056640625 c 0
 331.321731584 753.525390625 330.48035955 729.42578125 330.48035955 701.415039062 c 0
 330.48035955 570.135742188 358.849090934 471 441 471 c 0
 523.521003374 471 552.351896861 569.9296875 552.351896861 701.415039062 c 0
 552.351896861 729.55078125 551.367409541 753.821289062 549.244380866 774.594726562 c 0
 547.087624384 795.69921875 543.100450737 816.986328125 537.369458346 838.424804688 c 0
 530.725080496 863.26953125 518.991450138 884.58984375 501.658092365 899.170898438 c 0
 484.353904586 913.727539062 463.342392797 920 441 920 c 0
 418.676750012 920 397.677088533 913.744140625 380.51966229 898.967773438 c 0
EndSplineSet
EndChar

StartChar: guillemotright
Encoding: 187 187 125
Width: 1203
GlyphClass: 2
Flags: HW
LayerCount: 2
Fore
SplineSet
196.309570312 1036.265625 m 1
 562.071123156 656.317382812 l 1
 562.071123156 411.682617188 l 1
 196.309570312 31.734375 l 1
 44 210.421875 l 1
 354.40026699 534 l 1
 44 857.578125 l 1
 196.309570312 1036.265625 l 1
760.566906811 1036.18164062 m 1
 1140.25097656 656.208984375 l 1
 1140.25097656 411.791015625 l 1
 760.566906811 31.818359375 l 1
 621.729891062 210.545898438 l 1
 911.19921875 534 l 1
 621.729891062 857.454101562 l 1
 760.566906811 1036.18164062 l 1
EndSplineSet
EndChar

StartChar: onequarter
Encoding: 188 188 126
Width: 1562
GlyphClass: 2
Flags: HW
LayerCount: 2
Fore
SplineSet
365.328547802 978 m 1
 418.007133459 978 l 1
 418.007133459 848 l 1
 83.841796875 848 l 1
 83.158203125 978 l 1
 136 978 l 1
 136 1405.31347656 l 1
 40 1404.31347656 l 1
 40 1501.68457031 l 1
 361.605791181 1584.46191406 l 1
 365.328547802 978 l 1
775.18787422 1593 m 1
 1058.33850285 1593 l 1
 601.988273681 30 l 1
 328.838066342 30 l 1
 775.18787422 1593 l 1
1523 367.774414062 m 1
 1523 277 l 1
 1389 277 l 1
 1389 140 l 1
 1461 140 l 1
 1461 31 l 1
 1117.61734742 31 l 1
 1117.61734742 140 l 1
 1187.47000779 140 l 1
 1187.47000779 277 l 1
 892.010063803 277 l 1
 892.010063803 394.190429688 l 1
 1182.52483918 758.9453125 l 1
 1390 758.1171875 l 1
 1390 366.774414062 l 1
 1523 367.774414062 l 1
1187.47000779 367.723632812 m 1
 1187.47000779 621.9375 l 1
 994.452399964 369.565429688 l 1
 1187.47000779 367.723632812 l 1
EndSplineSet
EndChar

StartChar: onehalf
Encoding: 189 189 127
Width: 1629
GlyphClass: 2
Flags: HW
LayerCount: 2
Fore
SplineSet
365.656953065 978 m 1
 418.512823598 978 l 1
 418.512823598 848 l 1
 83.841796875 848 l 1
 83.158203125 978 l 1
 136 978 l 1
 136 1405.31347656 l 1
 40 1404.31347656 l 1
 40 1501.68164062 l 1
 361.922060455 1584.46484375 l 1
 365.656953065 978 l 1
784.405790358 1593 m 1
 1068.56431739 1593 l 1
 610.684884671 30 l 1
 336.559868217 30 l 1
 784.405790358 1593 l 1
1539.9765625 253 m 1
 1587 253 l 1
 1587 29 l 1
 980.230321468 29 l 1
 980.230321468 160.995117188 l 1
 1049.52278637 191.81640625 1105.43308409 226.603515625 1153.94643515 269.288085938 c 0
 1183.429756 295.678710938 1205.92249264 317.310546875 1221.9249309 334.924804688 c 0
 1239.64099195 354.42578125 1255.02813613 379.75 1269.15498167 410.643554688 c 0
 1284.23831241 443.633789062 1291.8346067 479.077148438 1291.8346067 516 c 0
 1291.8346067 516.94921875 l 1
 1291.77518577 517.91796875 l 0
 1289.59290441 553.244140625 1279.44630239 584.837890625 1259.78085167 609.926757812 c 0
 1240.68181653 634.290039062 1215.0857742 650 1185.2468862 650 c 0
 1154.22245492 650 1125.87579884 638.95703125 1106.03879416 615.088867188 c 0
 1087.47358894 592.752929688 1078.6591657 564.529296875 1078.6591657 534 c 0
 1078.6591657 507.05078125 1087.9364971 481.985351562 1101.78444766 461.235351562 c 1
 1016.19435668 391.974609375 l 1
 975.21979579 439.548828125 956.887482254 495.466796875 958.446802314 570.677734375 c 1
 958.446802314 620.19921875 972.658945635 660.798828125 1002.40295184 697.78125 c 0
 1033.10440164 735.951171875 1070.11884544 763.135742188 1114.82542374 780.381835938 c 0
 1160.60541227 798.04296875 1207.48468791 805.877929688 1256.14659127 804.020507812 c 0
 1337.06447248 800.879882812 1404.39941406 776.948242188 1458.05371094 733.241210938 c 0
 1510.24316406 690.725585938 1536 634.651367188 1536 558 c 0
 1536 503.061523438 1517.74414062 452.31640625 1478.36035156 402.471679688 c 1
 1447.75488281 362.86328125 1377.04589844 299.94140625 1271.85480012 217.827148438 c 0
 1204.01910626 164 l 1
 1383.4921875 164 l 1
 1427.74707031 165.450195312 1463.27148438 172.216796875 1492.37792969 187.40234375 c 0
 1519.27050781 201.434570312 1534.20507812 226.475585938 1539.9765625 253 c 1
EndSplineSet
EndChar

StartChar: threequarters
Encoding: 190 190 128
Width: 1664
GlyphClass: 2
Flags: HW
LayerCount: 2
Fore
SplineSet
301.029691278 852 m 0
 241.14453125 852 189.565429688 855.46875 147.713867188 862.127929688 c 0
 113.48828125 867.572265625 80.302734375 879.818359375 54 894.747070312 c 1
 54 1022.51953125 l 1
 116.12109375 983.546875 176.438476562 965 241 965 c 0
 278.974609375 965 313.006884991 972.76171875 342.876030691 988.899414062 c 0
 377.20138289 1007.44433594 396.387907455 1040.83789062 396.387907455 1081 c 0
 396.387907455 1125.14160156 376.532999862 1161.96582031 339.290544118 1182.48730469 c 0
 306.677863493 1200.45898438 268.619140625 1209 226 1209 c 0
 208.271484375 1209 190.33203125 1206.87402344 172.297851562 1202.74121094 c 0
 171.267578125 1202.50585938 169 1201.99023438 169 1201.99023438 c 1
 169 1252.18554688 l 1
 365.082265664 1422.18554688 l 1
 365.082265664 1472 l 1
 211 1472 l 0
 194.390625 1472 179.403320312 1470.42773438 165.818359375 1466.06152344 c 0
 148.69140625 1460.55566406 135.353515625 1448.56933594 126.619140625 1433.67285156 c 0
 120.439453125 1423.13085938 115.647460938 1413.82617188 112.348632812 1404.87011719 c 0
 110.846679688 1400.79296875 108.818359375 1394.12011719 107.110351562 1388.20410156 c 1
 47 1388.73632812 l 1
 47 1594 l 1
 595.554542453 1594 l 1
 595.554542453 1483.15625 l 1
 576.019921706 1465.53125 526.584510151 1422.39355469 447.5340727 1354.03125 c 0
 394.289740935 1307.984375 l 1
 463.32977605 1301.13671875 l 0
 509.990007572 1296.5078125 548.656493154 1276.16015625 582.674983705 1237.33398438 c 0
 616.819095744 1198.36621094 632.550549937 1157.10058594 632.550549937 1110 c 0
 632.550549937 1025.61230469 604.42955669 965.2265625 547.401237223 921.021484375 c 0
 489.483018976 876.12890625 408.3545528 852 301.029691278 852 c 0
922.155066369 1593 m 1
 1206.79034198 1593 l 1
 748.188485302 30 l 1
 473.601010787 30 l 1
 922.155066369 1593 l 1
1627 365.774414062 m 1
 1627 275 l 1
 1493 275 l 1
 1493 138 l 1
 1565 138 l 1
 1565 29 l 1
 1220.73816284 29 l 1
 1220.73816284 138 l 1
 1290.93660068 138 l 1
 1290.93660068 275 l 1
 994.01822865 275 l 1
 994.01822865 392.177734375 l 1
 1285.97599035 756.9453125 l 1
 1494 756.1171875 l 1
 1494 364.774414062 l 1
 1627 365.774414062 l 1
1290.93660068 365.723632812 m 1
 1290.93660068 619.831054688 l 1
 1097.04606815 367.565429688 l 1
 1290.93660068 365.723632812 l 1
EndSplineSet
EndChar

StartChar: questiondown
Encoding: 191 191 129
Width: 1288
GlyphClass: 2
Flags: HW
LayerCount: 2
Fore
SplineSet
953 1180 m 1
 606 1180 l 1
 606 993 l 1
 565.333007812 979 529.5 965.833007812 498.5 953.5 c 128
 467.5 941.166992188 431.5 925.166992188 390.5 905.5 c 128
 349.5 885.833007812 313.833007812 866 283.5 846 c 128
 253.166992188 826 222.166992188 801.666992188 190.5 773 c 128
 158.833007812 744.333007812 133 714.5 113 683.5 c 128
 93 652.5 76.5 616.666992188 63.5 576 c 128
 50.5 535.333007812 44 492.333007812 44 447 c 0
 44 359 70 279.5 122 208.5 c 128
 174 137.5 245.833007812 82 337.5 42 c 128
 429.166992188 2 531.333007812 -18 644 -18 c 0
 815.333007812 -18 957.5 30.6669921875 1070.5 128 c 128
 1183.5 225.333007812 1244.66699219 349.333007812 1254 500 c 1
 782 500 l 1
 775.333007812 392 732 338 652 338 c 0
 632 338 615 343.166992188 601 353.5 c 128
 587 363.833007812 577.166992188 377 571.5 393 c 128
 565.833007812 409 561.833007812 423.166992188 559.5 435.5 c 128
 557.166992188 447.833007812 556 459.333007812 556 470 c 0
 556 589.333007812 688 708.666992188 952 828 c 1
 953 1180 l 1
773 1746 m 0
 852.333007812 1746 918.333007812 1723.5 971 1678.5 c 128
 1023.66699219 1633.5 1050 1572.66699219 1050 1496 c 0
 1050 1420.66699219 1024.16699219 1361 972.5 1317 c 128
 920.833007812 1273 854.333007812 1251 773 1251 c 0
 688.333007812 1251 619.333007812 1273 566 1317 c 128
 512.666992188 1361 486 1420.66699219 486 1496 c 0
 486 1572.66699219 513.5 1633.5 568.5 1678.5 c 128
 623.5 1723.5 691.666992188 1746 773 1746 c 0
EndSplineSet
EndChar

StartChar: Agrave
Encoding: 192 192 130
Width: 1724
GlyphClass: 2
Flags: HW
LayerCount: 2
Fore
SplineSet
1231 1623 m 1
 237 1623 l 1
 237 1270 l 1
 449 1270 l 1
 277 591 l 2
 259 521 246.333007812 478 239 462 c 0
 217 411.333007812 180 379.666992188 128 367 c 0
 105.333007812 361.666992188 79.3330078125 359 50 359 c 1
 50 0 l 1
 728 0 l 1
 728 359 l 1
 644 359 l 2
 630 359 619.333007812 371 612 395 c 128
 604.666992188 419 601 440.333007812 601 459 c 1
 601.666992188 473 602.333007812 483.666992188 603 491 c 128
 603.666992188 498.333007812 606.333007812 505.5 611 512.5 c 128
 615.666992188 519.5 622.333007812 523 631 523 c 2
 906 523 l 2
 950.666992188 523 973 468.333007812 973 359 c 1
 853 359 l 1
 854 0 l 1
 1680 0 l 1
 1680 359 l 1
 1594 359 l 2
 1584 359 1575.33300781 363.166992188 1568 371.5 c 128
 1560.66699219 379.833007812 1555.16699219 389.333007812 1551.5 400 c 128
 1547.83300781 410.666992188 1543.33300781 426.333007812 1538 447 c 2
 1231 1623 l 1
658 773 m 1
 770 1281 l 1
 887 773 l 1
 658 773 l 1
694 2270 m 1
 1168 1833 l 1
 1064 1692 l 1
 510 2005 l 1
 694 2270 l 1
EndSplineSet
EndChar

StartChar: Aacute
Encoding: 193 193 131
Width: 1724
GlyphClass: 2
Flags: HW
LayerCount: 2
Fore
SplineSet
1538 447 m 2
 1543.33300781 426.333007812 1547.83300781 410.666992188 1551.5 400 c 128
 1555.16699219 389.333007812 1560.66699219 379.833007812 1568 371.5 c 128
 1575.33300781 363.166992188 1584 359 1594 359 c 2
 1680 359 l 1
 1680 0 l 1
 854 0 l 1
 853 359 l 1
 973 359 l 1
 973 468.333007812 950.666992188 523 906 523 c 2
 631 523 l 2
 622.333007812 523 615.666992188 519.5 611 512.5 c 128
 606.333007812 505.5 603.666992188 498.333007812 603 491 c 128
 602.333007812 483.666992188 601.666992188 473 601 459 c 1
 601 440.333007812 604.666992188 419 612 395 c 128
 619.333007812 371 630 359 644 359 c 2
 728 359 l 1
 728 0 l 1
 50 0 l 1
 50 359 l 1
 79.3330078125 359 105.333007812 361.666992188 128 367 c 0
 180 379.666992188 217 411.333007812 239 462 c 0
 246.333007812 478 259 521 277 591 c 2
 449 1270 l 1
 237 1270 l 1
 237 1623 l 1
 1231 1623 l 1
 1538 447 l 2
887 773 m 1
 770 1281 l 1
 658 773 l 1
 887 773 l 1
1168 2005 m 1
 614 1692 l 1
 510 1833 l 1
 984 2270 l 1
 1168 2005 l 1
EndSplineSet
EndChar

StartChar: Acircumflex
Encoding: 194 194 132
Width: 1724
GlyphClass: 2
Flags: HW
LayerCount: 2
Fore
SplineSet
1538 447 m 2
 1543.33300781 426.333007812 1547.83300781 410.666992188 1551.5 400 c 128
 1555.16699219 389.333007812 1560.66699219 379.833007812 1568 371.5 c 128
 1575.33300781 363.166992188 1584 359 1594 359 c 2
 1680 359 l 1
 1680 0 l 1
 854 0 l 1
 853 359 l 1
 973 359 l 1
 973 468.333007812 950.666992188 523 906 523 c 2
 631 523 l 2
 622.333007812 523 615.666992188 519.5 611 512.5 c 128
 606.333007812 505.5 603.666992188 498.333007812 603 491 c 128
 602.333007812 483.666992188 601.666992188 473 601 459 c 1
 601 440.333007812 604.666992188 419 612 395 c 128
 619.333007812 371 630 359 644 359 c 2
 728 359 l 1
 728 0 l 1
 50 0 l 1
 50 359 l 1
 79.3330078125 359 105.333007812 361.666992188 128 367 c 0
 180 379.666992188 217 411.333007812 239 462 c 0
 246.333007812 478 259 521 277 591 c 2
 449 1270 l 1
 237 1270 l 1
 237 1623 l 1
 1231 1623 l 1
 1538 447 l 2
887 773 m 1
 770 1281 l 1
 658 773 l 1
 887 773 l 1
874 2162 m 1
 1148 1786 l 1
 994 1685 l 1
 739 1930 l 1
 484 1685 l 1
 330 1786 l 1
 603 2163 l 1
 874 2162 l 1
EndSplineSet
EndChar

StartChar: Atilde
Encoding: 195 195 133
Width: 1724
GlyphClass: 2
Flags: HW
LayerCount: 2
Fore
SplineSet
1231 1623 m 1
 237 1623 l 1
 237 1270 l 1
 449 1270 l 1
 277 591 l 2
 259 521 246.333007812 478 239 462 c 0
 217 411.333007812 180 379.666992188 128 367 c 0
 105.333007812 361.666992188 79.3330078125 359 50 359 c 1
 50 0 l 1
 728 0 l 1
 728 359 l 1
 644 359 l 2
 630 359 619.333007812 371 612 395 c 128
 604.666992188 419 601 440.333007812 601 459 c 1
 601.666992188 473 602.333007812 483.666992188 603 491 c 128
 603.666992188 498.333007812 606.333007812 505.5 611 512.5 c 128
 615.666992188 519.5 622.333007812 523 631 523 c 2
 906 523 l 2
 950.666992188 523 973 468.333007812 973 359 c 1
 853 359 l 1
 854 0 l 1
 1680 0 l 1
 1680 359 l 1
 1594 359 l 2
 1584 359 1575.33300781 363.166992188 1568 371.5 c 128
 1560.66699219 379.833007812 1555.16699219 389.333007812 1551.5 400 c 128
 1547.83300781 410.666992188 1543.33300781 426.333007812 1538 447 c 2
 1231 1623 l 1
658 773 m 1
 770 1281 l 1
 887 773 l 1
 658 773 l 1
1013 2085 m 0
 1042.33300781 2085 1069 2078.66699219 1093 2066 c 128
 1117 2053.33300781 1137.66699219 2035.5 1155 2012.5 c 128
 1172.33300781 1989.5 1187.5 1966.66699219 1200.5 1944 c 128
 1213.5 1921.33300781 1227.83300781 1895 1243.5 1865 c 128
 1259.16699219 1835 1273 1811.33300781 1285 1794 c 1
 1172 1720 l 1
 1123.33300781 1766.66699219 1089.83300781 1796.33300781 1071.5 1809 c 128
 1053.16699219 1821.66699219 1037.66699219 1828 1025 1828 c 0
 995 1828 959.333007812 1818 918 1798 c 128
 876.666992188 1778 833.833007812 1757.83300781 789.5 1737.5 c 128
 745.166992188 1717.16699219 704.666992188 1707 668 1707 c 0
 638 1707 611 1713.16699219 587 1725.5 c 128
 563 1737.83300781 542.166992188 1755.5 524.5 1778.5 c 128
 506.833007812 1801.5 491.666992188 1824.16699219 479 1846.5 c 128
 466.333007812 1868.83300781 452 1895.16699219 436 1925.5 c 128
 420 1955.83300781 406 1979.66699219 394 1997 c 1
 508 2072 l 1
 558.666992188 2023.33300781 593.333007812 1992.5 612 1979.5 c 128
 630.666992188 1966.5 646 1960 658 1960 c 0
 682 1960 709.666992188 1966.5 741 1979.5 c 128
 772.333007812 1992.5 801 2006.83300781 827 2022.5 c 128
 853 2038.16699219 883 2052.5 917 2065.5 c 128
 951 2078.5 983 2085 1013 2085 c 0
EndSplineSet
EndChar

StartChar: Adieresis
Encoding: 196 196 134
Width: 1724
GlyphClass: 2
Flags: HW
LayerCount: 2
Fore
SplineSet
1231 1623 m 1
 237 1623 l 1
 237 1270 l 1
 449 1270 l 1
 277 591 l 2
 259 521 246.333007812 478 239 462 c 0
 217 411.333007812 180 379.666992188 128 367 c 0
 105.333007812 361.666992188 79.3330078125 359 50 359 c 1
 50 0 l 1
 728 0 l 1
 728 359 l 1
 644 359 l 2
 630 359 619.333007812 371 612 395 c 128
 604.666992188 419 601 440.333007812 601 459 c 1
 601.666992188 473 602.333007812 483.666992188 603 491 c 128
 603.666992188 498.333007812 606.333007812 505.5 611 512.5 c 128
 615.666992188 519.5 622.333007812 523 631 523 c 2
 906 523 l 2
 950.666992188 523 973 468.333007812 973 359 c 1
 853 359 l 1
 854 0 l 1
 1680 0 l 1
 1680 359 l 1
 1594 359 l 2
 1584 359 1575.33300781 363.166992188 1568 371.5 c 128
 1560.66699219 379.833007812 1555.16699219 389.333007812 1551.5 400 c 128
 1547.83300781 410.666992188 1543.33300781 426.333007812 1538 447 c 2
 1231 1623 l 1
658 773 m 1
 770 1281 l 1
 887 773 l 1
 658 773 l 1
757 1904 m 0
 757 1832 734.833007812 1775.66699219 690.5 1735 c 128
 646.166992188 1694.33300781 593.666992188 1674 533 1674 c 0
 471 1674 417.5 1694.5 372.5 1735.5 c 128
 327.5 1776.5 305 1833.66699219 305 1907 c 0
 305 1978.33300781 327.333007812 2034 372 2074 c 128
 416.666992188 2114 469.666992188 2134 531 2134 c 128
 592.333007812 2134 645.333007812 2113.83300781 690 2073.5 c 128
 734.666992188 2033.16699219 757 1976.66699219 757 1904 c 0
1374 1904 m 0
 1374 1832 1351.83300781 1775.66699219 1307.5 1735 c 128
 1263.16699219 1694.33300781 1210.66699219 1674 1150 1674 c 0
 1088 1674 1034.5 1694.5 989.5 1735.5 c 128
 944.5 1776.5 922 1833.66699219 922 1907 c 0
 922 1978.33300781 944.333007812 2034 989 2074 c 128
 1033.66699219 2114 1086.66699219 2134 1148 2134 c 128
 1209.33300781 2134 1262.33300781 2113.83300781 1307 2073.5 c 128
 1351.66699219 2033.16699219 1374 1976.66699219 1374 1904 c 0
EndSplineSet
EndChar

StartChar: Aring
Encoding: 197 197 135
Width: 1724
GlyphClass: 2
Flags: HW
LayerCount: 2
Fore
SplineSet
1538 447 m 2
 1543.33300781 426.333007812 1547.83300781 410.666992188 1551.5 400 c 128
 1555.16699219 389.333007812 1560.66699219 379.833007812 1568 371.5 c 128
 1575.33300781 363.166992188 1584 359 1594 359 c 2
 1680 359 l 1
 1680 0 l 1
 854 0 l 1
 853 359 l 1
 973 359 l 1
 973 468.333007812 950.666992188 523 906 523 c 2
 631 523 l 2
 622.333007812 523 615.666992188 519.5 611 512.5 c 128
 606.333007812 505.5 603.666992188 498.333007812 603 491 c 128
 602.333007812 483.666992188 601.666992188 473 601 459 c 1
 601 440.333007812 604.666992188 419 612 395 c 128
 619.333007812 371 630 359 644 359 c 2
 728 359 l 1
 728 0 l 1
 50 0 l 1
 50 359 l 1
 79.3330078125 359 105.333007812 361.666992188 128 367 c 0
 180 379.666992188 217 411.333007812 239 462 c 0
 246.333007812 478 259 521 277 591 c 2
 449 1270 l 1
 237 1270 l 1
 237 1623 l 1
 1231 1623 l 1
 1538 447 l 2
887 773 m 1
 770 1281 l 1
 658 773 l 1
 887 773 l 1
835 1802 m 0
 886.333007812 1802 926.666992188 1816.66699219 956 1846 c 128
 985.333007812 1875.33300781 1000 1910 1000 1950 c 0
 1000 1989.33300781 985.5 2023.33300781 956.5 2052 c 128
 927.5 2080.66699219 887 2095 835 2095 c 0
 784.333007812 2095 744.833007812 2080.66699219 716.5 2052 c 128
 688.166992188 2023.33300781 674 1989.33300781 674 1950 c 0
 674 1910 688.333007812 1875.33300781 717 1846 c 128
 745.666992188 1816.66699219 785 1802 835 1802 c 0
835 1700 m 0
 750.333007812 1700 684 1725 636 1775 c 128
 588 1825 564 1883.66699219 564 1951 c 0
 564 2017 587.666992188 2074.16699219 635 2122.5 c 128
 682.333007812 2170.83300781 749 2195 835 2195 c 0
 923.666992188 2195 992.5 2171 1041.5 2123 c 128
 1090.5 2075 1115 2017.66699219 1115 1951 c 0
 1115 1883.66699219 1090.16699219 1825 1040.5 1775 c 128
 990.833007812 1725 922.333007812 1700 835 1700 c 0
EndSplineSet
EndChar

StartChar: AE
Encoding: 198 198 136
Width: 2151
GlyphClass: 2
Flags: HW
LayerCount: 2
Fore
SplineSet
1808 969 m 1
 1732 1271 l 1
 1519 1271 l 1
 1519 988 l 1
 1724 988 l 1
 1724 636 l 1
 1519 636 l 1
 1519 350 l 1
 1738 350 l 1
 1751 420 l 1
 1814 687 l 1
 2087 687 l 1
 2087 0 l 1
 858 0 l 1
 857 376 l 1
 977 376 l 1
 998.333007812 485.333007812 986.333007812 540 941 540 c 2
 666 540 l 2
 657.333007812 540 650 536.5 644 529.5 c 128
 638 522.5 634 515.333007812 632 508 c 128
 630 500.666992188 627.333007812 490 624 476 c 1
 620 464.666992188 619.5 445.166992188 622.5 417.5 c 128
 625.5 389.833007812 634 376 648 376 c 2
 732 376 l 1
 732 0 l 1
 51 -1 l 1
 51 354 l 1
 71 354 89.3330078125 355.333007812 106 358 c 128
 122.666992188 360.666992188 138 365.333007812 152 372 c 128
 166 378.666992188 178.333007812 384.833007812 189 390.5 c 128
 199.666992188 396.166992188 210.333007812 405.333007812 221 418 c 128
 231.666992188 430.666992188 240 440.666992188 246 448 c 128
 252 455.333007812 259.5 467.666992188 268.5 485 c 128
 277.5 502.333007812 283.833007812 514.833007812 287.5 522.5 c 128
 291.166992188 530.166992188 297.5 544.5 306.5 565.5 c 128
 315.5 586.5 321.666992188 600.666992188 325 608 c 2
 647 1274 l 1
 435 1274 l 1
 506 1623 l 1
 2076 1623 l 1
 2076 970 l 1
 1808 969 l 1
969 771 m 1
 970 1292 l 1
 730 771 l 1
 969 771 l 1
EndSplineSet
EndChar

StartChar: Ccedilla
Encoding: 199 199 137
Width: 1496
GlyphClass: 2
Flags: HW
LayerCount: 2
Fore
SplineSet
1437 202 m 1
 1408 178 l 2
 1388.66699219 162 1359.66699219 142.666992188 1321 120 c 128
 1282.33300781 97.3330078125 1238.66699219 74.8330078125 1190 52.5 c 128
 1141.33300781 30.1669921875 1082.5 11 1013.5 -5 c 128
 944.5 -21 875.333007812 -29 806 -29 c 0
 640.666992188 -29 499.833007812 6 383.5 76 c 128
 267.166992188 146 180.5 242.833007812 123.5 366.5 c 128
 66.5 490.166992188 38 636 38 804 c 0
 38 888.666992188 46 970.666992188 62 1050 c 128
 78 1129.33300781 103.833007812 1205.83300781 139.5 1279.5 c 128
 175.166992188 1353.16699219 219 1417.33300781 271 1472 c 128
 323 1526.66699219 387.666992188 1570.33300781 465 1603 c 128
 542.333007812 1635.66699219 628 1652 722 1652 c 0
 771.333007812 1652 813.666992188 1650.33300781 849 1647 c 128
 884.333007812 1643.66699219 924.5 1634.16699219 969.5 1618.5 c 128
 1014.5 1602.83300781 1052 1580.66699219 1082 1552 c 1
 1116 1623 l 1
 1427 1623 l 1
 1428 991 l 1
 1130 991 l 1
 1130.66699219 1026.33300781 1127 1060.83300781 1119 1094.5 c 128
 1111 1128.16699219 1098.33300781 1160 1081 1190 c 128
 1063.66699219 1220 1039 1244.16699219 1007 1262.5 c 128
 975 1280.83300781 938 1290 896 1290 c 0
 864.666992188 1290 836.5 1284.83300781 811.5 1274.5 c 128
 786.5 1264.16699219 765.833007812 1251 749.5 1235 c 128
 733.166992188 1219 719 1198.33300781 707 1173 c 128
 695 1147.66699219 686 1123.5 680 1100.5 c 128
 674 1077.5 669.333007812 1049.66699219 666 1017 c 128
 662.666992188 984.333007812 660.666992188 957 660 935 c 128
 659.333007812 913 659 886.333007812 659 855 c 0
 659 841 659 841 659 811 c 1
 657 781 657 748.5 659 713.5 c 128
 661 678.5 663.333007812 643.666992188 666 609 c 128
 668.666992188 574.333007812 675.833007812 541 687.5 509 c 128
 699.166992188 477 713.5 448.666992188 730.5 424 c 128
 747.5 399.333007812 771.333007812 379.666992188 802 365 c 128
 832.666992188 350.333007812 868.333007812 343 909 343 c 0
 963 343 1010.5 358.833007812 1051.5 390.5 c 128
 1092.5 422.166992188 1118 464.666992188 1128 518 c 0
 1130.66699219 531.333007812 1133.33300781 562.666992188 1136 612 c 1
 1437 612 l 1
 1437 202 l 1
688 0 m 1
 868 0 l 1
 868 -119 l 1
 956.666992188 -170.333007812 1001 -225.666992188 1001 -285 c 0
 1001 -339.666992188 964.833007812 -386.666992188 892.5 -426 c 128
 820.166992188 -465.333007812 733.333007812 -485 632 -485 c 2
 611 -485 l 1
 611 -372 l 1
 675.666992188 -371.333007812 723 -361.666992188 753 -343 c 128
 783 -324.333007812 798 -300.333007812 798 -271 c 0
 798 -244.333007812 787.333007812 -216.666992188 766 -188 c 128
 744.666992188 -159.333007812 718.666992188 -136.333007812 688 -119 c 1
 688 0 l 1
EndSplineSet
EndChar

StartChar: Egrave
Encoding: 200 200 138
Width: 1402
GlyphClass: 2
Flags: HW
LayerCount: 2
Fore
SplineSet
1328 969 m 1
 1328 1623 l 1
 60 1623 l 1
 60 1270 l 1
 218 1270 l 1
 218 359 l 1
 60 359 l 1
 60 0 l 1
 1339 0 l 1
 1339 687 l 1
 1066 687 l 1
 1003 420 l 1
 990 359 l 1
 771 359 l 1
 771 636 l 1
 976 636 l 1
 976 988 l 1
 771 988 l 1
 771 1270 l 1
 984 1270 l 1
 1060 968 l 1
 1328 969 l 1
552 2270 m 1
 1026 1833 l 1
 922 1692 l 1
 368 2005 l 1
 552 2270 l 1
EndSplineSet
EndChar

StartChar: Eacute
Encoding: 201 201 139
Width: 1402
GlyphClass: 2
Flags: HW
LayerCount: 2
Fore
SplineSet
1060 968 m 1
 984 1270 l 1
 771 1270 l 1
 771 988 l 1
 976 988 l 1
 976 636 l 1
 771 636 l 1
 771 359 l 1
 990 359 l 1
 1003 420 l 1
 1066 687 l 1
 1339 687 l 1
 1339 0 l 1
 60 0 l 1
 60 359 l 1
 218 359 l 1
 218 1270 l 1
 60 1270 l 1
 60 1623 l 1
 1328 1623 l 1
 1328 969 l 1
 1060 968 l 1
1026 2005 m 1
 472 1692 l 1
 368 1833 l 1
 842 2270 l 1
 1026 2005 l 1
EndSplineSet
EndChar

StartChar: Ecircumflex
Encoding: 202 202 140
Width: 1401
GlyphClass: 2
Flags: HW
LayerCount: 2
Fore
SplineSet
1059 968 m 1
 983 1270 l 1
 770 1270 l 1
 770 988 l 1
 975 988 l 1
 975 636 l 1
 770 636 l 1
 770 359 l 1
 989 359 l 1
 1002 420 l 1
 1065 687 l 1
 1338 687 l 1
 1338 0 l 1
 59 0 l 1
 59 359 l 1
 217 359 l 1
 217 1270 l 1
 59 1270 l 1
 59 1623 l 1
 1327 1623 l 1
 1327 969 l 1
 1059 968 l 1
831 2162 m 1
 1105 1786 l 1
 951 1685 l 1
 696 1930 l 1
 441 1685 l 1
 287 1786 l 1
 560 2163 l 1
 831 2162 l 1
EndSplineSet
EndChar

StartChar: Edieresis
Encoding: 203 203 141
Width: 1401
GlyphClass: 2
Flags: HW
LayerCount: 2
Fore
SplineSet
1327 969 m 1
 1327 1623 l 1
 59 1623 l 1
 59 1270 l 1
 217 1270 l 1
 217 359 l 1
 59 359 l 1
 59 0 l 1
 1338 0 l 1
 1338 687 l 1
 1065 687 l 1
 1002 420 l 1
 989 359 l 1
 770 359 l 1
 770 636 l 1
 975 636 l 1
 975 988 l 1
 770 988 l 1
 770 1270 l 1
 983 1270 l 1
 1059 968 l 1
 1327 969 l 1
614 1904 m 0
 614 1832 591.833007812 1775.66699219 547.5 1735 c 128
 503.166992188 1694.33300781 450.666992188 1674 390 1674 c 0
 328 1674 274.5 1694.5 229.5 1735.5 c 128
 184.5 1776.5 162 1833.66699219 162 1907 c 0
 162 1978.33300781 184.333007812 2034 229 2074 c 128
 273.666992188 2114 326.666992188 2134 388 2134 c 128
 449.333007812 2134 502.333007812 2113.83300781 547 2073.5 c 128
 591.666992188 2033.16699219 614 1976.66699219 614 1904 c 0
1231 1904 m 0
 1231 1832 1208.83300781 1775.66699219 1164.5 1735 c 128
 1120.16699219 1694.33300781 1067.66699219 1674 1007 1674 c 0
 945 1674 891.5 1694.5 846.5 1735.5 c 128
 801.5 1776.5 779 1833.66699219 779 1907 c 0
 779 1978.33300781 801.333007812 2034 846 2074 c 128
 890.666992188 2114 943.666992188 2134 1005 2134 c 128
 1066.33300781 2134 1119.33300781 2113.83300781 1164 2073.5 c 128
 1208.66699219 2033.16699219 1231 1976.66699219 1231 1904 c 0
EndSplineSet
EndChar

StartChar: Igrave
Encoding: 204 204 142
Width: 974
GlyphClass: 2
Flags: HW
LayerCount: 2
Fore
SplineSet
926 1623 m 1
 62 1623 l 1
 62 1270 l 1
 205 1270 l 1
 205 359 l 1
 58 359 l 1
 58 0 l 1
 920 0 l 1
 920 359 l 1
 779 359 l 1
 779 1270 l 1
 926 1270 l 1
 926 1623 l 1
349 2270 m 1
 823 1833 l 1
 719 1692 l 1
 165 2005 l 1
 349 2270 l 1
EndSplineSet
EndChar

StartChar: Iacute
Encoding: 205 205 143
Width: 974
GlyphClass: 2
Flags: HW
LayerCount: 2
Fore
SplineSet
926 1270 m 1
 779 1270 l 1
 779 359 l 1
 920 359 l 1
 920 0 l 1
 58 0 l 1
 58 359 l 1
 205 359 l 1
 205 1270 l 1
 62 1270 l 1
 62 1623 l 1
 926 1623 l 1
 926 1270 l 1
823 2005 m 1
 269 1692 l 1
 165 1833 l 1
 639 2270 l 1
 823 2005 l 1
EndSplineSet
EndChar

StartChar: Icircumflex
Encoding: 206 206 144
Width: 974
GlyphClass: 2
Flags: HW
LayerCount: 2
Fore
SplineSet
926 1270 m 1
 779 1270 l 1
 779 359 l 1
 920 359 l 1
 920 0 l 1
 58 0 l 1
 58 359 l 1
 205 359 l 1
 205 1270 l 1
 62 1270 l 1
 62 1623 l 1
 926 1623 l 1
 926 1270 l 1
629 2162 m 1
 903 1786 l 1
 749 1685 l 1
 494 1930 l 1
 239 1685 l 1
 85 1786 l 1
 358 2163 l 1
 629 2162 l 1
EndSplineSet
EndChar

StartChar: Idieresis
Encoding: 207 207 145
Width: 1108
GlyphClass: 2
Flags: HW
LayerCount: 2
Fore
SplineSet
986 1623 m 1
 122 1623 l 1
 122 1270 l 1
 265 1270 l 1
 265 359 l 1
 118 359 l 1
 118 0 l 1
 980 0 l 1
 980 359 l 1
 839 359 l 1
 839 1270 l 1
 986 1270 l 1
 986 1623 l 1
472 1904 m 0
 472 1832 449.833007812 1775.66699219 405.5 1735 c 128
 361.166992188 1694.33300781 308.666992188 1674 248 1674 c 0
 186 1674 132.5 1694.5 87.5 1735.5 c 128
 42.5 1776.5 20 1833.66699219 20 1907 c 0
 20 1978.33300781 42.3330078125 2034 87 2074 c 128
 131.666992188 2114 184.666992188 2134 246 2134 c 128
 307.333007812 2134 360.333007812 2113.83300781 405 2073.5 c 128
 449.666992188 2033.16699219 472 1976.66699219 472 1904 c 0
1089 1904 m 0
 1089 1832 1066.83300781 1775.66699219 1022.5 1735 c 128
 978.166992188 1694.33300781 925.666992188 1674 865 1674 c 0
 803 1674 749.5 1694.5 704.5 1735.5 c 128
 659.5 1776.5 637 1833.66699219 637 1907 c 0
 637 1978.33300781 659.333007812 2034 704 2074 c 128
 748.666992188 2114 801.666992188 2134 863 2134 c 128
 924.333007812 2134 977.333007812 2113.83300781 1022 2073.5 c 128
 1066.66699219 2033.16699219 1089 1976.66699219 1089 1904 c 0
EndSplineSet
EndChar

StartChar: Eth
Encoding: 208 208 146
Width: 1746
GlyphClass: 2
Flags: HW
LayerCount: 2
Fore
SplineSet
224 952 m 1
 224 1271 l 1
 55 1271 l 1
 55 1623 l 1
 885 1623 l 2
 1159.66699219 1623 1365.33300781 1554.5 1502 1417.5 c 128
 1638.66699219 1280.5 1707 1080 1707 816 c 0
 1707 707.333007812 1688.66699219 604.333007812 1652 507 c 128
 1615.33300781 409.666992188 1562.66699219 323.166992188 1494 247.5 c 128
 1425.33300781 171.833007812 1336.66699219 111.666992188 1228 67 c 128
 1119.33300781 22.3330078125 997.666992188 0 863 0 c 2
 61 0 l 1
 61 351 l 1
 224 351 l 1
 224 653 l 1
 94 653 l 1
 94 952 l 1
 224 952 l 1
806 351 m 2
 854.666992188 351 897.5 360.833007812 934.5 380.5 c 128
 971.5 400.166992188 1001 425.166992188 1023 455.5 c 128
 1045 485.833007812 1063 522.333007812 1077 565 c 128
 1091 607.666992188 1100.5 649.166992188 1105.5 689.5 c 128
 1110.5 729.833007812 1113 772.333007812 1113 817 c 0
 1113 863 1111 905.166992188 1107 943.5 c 128
 1103 981.833007812 1094.83300781 1022 1082.5 1064 c 128
 1070.16699219 1106 1053.66699219 1141.5 1033 1170.5 c 128
 1012.33300781 1199.5 983.666992188 1223.5 947 1242.5 c 128
 910.333007812 1261.5 867.333007812 1271 818 1271 c 2
 771 1271 l 1
 771 1237 771 1237 771 1172 c 128
 771 1107 771 1107 771 1053.5 c 128
 771 1000 771 1000 771 952 c 1
 857 952 l 1
 857 653 l 1
 772 653 l 1
 775 351 l 1
 806 351 l 2
EndSplineSet
EndChar

StartChar: Ntilde
Encoding: 209 209 147
Width: 1811
GlyphClass: 2
Flags: HW
LayerCount: 2
Fore
SplineSet
1774 1622 m 1
 1137 1623 l 1
 1137 1270 l 1
 1163 1270.66699219 1185.66699219 1269.33300781 1205 1266 c 128
 1224.33300781 1262.66699219 1239.5 1256.5 1250.5 1247.5 c 128
 1261.5 1238.5 1270.33300781 1229.83300781 1277 1221.5 c 128
 1283.66699219 1213.16699219 1288.16699219 1201.5 1290.5 1186.5 c 128
 1292.83300781 1171.5 1294.16699219 1160 1294.5 1152 c 128
 1294.83300781 1144 1295 1132 1295 1116 c 2
 1295 647 l 1
 799 1623 l 1
 64 1623 l 1
 64 1272 l 1
 221 1272 l 1
 221 550 l 2
 221 524.666992188 220.333007812 504.666992188 219 490 c 128
 217.666992188 475.333007812 214.166992188 458.5 208.5 439.5 c 128
 202.833007812 420.5 194.5 406 183.5 396 c 128
 172.5 386 156.5 377.333007812 135.5 370 c 128
 114.5 362.666992188 88.6669921875 359 58 359 c 1
 58 0 l 1
 695 0 l 1
 695 359 l 1
 638.333007812 359 597.833007812 370 573.5 392 c 128
 549.166992188 414 537 452.333007812 537 507 c 2
 537 908 l 1
 1010 0 l 1
 1616 0 l 1
 1616 1118 l 2
 1616 1167.33300781 1628.16699219 1205 1652.5 1231 c 128
 1676.83300781 1257 1717.33300781 1270 1774 1270 c 1
 1774 1622 l 1
1042 2085 m 0
 1071.33300781 2085 1098 2078.66699219 1122 2066 c 128
 1146 2053.33300781 1166.66699219 2035.5 1184 2012.5 c 128
 1201.33300781 1989.5 1216.5 1966.66699219 1229.5 1944 c 128
 1242.5 1921.33300781 1256.83300781 1895 1272.5 1865 c 128
 1288.16699219 1835 1302 1811.33300781 1314 1794 c 1
 1201 1720 l 1
 1152.33300781 1766.66699219 1118.83300781 1796.33300781 1100.5 1809 c 128
 1082.16699219 1821.66699219 1066.66699219 1828 1054 1828 c 0
 1024 1828 988.333007812 1818 947 1798 c 128
 905.666992188 1778 862.833007812 1757.83300781 818.5 1737.5 c 128
 774.166992188 1717.16699219 733.666992188 1707 697 1707 c 0
 667 1707 640 1713.16699219 616 1725.5 c 128
 592 1737.83300781 571.166992188 1755.5 553.5 1778.5 c 128
 535.833007812 1801.5 520.666992188 1824.16699219 508 1846.5 c 128
 495.333007812 1868.83300781 481 1895.16699219 465 1925.5 c 128
 449 1955.83300781 435 1979.66699219 423 1997 c 1
 537 2072 l 1
 587.666992188 2023.33300781 622.333007812 1992.5 641 1979.5 c 128
 659.666992188 1966.5 675 1960 687 1960 c 0
 711 1960 738.666992188 1966.5 770 1979.5 c 128
 801.333007812 1992.5 830 2006.83300781 856 2022.5 c 128
 882 2038.16699219 912 2052.5 946 2065.5 c 128
 980 2078.5 1012 2085 1042 2085 c 0
EndSplineSet
EndChar

StartChar: Ograve
Encoding: 210 210 148
Width: 1714
GlyphClass: 2
Flags: HW
LayerCount: 2
Fore
SplineSet
1676 808 m 0
 1676 651.333007812 1640.16699219 509 1568.5 381 c 128
 1496.83300781 253 1398.33300781 152.666992188 1273 80 c 128
 1147.66699219 7.3330078125 1008.66699219 -29 856 -29 c 128
 703.333007812 -29 564.333007812 7.3330078125 439 80 c 128
 313.666992188 152.666992188 215.166992188 253 143.5 381 c 128
 71.8330078125 509 36 651.333007812 36 808 c 0
 36 980 71.8330078125 1130.5 143.5 1259.5 c 128
 215.166992188 1388.5 312.5 1486.33300781 435.5 1553 c 128
 558.5 1619.66699219 698.666992188 1653 856 1653 c 128
 1013.33300781 1653 1153.5 1619.66699219 1276.5 1553 c 128
 1399.5 1486.33300781 1496.83300781 1388.5 1568.5 1259.5 c 128
 1640.16699219 1130.5 1676 980 1676 808 c 0
856 319 m 0
 882 319 905.333007812 323.333007812 926 332 c 128
 946.666992188 340.666992188 964.166992188 352.666992188 978.5 368 c 128
 992.833007812 383.333007812 1005.33300781 401.333007812 1016 422 c 128
 1026.66699219 442.666992188 1035 465.166992188 1041 489.5 c 128
 1047 513.833007812 1052 539 1056 565 c 128
 1060 591 1062.5 617.166992188 1063.5 643.5 c 128
 1064.5 669.833007812 1065.33300781 695.666992188 1066 721 c 128
 1066.66699219 746.333007812 1066.66699219 770.333007812 1066 793 c 0
 1066 813 1066 813 1066 823 c 0
 1066 834 1066 834 1066 858 c 0
 1065.33300781 882 1065.33300781 907.333007812 1066 934 c 128
 1066.66699219 960.666992188 1065.5 988.166992188 1062.5 1016.5 c 128
 1059.5 1044.83300781 1055.83300781 1072.33300781 1051.5 1099 c 128
 1047.16699219 1125.66699219 1039.66699219 1151 1029 1175 c 128
 1018.33300781 1199 1005.83300781 1220 991.5 1238 c 128
 977.166992188 1256 958.333007812 1270.16699219 935 1280.5 c 128
 911.666992188 1290.83300781 885.333007812 1296 856 1296 c 0
 830 1296 806.5 1292 785.5 1284 c 128
 764.5 1276 747 1264.83300781 733 1250.5 c 128
 719 1236.16699219 706.5 1219.5 695.5 1200.5 c 128
 684.5 1181.5 676.166992188 1160.83300781 670.5 1138.5 c 128
 664.833007812 1116.16699219 659.833007812 1092.83300781 655.5 1068.5 c 128
 651.166992188 1044.16699219 648.666992188 1019.83300781 648 995.5 c 128
 647.333007812 971.166992188 646.5 947.333007812 645.5 924 c 128
 644.5 900.666992188 644.666992188 878.666992188 646 858 c 1
 646 834 646 834 646 823 c 0
 646 813 646 813 646 793 c 0
 646.666992188 773 646.666992188 752 646 730 c 128
 645.333007812 708 645.833007812 685.166992188 647.5 661.5 c 128
 649.166992188 637.833007812 651 614.333007812 653 591 c 128
 655 567.666992188 658.5 544.666992188 663.5 522 c 128
 668.5 499.333007812 674.333007812 478 681 458 c 128
 687.666992188 438 696.333007812 419.5 707 402.5 c 128
 717.666992188 385.5 729.833007812 370.833007812 743.5 358.5 c 128
 757.166992188 346.166992188 773.666992188 336.5 793 329.5 c 128
 812.333007812 322.5 833.333007812 319 856 319 c 0
709 2270 m 1
 1183 1833 l 1
 1079 1692 l 1
 525 2005 l 1
 709 2270 l 1
EndSplineSet
EndChar

StartChar: Oacute
Encoding: 211 211 149
Width: 1714
GlyphClass: 2
Flags: HW
LayerCount: 2
Fore
SplineSet
1676 808 m 0
 1676 651.333007812 1640.16699219 509 1568.5 381 c 128
 1496.83300781 253 1398.33300781 152.666992188 1273 80 c 128
 1147.66699219 7.3330078125 1008.66699219 -29 856 -29 c 128
 703.333007812 -29 564.333007812 7.3330078125 439 80 c 128
 313.666992188 152.666992188 215.166992188 253 143.5 381 c 128
 71.8330078125 509 36 651.333007812 36 808 c 0
 36 980 71.8330078125 1130.5 143.5 1259.5 c 128
 215.166992188 1388.5 312.5 1486.33300781 435.5 1553 c 128
 558.5 1619.66699219 698.666992188 1653 856 1653 c 128
 1013.33300781 1653 1153.5 1619.66699219 1276.5 1553 c 128
 1399.5 1486.33300781 1496.83300781 1388.5 1568.5 1259.5 c 128
 1640.16699219 1130.5 1676 980 1676 808 c 0
856 319 m 0
 882 319 905.333007812 323.333007812 926 332 c 128
 946.666992188 340.666992188 964.166992188 352.666992188 978.5 368 c 128
 992.833007812 383.333007812 1005.33300781 401.333007812 1016 422 c 128
 1026.66699219 442.666992188 1035 465.166992188 1041 489.5 c 128
 1047 513.833007812 1052 539 1056 565 c 128
 1060 591 1062.5 617.166992188 1063.5 643.5 c 128
 1064.5 669.833007812 1065.33300781 695.666992188 1066 721 c 128
 1066.66699219 746.333007812 1066.66699219 770.333007812 1066 793 c 0
 1066 813 1066 813 1066 823 c 0
 1066 834 1066 834 1066 858 c 0
 1065.33300781 882 1065.33300781 907.333007812 1066 934 c 128
 1066.66699219 960.666992188 1065.5 988.166992188 1062.5 1016.5 c 128
 1059.5 1044.83300781 1055.83300781 1072.33300781 1051.5 1099 c 128
 1047.16699219 1125.66699219 1039.66699219 1151 1029 1175 c 128
 1018.33300781 1199 1005.83300781 1220 991.5 1238 c 128
 977.166992188 1256 958.333007812 1270.16699219 935 1280.5 c 128
 911.666992188 1290.83300781 885.333007812 1296 856 1296 c 0
 830 1296 806.5 1292 785.5 1284 c 128
 764.5 1276 747 1264.83300781 733 1250.5 c 128
 719 1236.16699219 706.5 1219.5 695.5 1200.5 c 128
 684.5 1181.5 676.166992188 1160.83300781 670.5 1138.5 c 128
 664.833007812 1116.16699219 659.833007812 1092.83300781 655.5 1068.5 c 128
 651.166992188 1044.16699219 648.666992188 1019.83300781 648 995.5 c 128
 647.333007812 971.166992188 646.5 947.333007812 645.5 924 c 128
 644.5 900.666992188 644.666992188 878.666992188 646 858 c 1
 646 834 646 834 646 823 c 0
 646 813 646 813 646 793 c 0
 646.666992188 773 646.666992188 752 646 730 c 128
 645.333007812 708 645.833007812 685.166992188 647.5 661.5 c 128
 649.166992188 637.833007812 651 614.333007812 653 591 c 128
 655 567.666992188 658.5 544.666992188 663.5 522 c 128
 668.5 499.333007812 674.333007812 478 681 458 c 128
 687.666992188 438 696.333007812 419.5 707 402.5 c 128
 717.666992188 385.5 729.833007812 370.833007812 743.5 358.5 c 128
 757.166992188 346.166992188 773.666992188 336.5 793 329.5 c 128
 812.333007812 322.5 833.333007812 319 856 319 c 0
1183 2005 m 1
 629 1692 l 1
 525 1833 l 1
 999 2270 l 1
 1183 2005 l 1
EndSplineSet
EndChar

StartChar: Ocircumflex
Encoding: 212 212 150
Width: 1714
GlyphClass: 2
Flags: HW
LayerCount: 2
Fore
SplineSet
1676 808 m 0
 1676 651.333007812 1640.16699219 509 1568.5 381 c 128
 1496.83300781 253 1398.33300781 152.666992188 1273 80 c 128
 1147.66699219 7.3330078125 1008.66699219 -29 856 -29 c 128
 703.333007812 -29 564.333007812 7.3330078125 439 80 c 128
 313.666992188 152.666992188 215.166992188 253 143.5 381 c 128
 71.8330078125 509 36 651.333007812 36 808 c 0
 36 980 71.8330078125 1130.5 143.5 1259.5 c 128
 215.166992188 1388.5 312.5 1486.33300781 435.5 1553 c 128
 558.5 1619.66699219 698.666992188 1653 856 1653 c 128
 1013.33300781 1653 1153.5 1619.66699219 1276.5 1553 c 128
 1399.5 1486.33300781 1496.83300781 1388.5 1568.5 1259.5 c 128
 1640.16699219 1130.5 1676 980 1676 808 c 0
856 319 m 0
 882 319 905.333007812 323.333007812 926 332 c 128
 946.666992188 340.666992188 964.166992188 352.666992188 978.5 368 c 128
 992.833007812 383.333007812 1005.33300781 401.333007812 1016 422 c 128
 1026.66699219 442.666992188 1035 465.166992188 1041 489.5 c 128
 1047 513.833007812 1052 539 1056 565 c 128
 1060 591 1062.5 617.166992188 1063.5 643.5 c 128
 1064.5 669.833007812 1065.33300781 695.666992188 1066 721 c 128
 1066.66699219 746.333007812 1066.66699219 770.333007812 1066 793 c 0
 1066 813 1066 813 1066 823 c 0
 1066 834 1066 834 1066 858 c 0
 1065.33300781 882 1065.33300781 907.333007812 1066 934 c 128
 1066.66699219 960.666992188 1065.5 988.166992188 1062.5 1016.5 c 128
 1059.5 1044.83300781 1055.83300781 1072.33300781 1051.5 1099 c 128
 1047.16699219 1125.66699219 1039.66699219 1151 1029 1175 c 128
 1018.33300781 1199 1005.83300781 1220 991.5 1238 c 128
 977.166992188 1256 958.333007812 1270.16699219 935 1280.5 c 128
 911.666992188 1290.83300781 885.333007812 1296 856 1296 c 0
 830 1296 806.5 1292 785.5 1284 c 128
 764.5 1276 747 1264.83300781 733 1250.5 c 128
 719 1236.16699219 706.5 1219.5 695.5 1200.5 c 128
 684.5 1181.5 676.166992188 1160.83300781 670.5 1138.5 c 128
 664.833007812 1116.16699219 659.833007812 1092.83300781 655.5 1068.5 c 128
 651.166992188 1044.16699219 648.666992188 1019.83300781 648 995.5 c 128
 647.333007812 971.166992188 646.5 947.333007812 645.5 924 c 128
 644.5 900.666992188 644.666992188 878.666992188 646 858 c 1
 646 834 646 834 646 823 c 0
 646 813 646 813 646 793 c 0
 646.666992188 773 646.666992188 752 646 730 c 128
 645.333007812 708 645.833007812 685.166992188 647.5 661.5 c 128
 649.166992188 637.833007812 651 614.333007812 653 591 c 128
 655 567.666992188 658.5 544.666992188 663.5 522 c 128
 668.5 499.333007812 674.333007812 478 681 458 c 128
 687.666992188 438 696.333007812 419.5 707 402.5 c 128
 717.666992188 385.5 729.833007812 370.833007812 743.5 358.5 c 128
 757.166992188 346.166992188 773.666992188 336.5 793 329.5 c 128
 812.333007812 322.5 833.333007812 319 856 319 c 0
989 2162 m 1
 1263 1786 l 1
 1109 1685 l 1
 854 1930 l 1
 599 1685 l 1
 445 1786 l 1
 718 2163 l 1
 989 2162 l 1
EndSplineSet
EndChar

StartChar: Otilde
Encoding: 213 213 151
Width: 1714
GlyphClass: 2
Flags: HW
LayerCount: 2
Fore
SplineSet
1676 808 m 0
 1676 651.333007812 1640.16699219 509 1568.5 381 c 128
 1496.83300781 253 1398.33300781 152.666992188 1273 80 c 128
 1147.66699219 7.3330078125 1008.66699219 -29 856 -29 c 128
 703.333007812 -29 564.333007812 7.3330078125 439 80 c 128
 313.666992188 152.666992188 215.166992188 253 143.5 381 c 128
 71.8330078125 509 36 651.333007812 36 808 c 0
 36 980 71.8330078125 1130.5 143.5 1259.5 c 128
 215.166992188 1388.5 312.5 1486.33300781 435.5 1553 c 128
 558.5 1619.66699219 698.666992188 1653 856 1653 c 128
 1013.33300781 1653 1153.5 1619.66699219 1276.5 1553 c 128
 1399.5 1486.33300781 1496.83300781 1388.5 1568.5 1259.5 c 128
 1640.16699219 1130.5 1676 980 1676 808 c 0
856 319 m 0
 882 319 905.333007812 323.333007812 926 332 c 128
 946.666992188 340.666992188 964.166992188 352.666992188 978.5 368 c 128
 992.833007812 383.333007812 1005.33300781 401.333007812 1016 422 c 128
 1026.66699219 442.666992188 1035 465.166992188 1041 489.5 c 128
 1047 513.833007812 1052 539 1056 565 c 128
 1060 591 1062.5 617.166992188 1063.5 643.5 c 128
 1064.5 669.833007812 1065.33300781 695.666992188 1066 721 c 128
 1066.66699219 746.333007812 1066.66699219 770.333007812 1066 793 c 0
 1066 813 1066 813 1066 823 c 0
 1066 834 1066 834 1066 858 c 0
 1065.33300781 882 1065.33300781 907.333007812 1066 934 c 128
 1066.66699219 960.666992188 1065.5 988.166992188 1062.5 1016.5 c 128
 1059.5 1044.83300781 1055.83300781 1072.33300781 1051.5 1099 c 128
 1047.16699219 1125.66699219 1039.66699219 1151 1029 1175 c 128
 1018.33300781 1199 1005.83300781 1220 991.5 1238 c 128
 977.166992188 1256 958.333007812 1270.16699219 935 1280.5 c 128
 911.666992188 1290.83300781 885.333007812 1296 856 1296 c 0
 830 1296 806.5 1292 785.5 1284 c 128
 764.5 1276 747 1264.83300781 733 1250.5 c 128
 719 1236.16699219 706.5 1219.5 695.5 1200.5 c 128
 684.5 1181.5 676.166992188 1160.83300781 670.5 1138.5 c 128
 664.833007812 1116.16699219 659.833007812 1092.83300781 655.5 1068.5 c 128
 651.166992188 1044.16699219 648.666992188 1019.83300781 648 995.5 c 128
 647.333007812 971.166992188 646.5 947.333007812 645.5 924 c 128
 644.5 900.666992188 644.666992188 878.666992188 646 858 c 1
 646 834 646 834 646 823 c 0
 646 813 646 813 646 793 c 0
 646.666992188 773 646.666992188 752 646 730 c 128
 645.333007812 708 645.833007812 685.166992188 647.5 661.5 c 128
 649.166992188 637.833007812 651 614.333007812 653 591 c 128
 655 567.666992188 658.5 544.666992188 663.5 522 c 128
 668.5 499.333007812 674.333007812 478 681 458 c 128
 687.666992188 438 696.333007812 419.5 707 402.5 c 128
 717.666992188 385.5 729.833007812 370.833007812 743.5 358.5 c 128
 757.166992188 346.166992188 773.666992188 336.5 793 329.5 c 128
 812.333007812 322.5 833.333007812 319 856 319 c 0
1028 2085 m 0
 1057.33300781 2085 1084 2078.66699219 1108 2066 c 128
 1132 2053.33300781 1152.66699219 2035.5 1170 2012.5 c 128
 1187.33300781 1989.5 1202.5 1966.66699219 1215.5 1944 c 128
 1228.5 1921.33300781 1242.83300781 1895 1258.5 1865 c 128
 1274.16699219 1835 1288 1811.33300781 1300 1794 c 1
 1187 1720 l 1
 1138.33300781 1766.66699219 1104.83300781 1796.33300781 1086.5 1809 c 128
 1068.16699219 1821.66699219 1052.66699219 1828 1040 1828 c 0
 1010 1828 974.333007812 1818 933 1798 c 128
 891.666992188 1778 848.833007812 1757.83300781 804.5 1737.5 c 128
 760.166992188 1717.16699219 719.666992188 1707 683 1707 c 0
 653 1707 626 1713.16699219 602 1725.5 c 128
 578 1737.83300781 557.166992188 1755.5 539.5 1778.5 c 128
 521.833007812 1801.5 506.666992188 1824.16699219 494 1846.5 c 128
 481.333007812 1868.83300781 467 1895.16699219 451 1925.5 c 128
 435 1955.83300781 421 1979.66699219 409 1997 c 1
 523 2072 l 1
 573.666992188 2023.33300781 608.333007812 1992.5 627 1979.5 c 128
 645.666992188 1966.5 661 1960 673 1960 c 0
 697 1960 724.666992188 1966.5 756 1979.5 c 128
 787.333007812 1992.5 816 2006.83300781 842 2022.5 c 128
 868 2038.16699219 898 2052.5 932 2065.5 c 128
 966 2078.5 998 2085 1028 2085 c 0
EndSplineSet
EndChar

